#File written by RizomUV 2025.0.96.gd7fd59ee. Compilation :Sep 15 2025,14:05:29
mtllib lecroom.mtl
#begin vertices
v 0 0 -2.8424
v 0 0 -0
v -9.2107 0 -0
v -9.2107 0 -2.8424
v 0 12.8044 2.8424
v 0 12.8044 -0
v -9.2107 12.8044 -0
v -9.2107 12.8044 2.8424
v 0 3.2011 11.3695
v 0 6.4022 11.3695
v -9.2107 6.4022 11.3695
v -9.2107 3.2011 11.3695
v 46.0534 6.4022 -2.8424
v 46.0534 6.4022 -0
v 46.0534 3.2011 -0
v 46.0534 3.2011 -2.8424
v 0 3.2011 -11.3695
v 0 6.4022 -11.3695
v 9.2107 6.4022 -11.3695
v 9.2107 3.2011 -11.3695
v -46.0534 6.4022 2.8424
v -46.0534 6.4022 -0
v -46.0534 3.2011 -0
v -46.0534 3.2011 2.8424
v 46.0534 0 -2.8424
v 46.0534 0 -0
v 36.8427 0 -0
v 36.8427 0 -2.8424
v 27.632 0 -0
v 27.632 0 -2.8424
v 18.4214 0 -0
v 18.4214 0 -2.8424
v 9.2107 0 -0
v 9.2107 0 -2.8424
v -46.0534 0 2.8424
v -46.0534 0 -0
v -36.8427 0 -0
v -36.8427 0 2.8424
v -27.632 0 -0
v -27.632 0 2.8424
v -18.4214 0 -0
v -18.4214 0 2.8424
v -9.2107 0 2.8424
v 46.0534 12.8044 2.8424
v 46.0534 12.8044 -0
v 36.8427 12.8044 -0
v 36.8427 12.8044 2.8424
v 27.632 12.8044 -0
v 27.632 12.8044 2.8424
v 18.4214 12.8044 -0
v 18.4214 12.8044 2.8424
v 18.4214 15.5013 2.8424
v 18.4214 15.5013 -0
v 9.2107 15.5013 -0
v 9.2107 15.5013 2.8424
v 9.2107 12.8044 2.8424
v 9.2107 12.8044 -0
v -46.0534 12.8044 -2.8424
v -46.0534 12.8044 -0
v -36.8427 12.8044 -0
v -36.8427 12.8044 -2.8424
v -27.632 12.8044 -0
v -27.632 12.8044 -2.8424
v -18.4214 12.8044 -0
v -18.4214 12.8044 -2.8424
v -9.2107 12.8044 -2.8424
v 45.3424 3.9121 10.3922
v 45.3424 5.6912 10.3922
v 37.5537 5.6912 10.3922
v 37.5537 3.9121 10.3922
v 36.8427 3.2011 11.3695
v 36.8427 6.4022 11.3695
v 27.632 6.4022 11.3695
v 27.632 3.2011 11.3695
v 26.921 3.9121 10.3922
v 26.921 5.6912 10.3922
v 19.1324 5.6912 10.3922
v 19.1324 3.9121 10.3922
v 18.4214 3.2011 11.3695
v 18.4214 6.4022 11.3695
v 9.2107 6.4022 11.3695
v 9.2107 3.2011 11.3695
v 8.4997 3.9121 10.3922
v 8.4997 5.6912 10.3922
v 0.711 5.6912 10.3922
v 0.711 3.9121 10.3922
v -46.0534 9.6033 11.3695
v -46.0534 6.4022 11.3695
v -36.8427 6.4022 11.3695
v -36.8427 9.6033 11.3695
v -36.1317 8.8923 10.3922
v -36.1317 7.1132 10.3922
v -28.3431 7.1132 10.3922
v -28.3431 8.8923 10.3922
v -27.632 9.6033 11.3695
v -27.632 6.4022 11.3695
v -18.4214 6.4022 11.3695
v -18.4214 9.6033 11.3695
v -17.7103 8.8923 10.3922
v -17.7103 7.1132 10.3922
v -9.9217 7.1132 10.3922
v -9.9217 8.8923 10.3922
v -45.3424 3.9121 -10.4163
v -45.3424 5.6912 -10.4163
v -37.5537 5.6912 -10.4163
v -37.5537 3.9121 -10.4163
v -36.8427 3.2011 -11.3695
v -36.8427 6.4022 -11.3695
v -27.632 6.4022 -11.3695
v -27.632 3.2011 -11.3695
v -26.921 3.9121 -10.4163
v -26.921 5.6912 -10.4163
v -19.1324 5.6912 -10.4163
v -19.1324 3.9121 -10.4163
v -18.4214 3.2011 -11.3695
v -18.4214 6.4022 -11.3695
v -9.2107 6.4022 -11.3695
v -9.2107 3.2011 -11.3695
v -8.4997 3.9121 -10.4163
v -8.4997 5.6912 -10.4163
v -0.711 5.6912 -10.4163
v -0.711 3.9121 -10.4163
v 46.0534 9.6033 -11.3695
v 46.0534 6.4022 -11.3695
v 36.8427 6.4022 -11.3695
v 36.8427 9.6033 -11.3695
v 36.1317 8.8923 -10.4163
v 36.1317 7.1132 -10.4163
v 28.3431 7.1132 -10.4163
v 28.3431 8.8923 -10.4163
v 27.632 9.6033 -11.3695
v 27.632 6.4022 -11.3695
v 18.4214 6.4022 -11.3695
v 18.4214 9.6033 -11.3695
v 17.7103 8.8923 -10.4163
v 17.7103 7.1132 -10.4163
v 9.9217 7.1132 -10.4163
v 9.9217 8.8923 -10.4163
v 0 9.6033 11.3695
v 0 12.8044 11.3695
v -9.2107 12.8044 11.3695
v -9.2107 9.6033 11.3695
v -9.2107 0 11.3695
v 0 0 11.3695
v 46.0534 12.8044 -2.8424
v 46.0534 9.6033 -0
v 46.0534 9.6033 -2.8424
v 46.0534 0 2.8424
v 46.0534 3.2011 2.8424
v 0 9.6033 -11.3695
v 0 12.8044 -11.3695
v 9.2107 12.8044 -11.3695
v 9.2107 9.6033 -11.3695
v 9.2107 0 -11.3695
v 0 0 -11.3695
v -46.0534 12.8044 2.8424
v -46.0534 9.6033 -0
v -46.0534 9.6033 2.8424
v -46.0534 0 -2.8424
v -46.0534 3.2011 -2.8424
v 45.3424 10.3143 10.3922
v 45.3424 12.0934 10.3922
v 37.5537 12.0934 10.3922
v 37.5537 10.3143 10.3922
v 45.3424 7.1132 10.3922
v 45.3424 8.8923 10.3922
v 37.5537 8.8923 10.3922
v 37.5537 7.1132 10.3922
v 37.5537 2.4901 10.3922
v 37.5537 0.711 10.3922
v 45.3424 0.711 10.3922
v 45.3424 2.4901 10.3922
v 36.8427 9.6033 11.3695
v 36.8427 12.8044 11.3695
v 27.632 12.8044 11.3695
v 27.632 9.6033 11.3695
v 27.632 0 11.3695
v 36.8427 0 11.3695
v 26.921 10.3143 10.3922
v 26.921 12.0934 10.3922
v 19.1324 12.0934 10.3922
v 19.1324 10.3143 10.3922
v 26.921 7.1132 10.3922
v 26.921 8.8923 10.3922
v 19.1324 8.8923 10.3922
v 19.1324 7.1132 10.3922
v 19.1324 2.4901 10.3922
v 19.1324 0.711 10.3922
v 26.921 0.711 10.3922
v 26.921 2.4901 10.3922
v 18.4214 9.6033 11.3695
v 18.4214 12.8044 11.3695
v 9.2107 12.8044 11.3695
v 9.2107 9.6033 11.3695
v 9.2107 0 11.3695
v 18.4214 0 11.3695
v 8.4997 10.3143 10.3922
v 8.4997 12.0934 10.3922
v 0.711 12.0934 10.3922
v 0.711 10.3143 10.3922
v 8.4997 7.1132 10.3922
v 8.4997 8.8923 10.3922
v 0.711 8.8923 10.3922
v 0.711 7.1132 10.3922
v 0.711 2.4901 10.3922
v 0.711 0.711 10.3922
v 8.4997 0.711 10.3922
v 8.4997 2.4901 10.3922
v -46.0534 3.2011 11.3695
v -46.0534 0 11.3695
v -36.8427 0 11.3695
v -36.8427 3.2011 11.3695
v -36.8427 12.8044 11.3695
v -46.0534 12.8044 11.3695
v -36.1317 2.4901 10.3922
v -36.1317 0.711 10.3922
v -28.3431 0.711 10.3922
v -28.3431 2.4901 10.3922
v -36.1317 5.6912 10.3922
v -36.1317 3.9121 10.3922
v -28.3431 3.9121 10.3922
v -28.3431 5.6912 10.3922
v -28.3431 10.3143 10.3922
v -28.3431 12.0934 10.3922
v -36.1317 12.0934 10.3922
v -36.1317 10.3143 10.3922
v -27.632 3.2011 11.3695
v -27.632 0 11.3695
v -18.4214 0 11.3695
v -18.4214 3.2011 11.3695
v -18.4214 12.8044 11.3695
v -27.632 12.8044 11.3695
v -17.7103 2.4901 10.3922
v -17.7103 0.711 10.3922
v -9.9217 0.711 10.3922
v -9.9217 2.4901 10.3922
v -17.7103 5.6912 10.3922
v -17.7103 3.9121 10.3922
v -9.9217 3.9121 10.3922
v -9.9217 5.6912 10.3922
v -9.9217 10.3143 10.3922
v -9.9217 12.0934 10.3922
v -17.7103 12.0934 10.3922
v -17.7103 10.3143 10.3922
v -45.3424 10.3143 -10.4163
v -45.3424 12.0934 -10.4163
v -37.5537 12.0934 -10.4163
v -37.5537 10.3143 -10.4163
v -45.3424 7.1132 -10.4163
v -45.3424 8.8923 -10.4163
v -37.5537 8.8923 -10.4163
v -37.5537 7.1132 -10.4163
v -37.5537 2.4901 -10.4163
v -37.5537 0.711 -10.4163
v -45.3424 0.711 -10.4163
v -45.3424 2.4901 -10.4163
v -36.8427 9.6033 -11.3695
v -36.8427 12.8044 -11.3695
v -27.632 12.8044 -11.3695
v -27.632 9.6033 -11.3695
v -27.632 0 -11.3695
v -36.8427 0 -11.3695
v -26.921 10.3143 -10.4163
v -26.921 12.0934 -10.4163
v -19.1324 12.0934 -10.4163
v -19.1324 10.3143 -10.4163
v -26.921 7.1132 -10.4163
v -26.921 8.8923 -10.4163
v -19.1324 8.8923 -10.4163
v -19.1324 7.1132 -10.4163
v -19.1324 2.4901 -10.4163
v -19.1324 0.711 -10.4163
v -26.921 0.711 -10.4163
v -26.921 2.4901 -10.4163
v -18.4214 9.6033 -11.3695
v -18.4214 12.8044 -11.3695
v -9.2107 12.8044 -11.3695
v -9.2107 9.6033 -11.3695
v -9.2107 0 -11.3695
v -18.4214 0 -11.3695
v -8.4997 10.3143 -10.4163
v -8.4997 12.0934 -10.4163
v -0.711 12.0934 -10.4163
v -0.711 10.3143 -10.4163
v -8.4997 7.1132 -10.4163
v -8.4997 8.8923 -10.4163
v -0.711 8.8923 -10.4163
v -0.711 7.1132 -10.4163
v -0.711 2.4901 -10.4163
v -0.711 0.711 -10.4163
v -8.4997 0.711 -10.4163
v -8.4997 2.4901 -10.4163
v 46.0534 3.2011 -11.3695
v 46.0534 0 -11.3695
v 36.8427 0 -11.3695
v 36.8427 3.2011 -11.3695
v 36.8427 12.8044 -11.3695
v 46.0534 12.8044 -11.3695
v 36.1317 2.4901 -10.4163
v 36.1317 0.711 -10.4163
v 28.3431 0.711 -10.4163
v 28.3431 2.4901 -10.4163
v 36.1317 5.6912 -10.4163
v 36.1317 3.9121 -10.4163
v 28.3431 3.9121 -10.4163
v 28.3431 5.6912 -10.4163
v 28.3431 10.3143 -10.4163
v 28.3431 12.0934 -10.4163
v 36.1317 12.0934 -10.4163
v 36.1317 10.3143 -10.4163
v 27.632 3.2011 -11.3695
v 27.632 0 -11.3695
v 18.4214 0 -11.3695
v 18.4214 3.2011 -11.3695
v 18.4214 12.8044 -11.3695
v 27.632 12.8044 -11.3695
v 17.7103 2.4901 -10.4163
v 17.7103 0.711 -10.4163
v 9.9217 0.711 -10.4163
v 9.9217 2.4901 -10.4163
v 17.7103 5.6912 -10.4163
v 17.7103 3.9121 -10.4163
v 9.9217 3.9121 -10.4163
v 9.9217 5.6912 -10.4163
v 9.9217 10.3143 -10.4163
v 9.9217 12.0934 -10.4163
v 17.7103 12.0934 -10.4163
v 17.7103 10.3143 -10.4163
v 0 0 8.5271
v -9.2107 0 8.5271
v 0 0 5.6847
v -9.2107 0 5.6847
v 0 0 2.8424
v -9.2107 0 -8.5271
v 0 0 -8.5271
v -9.2107 0 -5.6847
v 0 0 -5.6847
v 0 12.8044 -8.5271
v -9.2107 12.8044 -8.5271
v 0 12.8044 -5.6847
v -9.2107 12.8044 -5.6847
v 0 12.8044 -2.8424
v -9.2107 12.8044 8.5271
v 0 12.8044 8.5271
v -9.2107 12.8044 5.6847
v 0 12.8044 5.6847
v 46.0534 6.4022 8.5271
v 46.0534 6.4022 11.3695
v 46.0534 3.2011 11.3695
v 46.0534 3.2011 8.5271
v 46.0534 6.4022 5.6847
v 46.0534 3.2011 5.6847
v 46.0534 6.4022 2.8424
v 46.0534 3.2011 -8.5271
v 46.0534 6.4022 -8.5271
v 46.0534 3.2011 -5.6847
v 46.0534 6.4022 -5.6847
v -46.0534 6.4022 -8.5271
v -46.0534 6.4022 -11.3695
v -46.0534 3.2011 -11.3695
v -46.0534 3.2011 -8.5271
v -46.0534 6.4022 -5.6847
v -46.0534 3.2011 -5.6847
v -46.0534 6.4022 -2.8424
v -46.0534 3.2011 8.5271
v -46.0534 6.4022 8.5271
v -46.0534 3.2011 5.6847
v -46.0534 6.4022 5.6847
v 46.0534 0 8.5271
v 46.0534 0 11.3695
v 36.8427 0 8.5271
v 46.0534 0 5.6847
v 36.8427 0 5.6847
v 36.8427 0 2.8424
v 36.8427 0 -8.5271
v 46.0534 0 -8.5271
v 36.8427 0 -5.6847
v 46.0534 0 -5.6847
v 27.632 0 8.5271
v 27.632 0 5.6847
v 27.632 0 2.8424
v 27.632 0 -8.5271
v 27.632 0 -5.6847
v 18.4214 0 8.5271
v 18.4214 0 5.6847
v 18.4214 0 2.8424
v 18.4214 0 -8.5271
v 18.4214 0 -5.6847
v 9.2107 0 8.5271
v 9.2107 0 5.6847
v 9.2107 0 2.8424
v 9.2107 0 -8.5271
v 9.2107 0 -5.6847
v -46.0534 0 -8.5271
v -46.0534 0 -11.3695
v -36.8427 0 -8.5271
v -46.0534 0 -5.6847
v -36.8427 0 -5.6847
v -36.8427 0 -2.8424
v -36.8427 0 8.5271
v -46.0534 0 8.5271
v -36.8427 0 5.6847
v -46.0534 0 5.6847
v -27.632 0 -8.5271
v -27.632 0 -5.6847
v -27.632 0 -2.8424
v -27.632 0 8.5271
v -27.632 0 5.6847
v -18.4214 0 -8.5271
v -18.4214 0 -5.6847
v -18.4214 0 -2.8424
v -18.4214 0 8.5271
v -18.4214 0 5.6847
v 46.0534 12.8044 -8.5271
v 36.8427 12.8044 -8.5271
v 46.0534 12.8044 -5.6847
v 36.8427 12.8044 -5.6847
v 36.8427 12.8044 -2.8424
v 36.8427 12.8044 8.5271
v 46.0534 12.8044 11.3695
v 46.0534 12.8044 8.5271
v 36.8427 15.5013 5.6847
v 36.8427 15.5013 8.5271
v 46.0534 15.5013 8.5271
v 46.0534 15.5013 5.6847
v 36.8427 12.8044 5.6847
v 46.0534 12.8044 5.6847
v 27.632 12.8044 -8.5271
v 27.632 12.8044 -5.6847
v 27.632 12.8044 -2.8424
v 27.632 12.8044 8.5271
v 27.632 12.8044 5.6847
v 18.4214 12.8044 -8.5271
v 18.4214 12.8044 -5.6847
v 18.4214 12.8044 -2.8424
v 18.4214 12.8044 8.5271
v 18.4214 12.8044 5.6847
v 9.2107 12.8044 -8.5271
v 9.2107 12.8044 -5.6847
v 9.2107 12.8044 -2.8424
v 9.2107 12.8044 8.5271
v 9.2107 12.8044 5.6847
v -46.0534 12.8044 8.5271
v -36.8427 12.8044 8.5271
v -46.0534 12.8044 5.6847
v -36.8427 12.8044 5.6847
v -36.8427 12.8044 2.8424
v -36.8427 12.8044 -8.5271
v -46.0534 12.8044 -11.3695
v -46.0534 12.8044 -8.5271
v -36.8427 12.8044 -5.6847
v -46.0534 12.8044 -5.6847
v -27.632 12.8044 8.5271
v -27.632 12.8044 5.6847
v -27.632 12.8044 2.8424
v -36.8427 15.5013 -0
v -36.8427 15.5013 2.8424
v -27.632 15.5013 2.8424
v -27.632 15.5013 -0
v -27.632 12.8044 -8.5271
v -27.632 12.8044 -5.6847
v -18.4214 12.8044 8.5271
v -18.4214 12.8044 5.6847
v -18.4214 12.8044 2.8424
v -18.4214 12.8044 -8.5271
v -18.4214 12.8044 -5.6847
v -9.2107 15.5013 -8.5271
v -9.2107 15.5013 -11.3695
v -18.4214 15.5013 -11.3695
v -18.4214 15.5013 -8.5271
v 46.0534 9.6033 11.3695
v 46.0534 9.6033 8.5271
v 46.0534 9.6033 5.6847
v 46.0534 9.6033 2.8424
v 46.0534 9.6033 -8.5271
v 46.0534 9.6033 -5.6847
v -46.0534 9.6033 -11.3695
v -46.0534 9.6033 -8.5271
v -46.0534 9.6033 -5.6847
v -46.0534 9.6033 -2.8424
v -46.0534 9.6033 8.5271
v -46.0534 9.6033 5.6847
v 45.3424 5.6912 11.3695
v 45.3424 3.9121 11.3695
v 37.5537 5.6912 11.3695
v 37.5537 3.9121 11.3695
v 26.921 5.6912 11.3695
v 26.921 3.9121 11.3695
v 19.1324 5.6912 11.3695
v 19.1324 3.9121 11.3695
v 8.4997 5.6912 11.3695
v 8.4997 3.9121 11.3695
v 0.711 5.6912 11.3695
v 0.711 3.9121 11.3695
v -36.1317 7.1132 11.3695
v -36.1317 8.8923 11.3695
v -28.3431 7.1132 11.3695
v -28.3431 8.8923 11.3695
v -17.7103 7.1132 11.3695
v -17.7103 8.8923 11.3695
v -9.9217 7.1132 11.3695
v -9.9217 8.8923 11.3695
v -45.3424 5.6912 -11.3695
v -45.3424 3.9121 -11.3695
v -37.5537 5.6912 -11.3695
v -37.5537 3.9121 -11.3695
v -26.921 5.6912 -11.3695
v -26.921 3.9121 -11.3695
v -19.1324 5.6912 -11.3695
v -19.1324 3.9121 -11.3695
v -8.4997 5.6912 -11.3695
v -8.4997 3.9121 -11.3695
v -0.711 5.6912 -11.3695
v -0.711 3.9121 -11.3695
v 36.1317 7.1132 -11.3695
v 36.1317 8.8923 -11.3695
v 28.3431 7.1132 -11.3695
v 28.3431 8.8923 -11.3695
v 17.7103 7.1132 -11.3695
v 17.7103 8.8923 -11.3695
v 9.9217 7.1132 -11.3695
v 9.9217 8.8923 -11.3695
v 45.3424 12.0934 11.3695
v 45.3424 10.3143 11.3695
v 37.5537 12.0934 11.3695
v 37.5537 10.3143 11.3695
v 45.3424 8.8923 11.3695
v 45.3424 7.1132 11.3695
v 37.5537 8.8923 11.3695
v 37.5537 7.1132 11.3695
v 37.5537 0.711 11.3695
v 37.5537 2.4901 11.3695
v 45.3424 0.711 11.3695
v 45.3424 2.4901 11.3695
v 26.921 12.0934 11.3695
v 26.921 10.3143 11.3695
v 19.1324 12.0934 11.3695
v 19.1324 10.3143 11.3695
v 26.921 8.8923 11.3695
v 26.921 7.1132 11.3695
v 19.1324 8.8923 11.3695
v 19.1324 7.1132 11.3695
v 19.1324 0.711 11.3695
v 19.1324 2.4901 11.3695
v 26.921 0.711 11.3695
v 26.921 2.4901 11.3695
v 8.4997 12.0934 11.3695
v 8.4997 10.3143 11.3695
v 0.711 12.0934 11.3695
v 0.711 10.3143 11.3695
v 8.4997 8.8923 11.3695
v 8.4997 7.1132 11.3695
v 0.711 8.8923 11.3695
v 0.711 7.1132 11.3695
v 0.711 0.711 11.3695
v 0.711 2.4901 11.3695
v 8.4997 0.711 11.3695
v 8.4997 2.4901 11.3695
v -36.1317 0.711 11.3695
v -36.1317 2.4901 11.3695
v -28.3431 0.711 11.3695
v -28.3431 2.4901 11.3695
v -36.1317 3.9121 11.3695
v -36.1317 5.6912 11.3695
v -28.3431 3.9121 11.3695
v -28.3431 5.6912 11.3695
v -28.3431 12.0934 11.3695
v -28.3431 10.3143 11.3695
v -36.1317 12.0934 11.3695
v -36.1317 10.3143 11.3695
v -17.7103 0.711 11.3695
v -17.7103 2.4901 11.3695
v -9.9217 0.711 11.3695
v -9.9217 2.4901 11.3695
v -17.7103 3.9121 11.3695
v -17.7103 5.6912 11.3695
v -9.9217 3.9121 11.3695
v -9.9217 5.6912 11.3695
v -9.9217 12.0934 11.3695
v -9.9217 10.3143 11.3695
v -17.7103 12.0934 11.3695
v -17.7103 10.3143 11.3695
v -45.3424 12.0934 -11.3695
v -45.3424 10.3143 -11.3695
v -37.5537 12.0934 -11.3695
v -37.5537 10.3143 -11.3695
v -45.3424 8.8923 -11.3695
v -45.3424 7.1132 -11.3695
v -37.5537 8.8923 -11.3695
v -37.5537 7.1132 -11.3695
v -37.5537 0.711 -11.3695
v -37.5537 2.4901 -11.3695
v -45.3424 0.711 -11.3695
v -45.3424 2.4901 -11.3695
v -26.921 12.0934 -11.3695
v -26.921 10.3143 -11.3695
v -19.1324 12.0934 -11.3695
v -19.1324 10.3143 -11.3695
v -26.921 8.8923 -11.3695
v -26.921 7.1132 -11.3695
v -19.1324 8.8923 -11.3695
v -19.1324 7.1132 -11.3695
v -19.1324 0.711 -11.3695
v -19.1324 2.4901 -11.3695
v -26.921 0.711 -11.3695
v -26.921 2.4901 -11.3695
v -8.4997 12.0934 -11.3695
v -8.4997 10.3143 -11.3695
v -0.711 12.0934 -11.3695
v -0.711 10.3143 -11.3695
v -8.4997 8.8923 -11.3695
v -8.4997 7.1132 -11.3695
v -0.711 8.8923 -11.3695
v -0.711 7.1132 -11.3695
v -0.711 0.711 -11.3695
v -0.711 2.4901 -11.3695
v -8.4997 0.711 -11.3695
v -8.4997 2.4901 -11.3695
v 36.1317 0.711 -11.3695
v 36.1317 2.4901 -11.3695
v 28.3431 0.711 -11.3695
v 28.3431 2.4901 -11.3695
v 36.1317 3.9121 -11.3695
v 36.1317 5.6912 -11.3695
v 28.3431 3.9121 -11.3695
v 28.3431 5.6912 -11.3695
v 28.3431 12.0934 -11.3695
v 28.3431 10.3143 -11.3695
v 36.1317 12.0934 -11.3695
v 36.1317 10.3143 -11.3695
v 17.7103 0.711 -11.3695
v 17.7103 2.4901 -11.3695
v 9.9217 0.711 -11.3695
v 9.9217 2.4901 -11.3695
v 17.7103 3.9121 -11.3695
v 17.7103 5.6912 -11.3695
v 9.9217 3.9121 -11.3695
v 9.9217 5.6912 -11.3695
v 9.9217 12.0934 -11.3695
v 9.9217 10.3143 -11.3695
v 17.7103 12.0934 -11.3695
v 17.7103 10.3143 -11.3695
#end vertices

#begin 734 textures vertices 
vt 0.3858342 0.6329778 0
vt 0.3858342 0.6094054 0
vt 0.46222 0.6094054 0
vt 0.46222 0.6329778 0
vt 0.4067443 0.0919662 0
vt 0.4067224 0.1169373 0
vt 0.3270729 0.1172977 0
vt 0.3266337 0.09279646 0
vt 0.5820584 0.2663261 0
vt 0.582085 0.298773 0
vt 0.5010054 0.2989098 0
vt 0.5011092 0.2665153 0
vt 0.3185786 0.7650217 0
vt 0.2950062 0.7650217 0
vt 0.2950062 0.7384745 0
vt 0.3185786 0.7384745 0
vt 0.4359288 0.4044852 0
vt 0.4362568 0.4367497 0
vt 0.355286 0.4381932 0
vt 0.3547137 0.4059199 0
vt 0.1217677 0.7650217 0
vt 0.09819527 0.7650217 0
vt 0.09819527 0.7384745 0
vt 0.1217677 0.7384745 0
vt 0.003906271 0.6329778 0
vt 0.003906271 0.6094054 0
vt 0.08029202 0.6094054 0
vt 0.08029202 0.6329778 0
vt 0.1566778 0.6094054 0
vt 0.1566778 0.6329778 0
vt 0.2330627 0.6094054 0
vt 0.2330627 0.6329778 0
vt 0.3094484 0.6094054 0
vt 0.3094484 0.6329778 0
vt 0.7677621 0.5858329 0
vt 0.7677621 0.6094054 0
vt 0.6913764 0.6094054 0
vt 0.6913764 0.5858329 0
vt 0.6149906 0.6094054 0
vt 0.6149906 0.5858329 0
vt 0.5386057 0.6094054 0
vt 0.5386057 0.5858329 0
vt 0.46222 0.5858329 0
vt 0.806217 0.09463219 0
vt 0.8050397 0.1173387 0
vt 0.7250282 0.1156101 0
vt 0.7249341 0.09103128 0
vt 0.6456253 0.115545 0
vt 0.6458824 0.09041238 0
vt 0.5676254 0.1202347 0
vt 0.5674001 0.08770584 0
vt 0.5579687 0.09876492 0
vt 0.5553863 0.1135392 0
vt 0.4944635 0.1086838 0
vt 0.4969571 0.0938939 0
vt 0.4848817 0.08710094 0
vt 0.4851806 0.1197492 0
vt 0.007453019 0.149709 0
vt 0.007225198 0.1245921 0
vt 0.08558126 0.1262063 0
vt 0.08647077 0.1504712 0
vt 0.167813 0.1253182 0
vt 0.1678577 0.1494592 0
vt 0.246021 0.1189079 0
vt 0.2465938 0.1435896 0
vt 0.3278399 0.1417453 0
vt 0.986575 0.2715957 0
vt 0.9862921 0.2838166 0
vt 0.9212402 0.2847179 0
vt 0.9216668 0.2734917 0
vt 0.911562 0.2631515 0
vt 0.9121649 0.2958972 0
vt 0.830626 0.2970809 0
vt 0.8302445 0.2647941 0
vt 0.8211405 0.2756688 0
vt 0.8206859 0.2867006 0
vt 0.7559803 0.2867847 0
vt 0.7564436 0.2757374 0
vt 0.7465856 0.2653142 0
vt 0.7468981 0.2976836 0
vt 0.6657114 0.2987739 0
vt 0.6655522 0.2664645 0
vt 0.656382 0.2772798 0
vt 0.6558415 0.2883158 0
vt 0.591229 0.2879182 0
vt 0.5917882 0.2768568 0
vt 0.1718634 0.327429 0
vt 0.1721157 0.2986755 0
vt 0.2530455 0.2977787 0
vt 0.2530141 0.3297582 0
vt 0.2622324 0.3191022 0
vt 0.2628257 0.3081592 0
vt 0.3272166 0.3088058 0
vt 0.3266481 0.3198643 0
vt 0.3363513 0.3304248 0
vt 0.3363666 0.2979876 0
vt 0.4174044 0.2979659 0
vt 0.4173303 0.3303902 0
vt 0.4265483 0.3196323 0
vt 0.4271425 0.3085744 0
vt 0.4917832 0.3096583 0
vt 0.4911954 0.3207102 0
vt 0.8406774 0.4189148 0
vt 0.8399328 0.4311647 0
vt 0.7748846 0.4294275 0
vt 0.7757178 0.4181765 0
vt 0.7661315 0.4075169 0
vt 0.7654876 0.440126 0
vt 0.6841287 0.4382893 0
vt 0.6847236 0.4060932 0
vt 0.6753774 0.4166201 0
vt 0.6746267 0.4276904 0
vt 0.6098753 0.4260363 0
vt 0.6105471 0.4149429 0
vt 0.6009938 0.4043491 0
vt 0.6006538 0.4365992 0
vt 0.5196657 0.4365608 0
vt 0.5195998 0.4042937 0
vt 0.510491 0.4150535 0
vt 0.5099737 0.4261569 0
vt 0.4452587 0.4259754 0
vt 0.4456993 0.4148631 0
vt 0.02740174 0.4739447 0
vt 0.0271225 0.4452546 0
vt 0.107879 0.4429308 0
vt 0.1084821 0.4747952 0
vt 0.1173937 0.4640459 0
vt 0.1177403 0.4530416 0
vt 0.1821501 0.4523088 0
vt 0.1818515 0.4634265 0
vt 0.1916758 0.4736952 0
vt 0.1909749 0.4414027 0
vt 0.2718896 0.4394039 0
vt 0.2725488 0.4716655 0
vt 0.281431 0.4607861 0
vt 0.2817542 0.4496704 0
vt 0.3463768 0.4490712 0
vt 0.3460284 0.4601859 0
vt 0.5822841 0.3312308 0
vt 0.5826073 0.3636512 0
vt 0.5009546 0.363656 0
vt 0.500969 0.3312967 0
vt 0.5013202 0.2341326 0
vt 0.5822254 0.2339233 0
vt 0.3185786 0.8181161 0
vt 0.2950062 0.7915689 0
vt 0.3185786 0.7915689 0
vt 0.2714337 0.7119272 0
vt 0.2714337 0.7384745 0
vt 0.4366144 0.4690171 0
vt 0.4370477 0.5012726 0
vt 0.3564268 0.5027205 0
vt 0.3558503 0.4704645 0
vt 0.3541131 0.3736551 0
vt 0.4355844 0.3722391 0
vt 0.1217677 0.8181161 0
vt 0.09819527 0.7915689 0
vt 0.1217677 0.7915689 0
vt 0.0746228 0.7119272 0
vt 0.0746228 0.7384745 0
vt 0.9866041 0.3441307 0
vt 0.9856571 0.3565581 0
vt 0.9212552 0.3507986 0
vt 0.9220824 0.339704 0
vt 0.9870294 0.3077403 0
vt 0.9864858 0.319956 0
vt 0.9215238 0.3178631 0
vt 0.9221109 0.3066518 0
vt 0.9204536 0.2516346 0
vt 0.920707 0.2404868 0
vt 0.9852077 0.2349654 0
vt 0.9853161 0.247423 0
vt 0.9122885 0.3286239 0
vt 0.9118305 0.3609245 0
vt 0.8314579 0.361733 0
vt 0.8309953 0.3293796 0
vt 0.8298646 0.2324971 0
vt 0.9103621 0.2307949 0
vt 0.8219172 0.3402871 0
vt 0.8215281 0.3513422 0
vt 0.7569305 0.3514939 0
vt 0.7572735 0.3404337 0
vt 0.8215083 0.3079654 0
vt 0.8210692 0.3190024 0
vt 0.7563847 0.3191381 0
vt 0.756794 0.3080848 0
vt 0.755683 0.2544238 0
vt 0.756199 0.2433798 0
vt 0.8207892 0.2433683 0
vt 0.8203144 0.2544003 0
vt 0.7473385 0.3300485 0
vt 0.7479407 0.3624121 0
vt 0.6666153 0.3634284 0
vt 0.6660505 0.3310873 0
vt 0.6655424 0.2341329 0
vt 0.7463856 0.2329311 0
vt 0.6569658 0.3419518 0
vt 0.6566039 0.3530155 0
vt 0.591737 0.3527791 0
vt 0.5921674 0.3417136 0
vt 0.6565746 0.3096085 0
vt 0.6561137 0.3206529 0
vt 0.5913957 0.3203562 0
vt 0.5918774 0.3092856 0
vt 0.5912477 0.2555005 0
vt 0.5918945 0.244458 0
vt 0.65636 0.2449437 0
vt 0.6557506 0.2559787 0
vt 0.1716201 0.2699146 0
vt 0.1703235 0.2414097 0
vt 0.2513141 0.233699 0
vt 0.25254 0.2658132 0
vt 0.252511 0.3619328 0
vt 0.1706473 0.3558789 0
vt 0.2614107 0.2549872 0
vt 0.2616035 0.243984 0
vt 0.3268245 0.2439988 0
vt 0.3263476 0.255047 0
vt 0.2620996 0.2870669 0
vt 0.2625225 0.2761184 0
vt 0.3271004 0.2764043 0
vt 0.3265984 0.2874658 0
vt 0.3271306 0.3411945 0
vt 0.3265014 0.3522444 0
vt 0.2618962 0.3512526 0
vt 0.2626343 0.3402655 0
vt 0.3362204 0.2655355 0
vt 0.3360467 0.2331127 0
vt 0.4176696 0.2331743 0
vt 0.4174978 0.2655505 0
vt 0.4172354 0.3627899 0
vt 0.3362026 0.3628195 0
vt 0.4267485 0.2548101 0
vt 0.4273901 0.2437657 0
vt 0.492043 0.2448686 0
vt 0.4913883 0.2559114 0
vt 0.4266241 0.2872121 0
vt 0.4272324 0.2761567 0
vt 0.4918696 0.2772599 0
vt 0.4912549 0.2883099 0
vt 0.4917406 0.3420426 0
vt 0.4911664 0.353091 0
vt 0.4264761 0.3520393 0
vt 0.4270694 0.3409879 0
vt 0.837831 0.4910401 0
vt 0.8363964 0.5034673 0
vt 0.77235 0.4951765 0
vt 0.7735925 0.4840711 0
vt 0.8397051 0.4548748 0
vt 0.8386967 0.4671115 0
vt 0.7739001 0.462416 0
vt 0.7748949 0.4511851 0
vt 0.7753829 0.3964842 0
vt 0.7760546 0.3853071 0
vt 0.8407809 0.382451 0
vt 0.8404079 0.394949 0
vt 0.7643688 0.4726995 0
vt 0.7626541 0.5048326 0
vt 0.682872 0.5027376 0
vt 0.6834982 0.4704922 0
vt 0.6853518 0.37389 0
vt 0.7662197 0.3752695 0
vt 0.6742193 0.4810424 0
vt 0.6734822 0.4921298 0
vt 0.6093129 0.4905234 0
vt 0.6099126 0.4794206 0
vt 0.6748024 0.4488233 0
vt 0.6740511 0.4598971 0
vt 0.6095496 0.4582802 0
vt 0.6101912 0.4471819 0
vt 0.6102685 0.3937973 0
vt 0.6109682 0.3827113 0
vt 0.6759799 0.3844116 0
vt 0.6752192 0.3954802 0
vt 0.6003875 0.4688521 0
vt 0.6002304 0.5010995 0
vt 0.5199433 0.5010806 0
vt 0.5197788 0.4688232 0
vt 0.5195744 0.3720237 0
vt 0.6013962 0.3721132 0
vt 0.5107588 0.4795825 0
vt 0.5102814 0.4906869 0
vt 0.4459575 0.4905005 0
vt 0.4463563 0.4793884 0
vt 0.510601 0.4473209 0
vt 0.5101018 0.4584251 0
vt 0.4455768 0.4582421 0
vt 0.446004 0.4471287 0
vt 0.4449621 0.3937138 0
vt 0.4454017 0.3826054 0
vt 0.5104182 0.3827831 0
vt 0.5098872 0.3938848 0
vt 0.02610758 0.4165661 0
vt 0.02433475 0.388143 0
vt 0.1049488 0.3791237 0
vt 0.1067542 0.4110935 0
vt 0.1086071 0.5068593 0
vt 0.02670476 0.5023515 0
vt 0.1153186 0.4001944 0
vt 0.115279 0.3891415 0
vt 0.1803633 0.3878067 0
vt 0.1801639 0.3989142 0
vt 0.1166243 0.4321331 0
vt 0.1168033 0.4211269 0
vt 0.1813395 0.4200549 0
vt 0.1811013 0.4311713 0
vt 0.1827841 0.4845605 0
vt 0.1824297 0.4956744 0
vt 0.1177017 0.4960824 0
vt 0.1181972 0.4850314 0
vt 0.1901296 0.4091078 0
vt 0.1892154 0.3768366 0
vt 0.2704611 0.3749086 0
vt 0.2711975 0.4071486 0
vt 0.2731995 0.5039206 0
vt 0.192265 0.5059611 0
vt 0.280085 0.3962702 0
vt 0.2803789 0.3851577 0
vt 0.3451841 0.384533 0
vt 0.3448532 0.3956456 0
vt 0.2807745 0.428524 0
vt 0.2810857 0.4174088 0
vt 0.3457935 0.4167992 0
vt 0.3454503 0.427914 0
vt 0.3469536 0.4813378 0
vt 0.3466068 0.4924489 0
vt 0.2820734 0.4930451 0
vt 0.2823999 0.4819324 0
vt 0.3858342 0.5386888 0
vt 0.46222 0.5386888 0
vt 0.3858342 0.5622613 0
vt 0.46222 0.5622613 0
vt 0.3858342 0.5858329 0
vt 0.46222 0.6801219 0
vt 0.3858342 0.6801219 0
vt 0.46222 0.6565494 0
vt 0.3858342 0.6565494 0
vt 0.4081829 0.191115 0
vt 0.3305574 0.1904414 0
vt 0.40756 0.1664723 0
vt 0.3289707 0.1661409 0
vt 0.407037 0.1417586 0
vt 0.3263736 0.043844 0
vt 0.4060192 0.04257952 0
vt 0.3263917 0.06831358 0
vt 0.4062013 0.06718982 0
vt 0.2242896 0.7650217 0
vt 0.2007172 0.7650217 0
vt 0.2007172 0.7384745 0
vt 0.2242896 0.7384745 0
vt 0.2478621 0.7650217 0
vt 0.2478621 0.7384745 0
vt 0.2714337 0.7650217 0
vt 0.3657227 0.7384745 0
vt 0.3657227 0.7650217 0
vt 0.3421503 0.7384745 0
vt 0.3421503 0.7650217 0
vt 0.02747871 0.7650217 0
vt 0.003906253 0.7650217 0
vt 0.003906253 0.7384745 0
vt 0.02747871 0.7384745 0
vt 0.05105117 0.7650217 0
vt 0.05105117 0.7384745 0
vt 0.0746228 0.7650217 0
vt 0.1689118 0.7384745 0
vt 0.1689118 0.7650217 0
vt 0.1453394 0.7384745 0
vt 0.1453394 0.7650217 0
vt 0.003906271 0.5386888 0
vt 0.003906271 0.5151163 0
vt 0.08029202 0.5386888 0
vt 0.003906271 0.5622613 0
vt 0.08029202 0.5622613 0
vt 0.08029202 0.5858329 0
vt 0.08029202 0.6801219 0
vt 0.003906271 0.6801219 0
vt 0.08029202 0.6565494 0
vt 0.003906271 0.6565494 0
vt 0.1566778 0.5386888 0
vt 0.1566778 0.5622613 0
vt 0.1566778 0.5858329 0
vt 0.1566778 0.6801219 0
vt 0.1566778 0.6565494 0
vt 0.2330627 0.5386888 0
vt 0.2330627 0.5622613 0
vt 0.2330627 0.5858329 0
vt 0.2330627 0.6801219 0
vt 0.2330627 0.6565494 0
vt 0.3094484 0.5386888 0
vt 0.3094484 0.5622613 0
vt 0.3094484 0.5858329 0
vt 0.3094484 0.6801219 0
vt 0.3094484 0.6565494 0
vt 0.7677621 0.6801219 0
vt 0.7677621 0.7036944 0
vt 0.6913764 0.6801219 0
vt 0.7677621 0.6565494 0
vt 0.6913764 0.6565494 0
vt 0.6913764 0.6329778 0
vt 0.6913764 0.5386888 0
vt 0.7677621 0.5386888 0
vt 0.6913764 0.5622613 0
vt 0.7677621 0.5622613 0
vt 0.6149906 0.6801219 0
vt 0.6149906 0.6565494 0
vt 0.6149906 0.6329778 0
vt 0.6149906 0.5386888 0
vt 0.6149906 0.5622613 0
vt 0.5386057 0.6801219 0
vt 0.5386057 0.6565494 0
vt 0.5386057 0.6329778 0
vt 0.5386057 0.5386888 0
vt 0.5386057 0.5622613 0
vt 0.8061596 0.187458 0
vt 0.7271049 0.1888918 0
vt 0.8052806 0.163723 0
vt 0.7261698 0.164504 0
vt 0.7254628 0.1400815 0
vt 0.7252189 0.03320899 0
vt 0.8095173 0.00390625 0
vt 0.8102488 0.02789165 0
vt 0.7351028 0.05518571 0
vt 0.7380238 0.04017495 0
vt 0.8019403 0.0427058 0
vt 0.7985892 0.06075428 0
vt 0.7251076 0.06636105 0
vt 0.8089508 0.07221479 0
vt 0.6479804 0.1896894 0
vt 0.647084 0.1651425 0
vt 0.6463284 0.1404396 0
vt 0.6466436 0.04041182 0
vt 0.6462043 0.06538163 0
vt 0.568223 0.1924991 0
vt 0.5676735 0.168281 0
vt 0.5674829 0.14419 0
vt 0.5673167 0.03940274 0
vt 0.5671949 0.06361491 0
vt 0.4873034 0.1924008 0
vt 0.486601 0.1680889 0
vt 0.4858903 0.1438602 0
vt 0.4858285 0.03897477 0
vt 0.4853563 0.06311617 0
vt 0.004979793 0.04943806 0
vt 0.08459946 0.04492694 0
vt 0.006052447 0.07419876 0
vt 0.08479746 0.06918698 0
vt 0.08478109 0.09334079 0
vt 0.08793092 0.199171 0
vt 0.008673592 0.2236877 0
vt 0.008334898 0.1992228 0
vt 0.08726332 0.1748106 0
vt 0.007881357 0.1745789 0
vt 0.1663326 0.04407807 0
vt 0.1666609 0.06838355 0
vt 0.1672384 0.09258604 0
vt 0.09464324 0.1148778 0
vt 0.09694292 0.09997667 0
vt 0.1580277 0.1038365 0
vt 0.1556189 0.1186795 0
vt 0.1691045 0.1982099 0
vt 0.1682501 0.1737628 0
vt 0.2463513 0.04469896 0
vt 0.2462632 0.06928634 0
vt 0.2461948 0.09401361 0
vt 0.2471292 0.192482 0
vt 0.2469307 0.168102 0
vt 0.3219002 0.2019913 0
vt 0.3202761 0.2169518 0
vt 0.2573288 0.2139817 0
vt 0.2593666 0.1989757 0
vt 0.2007172 0.7915689 0
vt 0.2242896 0.7915689 0
vt 0.2478621 0.7915689 0
vt 0.2714337 0.7915689 0
vt 0.3657227 0.7915689 0
vt 0.3421503 0.7915689 0
vt 0.003906253 0.7915689 0
vt 0.02747871 0.7915689 0
vt 0.05105117 0.7915689 0
vt 0.0746228 0.7915689 0
vt 0.1689118 0.7915689 0
vt 0.1453394 0.7915689 0
vt 0.9897345 0.289448 0
vt 0.9890218 0.2655262 0
vt 0.9186157 0.2902351 0
vt 0.9180112 0.2684739 0
vt 0.8242788 0.2916624 0
vt 0.823818 0.270289 0
vt 0.7533285 0.2921781 0
vt 0.7529033 0.2707461 0
vt 0.6594066 0.2933046 0
vt 0.6591 0.2719166 0
vt 0.5885474 0.293303 0
vt 0.5883097 0.2718192 0
vt 0.2592909 0.3032087 0
vt 0.2594853 0.3244054 0
vt 0.329919 0.3034342 0
vt 0.3301275 0.3248997 0
vt 0.4236559 0.303522 0
vt 0.4238208 0.3249895 0
vt 0.4945188 0.3043059 0
vt 0.4947048 0.3257478 0
vt 0.8430459 0.4368337 0
vt 0.8432864 0.4130678 0
vt 0.7721327 0.4347317 0
vt 0.7723655 0.4130978 0
vt 0.677957 0.432688 0
vt 0.6781313 0.4114144 0
vt 0.6071843 0.431264 0
vt 0.6072106 0.4099497 0
vt 0.5133947 0.4310897 0
vt 0.5131248 0.4097754 0
vt 0.4426729 0.4312644 0
vt 0.4422531 0.4099465 0
vt 0.1142196 0.448233 0
vt 0.1148333 0.4693047 0
vt 0.1846557 0.4469836 0
vt 0.1853356 0.4683058 0
vt 0.2782522 0.4447926 0
vt 0.278898 0.4661033 0
vt 0.3489187 0.443755 0
vt 0.3495118 0.4650722 0
vt 0.9886289 0.362611 0
vt 0.989343 0.3381499 0
vt 0.9183981 0.3560295 0
vt 0.9185634 0.334504 0
vt 0.9897907 0.3257075 0
vt 0.9896215 0.3017686 0
vt 0.9188055 0.3232764 0
vt 0.9185369 0.3015193 0
vt 0.916902 0.235681 0
vt 0.9179218 0.257216 0
vt 0.9873724 0.2286533 0
vt 0.988842 0.2530729 0
vt 0.8251265 0.3563022 0
vt 0.8245805 0.3348898 0
vt 0.7543186 0.3569017 0
vt 0.7536905 0.335472 0
vt 0.8246606 0.3239605 0
vt 0.8241894 0.3025807 0
vt 0.7537494 0.3245388 0
vt 0.7532346 0.3031092 0
vt 0.7526779 0.238372 0
vt 0.7530213 0.259812 0
vt 0.8234585 0.2379899 0
vt 0.8239007 0.2593711 0
vt 0.6602304 0.3579686 0
vt 0.6596307 0.336561 0
vt 0.58907 0.3581724 0
vt 0.5886147 0.3367118 0
vt 0.6597094 0.3256244 0
vt 0.6592711 0.3042347 0
vt 0.5887353 0.3257513 0
vt 0.588371 0.3042616 0
vt 0.5884398 0.2394129 0
vt 0.5885383 0.2608698 0
vt 0.6590894 0.2395848 0
vt 0.6592823 0.260987 0
vt 0.2578797 0.2390817 0
vt 0.2588418 0.2603581 0
vt 0.3295231 0.238614 0
vt 0.3298894 0.2600644 0
vt 0.2589049 0.2712025 0
vt 0.2594301 0.2923902 0
vt 0.3297771 0.2710181 0
vt 0.3301075 0.2924896 0
vt 0.3299717 0.3572843 0
vt 0.329867 0.3358383 0
vt 0.2590845 0.356568 0
vt 0.2591792 0.3352545 0
vt 0.4239124 0.2387193 0
vt 0.4240046 0.260158 0
vt 0.4948056 0.2395261 0
vt 0.4948716 0.2609639 0
vt 0.4237481 0.2711048 0
vt 0.4238952 0.2925675 0
vt 0.494614 0.2719107 0
vt 0.494753 0.2933568 0
vt 0.4946831 0.3581159 0
vt 0.4944782 0.3366913 0
vt 0.4237385 0.3573919 0
vt 0.4235812 0.3359407 0
vt 0.8390275 0.5095226 0
vt 0.8407268 0.4852901 0
vt 0.7693813 0.500197 0
vt 0.7703897 0.4788227 0
vt 0.8416681 0.4728921 0
vt 0.8424508 0.4491262 0
vt 0.7710624 0.4676174 0
vt 0.7716282 0.4459994 0
vt 0.7725549 0.3804247 0
vt 0.7727099 0.4018509 0
vt 0.843134 0.3763615 0
vt 0.8436011 0.4006373 0
vt 0.6767904 0.4971283 0
vt 0.6769564 0.4758237 0
vt 0.6066653 0.4957617 0
vt 0.6065649 0.4744455 0
vt 0.6773697 0.4648918 0
vt 0.6775523 0.4436133 0
vt 0.6068775 0.4635137 0
vt 0.606852 0.4421962 0
vt 0.6076317 0.3777145 0
vt 0.607558 0.3990177 0
vt 0.6787401 0.3792097 0
vt 0.6785362 0.4004894 0
vt 0.5137068 0.4956101 0
vt 0.5133651 0.474301 0
vt 0.4434001 0.4957917 0
vt 0.4429064 0.4744785 0
vt 0.5135246 0.4633529 0
vt 0.5132211 0.4420408 0
vt 0.4430029 0.4635328 0
vt 0.4425602 0.4422127 0
vt 0.4419431 0.3776945 0
vt 0.4423678 0.3990003 0
vt 0.5130665 0.3775074 0
vt 0.5133082 0.3988222 0
vt 0.1115825 0.3843787 0
vt 0.1129288 0.4055115 0
vt 0.1828537 0.3824674 0
vt 0.1837075 0.4037722 0
vt 0.1132042 0.4163545 0
vt 0.1141393 0.4374088 0
vt 0.1838254 0.4147198 0
vt 0.1846105 0.4360401 0
vt 0.1859062 0.5005606 0
vt 0.1853229 0.4792477 0
vt 0.1150726 0.5013538 0
vt 0.114751 0.4801636 0
vt 0.2768589 0.3802904 0
vt 0.2775554 0.4015873 0
vt 0.347729 0.3792176 0
vt 0.3483481 0.4005293 0
vt 0.277576 0.4125349 0
vt 0.2782431 0.4338416 0
vt 0.3483372 0.4114827 0
vt 0.3489371 0.4328006 0
vt 0.3500921 0.4973313 0
vt 0.349493 0.4760235 0
vt 0.2795416 0.4983604 0
vt 0.2789019 0.4770537 0
vt 0.849851 0.40686 0
vt 0.3185786 0.7119272 0
vt 0.0746228 0.8181161 0
vt 0.3094484 0.7036944 0
vt 0.2950062 0.7119272 0
vt 0.08834568 0.2235458 0
vt 0.02747871 0.8181161 0
vt 0.3892952 0.7915689 0
vt 0.09819527 0.8181161 0
vt 0.8073357 0.2116051 0
vt 0.3892952 0.8181161 0
vt 0.1217677 0.7119272 0
vt 0.2714337 0.8181161 0
vt 0.3892952 0.7384745 0
vt 0.6149906 0.5151163 0
vt 0.09819527 0.7119272 0
vt 0.2950062 0.8181161 0
vt 0.408745 0.215706 0
vt 0.1924843 0.7915689 0
vt 0.4879903 0.2167694 0
vt 0.1924843 0.7650217 0
vt 0.3892952 0.7650217 0
vt 0.4060755 0.01810942 0
vt 0.3265883 0.01943056 0
vt 0.46222 0.5151163 0
vt 0.3858342 0.5151163 0
vt 0.1924843 0.7384745 0
vt 0.8048383 0.1403595 0
vt 0.003906271 0.5858329 0
vt 0.333033 0.2234109 0
vt 0.3858342 0.7036944 0
vt 0.9953467 0.2590443 0
vt 0.007395104 0.09920784 0
vt 0.3892952 0.7119272 0
vt 0.003906271 0.7036944 0
vt 0.7677621 0.6329778 0
vt 0.8491457 0.4432243 0
vt 0.7247991 0.008808105 0
vt 0.08029202 0.7036944 0
vt 0.6461868 0.01582225 0
vt 0.1566778 0.5151163 0
vt 0.08029202 0.5151163 0
vt 0.2242896 0.7119272 0
vt 0.5678075 0.01512169 0
vt 0.4862828 0.01467575 0
vt 0.3094484 0.5151163 0
vt 0.6149906 0.7036944 0
vt 0.2330627 0.5151163 0
vt 0.1924843 0.7119272 0
vt 0.7677621 0.5151163 0
vt 0.6913764 0.5151163 0
vt 0.2483157 0.2255683 0
vt 0.08416874 0.02057706 0
vt 0.00390625 0.02491327 0
vt 0.1924843 0.8181161 0
vt 0.5386057 0.5151163 0
vt 0.2465162 0.02024012 0
vt 0.1662836 0.0197176 0
vt 0.1694827 0.2227718 0
vt 0.6913764 0.7036944 0
vt 0.46222 0.7036944 0
vt 0.5386057 0.7036944 0
vt 0.7281928 0.213259 0
vt 0.1566778 0.7036944 0
vt 0.2330627 0.7036944 0
vt 0.5691039 0.2168241 0
vt 0.6490694 0.2141141 0
vt 0.9960938 0.2955929 0
vt 0.2007172 0.7119272 0
vt 0.993422 0.2216439 0
vt 0.2478621 0.7119272 0
vt 0.3657227 0.7119272 0
vt 0.3421503 0.7119272 0
vt 0.02747871 0.7119272 0
vt 0.003906253 0.7119272 0
vt 0.8494568 0.3696258 0
vt 0.05105117 0.7119272 0
vt 0.1689118 0.7119272 0
vt 0.1453394 0.7119272 0
vt 0.3657227 0.8181161 0
vt 0.3421503 0.8181161 0
vt 0.9944732 0.3695906 0
vt 0.2007172 0.8181161 0
vt 0.2242896 0.8181161 0
vt 0.2478621 0.8181161 0
vt 0.1689118 0.8181161 0
vt 0.1453394 0.8181161 0
vt 0.8445652 0.5167123 0
vt 0.003906253 0.8181161 0
vt 0.05105117 0.8181161 0
vt 0.9959898 0.3321596 0
vt 0.8475903 0.4795806 0
#end 734 textures vertices 

#begin 42 normals 
vn 0 -1 -0
vn 0 1 -0
vn 0 0 1
vn 1 0 -0
vn 0 0 -1
vn -1 0 -0
vn 0.7071 -0.7071 -0
vn -0.7071 -0.7071 -0
vn 0.7071 0.7071 -0
vn 0.3015 0.9045 -0.3015
vn 0.3015 0.9045 0.3015
vn 0.5774 0.5774 0.5774
vn 0.5774 0.5774 -0.5774
vn -0.5774 0.5774 -0.5774
vn -0.5774 0.5774 0.5774
vn -0.3015 0.9045 0.3015
vn -0.3015 0.9045 -0.3015
vn -0.7071 0.7071 -0
vn -0.5774 -0.5774 0.5774
vn 0.5774 -0.5774 0.5774
vn 0.5774 0.5773 0.5774
vn -0.7071 0 0.7071
vn 0.5774 -0.5774 -0.5774
vn -0.5774 -0.5774 -0.5774
vn -0.5774 0.5773 -0.5774
vn 0.7071 0 -0.7071
vn 0 0.7071 0.7071
vn 0 -0.7071 0.7071
vn 0 0.7071 -0.7071
vn 0 -0.7071 -0.7071
vn -0.3015 0.3015 -0.9045
vn 0.3015 0.3015 -0.9045
vn 0.7071 0 0.7071
vn -0.7071 0 -0.7071
vn 0.9045 0.3015 0.3015
vn 0.9045 0.3015 -0.3015
vn -0.3015 -0.3015 0.9045
vn -0.3015 0.3015 0.9045
vn 0.3015 -0.3015 0.9045
vn 0.3015 0.3015 0.9045
vn 0.3015 -0.3015 -0.9045
vn -0.3015 -0.3015 -0.9045
#end 42 normals 

#begin 640 faces
o Box018
usemtl wire_125040136
g Box018
s 2
f 1/1/1 2/2/1 3/3/1 4/4/1 
s 4
f 5/5/2 6/6/2 7/7/2 8/8/2 
s 8
f 9/9/3 10/10/3 11/11/3 12/12/3 
s 16
f 13/13/4 14/14/4 15/15/4 16/16/4 
s 32
f 17/17/5 18/18/5 19/19/5 20/20/5 
s 64
f 21/21/6 22/22/6 23/23/6 24/24/6 
s 2
f 25/25/7 26/26/7 27/27/1 28/28/1 
f 28/28/1 27/27/1 29/29/1 30/30/1 
f 30/30/1 29/29/1 31/31/1 32/32/1 
f 32/32/1 31/31/1 33/33/1 34/34/1 
f 34/34/1 33/33/1 2/2/1 1/1/1 
f 35/35/8 36/36/8 37/37/1 38/38/1 
f 38/38/1 37/37/1 39/39/1 40/40/1 
f 40/40/1 39/39/1 41/41/1 42/42/1 
f 42/42/1 41/41/1 3/3/1 43/43/1 
s 4
f 44/44/9 45/45/9 46/46/2 47/47/2 
f 47/47/2 46/46/2 48/48/2 49/49/2 
f 49/49/2 48/48/2 50/50/10 51/51/11 
f 52/52/12 53/53/13 54/54/14 55/55/15 
f 56/56/16 57/57/17 6/6/2 5/5/2 
f 58/58/18 59/59/18 60/60/17 61/61/2 
f 61/61/2 60/60/17 62/62/10 63/63/2 
f 63/63/2 62/62/10 64/64/2 65/65/2 
f 65/65/2 64/64/2 7/7/2 66/66/2 
s 8
f 67/67/15 68/68/19 69/69/20 70/70/12 
f 71/71/3 72/72/3 73/73/3 74/74/3 
f 75/75/15 76/76/19 77/77/20 78/78/21 
f 79/79/3 80/80/3 81/81/3 82/82/3 
f 83/83/15 84/84/19 85/85/20 86/86/12 
f 87/87/22 88/88/22 89/89/3 90/90/3 
f 91/91/20 92/92/12 93/93/15 94/94/19 
f 95/95/3 96/96/3 97/97/3 98/98/3 
f 99/99/20 100/100/21 101/101/15 102/102/19 
s 32
f 103/103/13 104/104/23 105/105/24 106/106/14 
f 107/107/5 108/108/5 109/109/5 110/110/5 
f 111/111/13 112/112/23 113/113/24 114/114/25 
f 115/115/5 116/116/5 117/117/5 118/118/5 
f 119/119/13 120/120/23 121/121/24 122/122/14 
f 123/123/26 124/124/26 125/125/5 126/126/5 
f 127/127/24 128/128/14 129/129/13 130/130/23 
f 131/131/5 132/132/5 133/133/5 134/134/5 
f 135/135/24 136/136/25 137/137/13 138/138/23 
s 8
f 139/139/3 140/140/27 141/141/27 142/142/3 
f 10/10/3 139/139/3 142/142/3 11/11/3 
f 12/12/3 143/143/28 144/144/28 9/9/3 
s 16
f 145/145/9 45/659/9 146/146/4 147/147/4 
f 147/147/4 146/146/4 14/14/4 13/13/4 
f 148/148/7 26/647/7 15/15/4 149/149/4 
s 32
f 150/150/5 151/151/29 152/152/29 153/153/5 
f 18/18/5 150/150/5 153/153/5 19/19/5 
f 20/20/5 154/154/30 155/155/30 17/17/5 
s 64
f 156/156/18 59/651/18 157/157/6 158/158/6 
f 158/158/6 157/157/6 22/22/6 21/21/6 
f 159/159/8 36/658/8 23/23/6 160/160/6 
s 8
f 161/161/15 162/162/19 163/163/20 164/164/12 
f 165/165/15 166/166/19 167/167/20 168/168/12 
f 169/169/20 170/170/12 171/171/15 172/172/19 
f 173/173/3 174/174/27 175/175/27 176/176/3 
f 72/72/3 173/173/3 176/176/3 73/73/3 
f 74/74/3 177/177/28 178/178/28 71/71/3 
f 179/179/15 180/180/19 181/181/20 182/182/12 
f 183/183/15 184/184/19 185/185/20 186/186/12 
f 187/187/20 188/188/12 189/189/15 190/190/19 
f 191/191/3 192/192/27 193/193/27 194/194/3 
f 80/80/3 191/191/3 194/194/3 81/81/3 
f 82/82/3 195/195/28 196/196/28 79/79/3 
f 197/197/15 198/198/19 199/199/20 200/200/12 
f 201/201/15 202/202/19 203/203/20 204/204/12 
f 205/205/20 206/206/12 207/207/15 208/208/19 
f 209/209/22 210/210/19 211/211/28 212/212/3 
f 88/88/22 209/209/22 212/212/3 89/89/3 
f 90/90/3 213/213/27 214/214/15 87/87/22 
f 215/215/20 216/216/12 217/217/15 218/218/19 
f 219/219/20 220/220/12 221/221/15 222/222/19 
f 223/223/15 224/224/19 225/225/20 226/226/12 
f 227/227/3 228/228/28 229/229/28 230/230/3 
f 96/96/3 227/227/3 230/230/3 97/97/3 
f 98/98/3 231/231/27 232/232/27 95/95/3 
f 233/233/20 234/234/12 235/235/15 236/236/19 
f 237/237/20 238/238/12 239/239/15 240/240/19 
f 241/241/15 242/242/19 243/243/20 244/244/12 
s 32
f 245/245/13 246/246/23 247/247/24 248/248/14 
f 249/249/13 250/250/23 251/251/24 252/252/14 
f 253/253/24 254/254/14 255/255/13 256/256/23 
f 257/257/5 258/258/29 259/259/29 260/260/5 
f 108/108/5 257/257/5 260/260/5 109/109/5 
f 110/110/5 261/261/30 262/262/30 107/107/5 
f 263/263/13 264/264/23 265/265/24 266/266/14 
f 267/267/13 268/268/23 269/269/24 270/270/14 
f 271/271/24 272/272/14 273/273/13 274/274/23 
f 275/275/5 276/276/31 277/277/32 278/278/5 
f 116/116/5 275/275/5 278/278/5 117/117/5 
f 118/118/5 279/279/30 280/280/30 115/115/5 
f 281/281/13 282/282/23 283/283/24 284/284/14 
f 285/285/13 286/286/23 287/287/24 288/288/14 
f 289/289/24 290/290/14 291/291/13 292/292/23 
f 293/293/26 294/294/23 295/295/30 296/296/5 
f 124/124/26 293/293/26 296/296/5 125/125/5 
f 126/126/5 297/297/29 298/298/13 123/123/26 
f 299/299/24 300/300/14 301/301/13 302/302/23 
f 303/303/24 304/304/14 305/305/13 306/306/23 
f 307/307/13 308/308/23 309/309/24 310/310/14 
f 311/311/5 312/312/30 313/313/30 314/314/5 
f 132/132/5 311/311/5 314/314/5 133/133/5 
f 134/134/5 315/315/29 316/316/29 131/131/5 
f 317/317/24 318/318/14 319/319/13 320/320/23 
f 321/321/24 322/322/14 323/323/13 324/324/23 
f 325/325/13 326/326/23 327/327/24 328/328/14 
s 2
f 329/329/1 144/668/28 143/667/28 330/330/1 
f 331/331/1 329/329/1 330/330/1 332/332/1 
f 333/333/1 331/331/1 332/332/1 43/43/1 
f 2/2/1 333/333/1 43/43/1 3/3/1 
f 334/334/1 279/703/30 155/673/30 335/335/1 
f 336/336/1 334/334/1 335/335/1 337/337/1 
f 4/4/1 336/336/1 337/337/1 1/1/1 
s 4
f 338/338/2 151/660/29 277/672/32 339/339/11 
f 340/340/2 338/338/2 339/339/11 341/341/2 
f 342/342/2 340/340/2 341/341/2 66/66/2 
f 6/6/2 342/342/2 66/66/2 7/7/2 
f 343/343/2 141/666/27 140/665/27 344/344/2 
f 345/345/2 343/343/2 344/344/2 346/346/2 
f 8/8/2 345/345/2 346/346/2 5/5/2 
s 16
f 347/347/4 348/348/33 349/349/33 350/350/4 
f 351/351/4 347/347/4 350/350/4 352/352/4 
f 353/353/4 351/351/4 352/352/4 149/149/4 
f 14/14/4 353/353/4 149/149/4 15/15/4 
f 354/354/4 293/656/26 124/664/26 355/355/4 
f 356/356/4 354/354/4 355/355/4 357/357/4 
f 16/16/4 356/356/4 357/357/4 13/13/4 
s 64
f 358/358/6 359/359/34 360/360/34 361/361/6 
f 362/362/6 358/358/6 361/361/6 363/363/6 
f 364/364/6 362/362/6 363/363/6 160/160/6 
f 22/22/6 364/364/6 160/160/6 23/23/6 
f 365/365/6 209/669/22 88/663/22 366/366/6 
f 367/367/6 365/365/6 366/366/6 368/368/6 
f 24/24/6 367/367/6 368/368/6 21/21/6 
s 2
f 369/369/7 370/370/20 178/684/28 371/371/1 
f 372/372/7 369/369/7 371/371/1 373/373/1 
f 148/671/7 372/372/7 373/373/1 374/374/1 
f 26/26/7 148/671/7 374/374/1 27/27/1 
f 375/375/1 295/681/30 294/677/23 376/376/7 
f 377/377/1 375/375/1 376/376/7 378/378/7 
f 28/28/1 377/377/1 378/378/7 25/25/7 
f 371/371/1 178/684/28 177/683/28 379/379/1 
f 373/373/1 371/371/1 379/379/1 380/380/1 
f 374/374/1 373/373/1 380/380/1 381/381/1 
f 27/27/1 374/374/1 381/381/1 29/29/1 
f 382/382/1 312/706/30 295/681/30 375/375/1 
f 383/383/1 382/382/1 375/375/1 377/377/1 
f 30/30/1 383/383/1 377/377/1 28/28/1 
f 379/379/1 177/683/28 196/690/28 384/384/1 
f 380/380/1 379/379/1 384/384/1 385/385/1 
f 381/381/1 380/380/1 385/385/1 386/386/1 
f 29/29/1 381/381/1 386/386/1 31/31/1 
f 387/387/1 313/707/30 312/706/30 382/382/1 
f 388/388/1 387/387/1 382/382/1 383/383/1 
f 32/32/1 388/388/1 383/383/1 30/30/1 
f 384/384/1 196/690/28 195/688/28 389/389/1 
f 385/385/1 384/384/1 389/389/1 390/390/1 
f 386/386/1 385/385/1 390/390/1 391/391/1 
f 31/31/1 386/386/1 391/391/1 33/33/1 
f 392/392/1 154/646/30 313/707/30 387/387/1 
f 393/393/1 392/392/1 387/387/1 388/388/1 
f 34/34/1 393/393/1 388/388/1 32/32/1 
f 389/389/1 195/688/28 144/668/28 329/329/1 
f 390/390/1 389/389/1 329/329/1 331/331/1 
f 391/391/1 390/390/1 331/331/1 333/333/1 
f 33/33/1 391/391/1 333/333/1 2/2/1 
f 335/335/1 155/673/30 154/646/30 392/392/1 
f 337/337/1 335/335/1 392/392/1 393/393/1 
f 1/1/1 337/337/1 393/393/1 34/34/1 
f 394/394/8 395/395/24 262/702/30 396/396/1 
f 397/397/8 394/394/8 396/396/1 398/398/1 
f 159/678/8 397/397/8 398/398/1 399/399/1 
f 36/36/8 159/678/8 399/399/1 37/37/1 
f 400/400/1 211/693/28 210/692/19 401/401/8 
f 402/402/1 400/400/1 401/401/8 403/403/8 
f 38/38/1 402/402/1 403/403/8 35/35/8 
f 396/396/1 262/702/30 261/689/30 404/404/1 
f 398/398/1 396/396/1 404/404/1 405/405/1 
f 399/399/1 398/398/1 405/405/1 406/406/1 
f 37/37/1 399/399/1 406/406/1 39/39/1 
f 407/407/1 228/657/28 211/693/28 400/400/1 
f 408/408/1 407/407/1 400/400/1 402/402/1 
f 40/40/1 408/408/1 402/402/1 38/38/1 
f 404/404/1 261/689/30 280/704/30 409/409/1 
f 405/405/1 404/404/1 409/409/1 410/410/1 
f 406/406/1 405/405/1 410/410/1 411/411/1 
f 39/39/1 406/406/1 411/411/1 41/41/1 
f 412/412/1 229/698/28 228/657/28 407/407/1 
f 413/413/1 412/412/1 407/407/1 408/408/1 
f 42/42/1 413/413/1 408/408/1 40/40/1 
f 409/409/1 280/704/30 279/703/30 334/334/1 
f 410/410/1 409/409/1 334/334/1 336/336/1 
f 411/411/1 410/410/1 336/336/1 4/4/1 
f 41/41/1 411/411/1 4/4/1 3/3/1 
f 330/330/1 143/667/28 229/698/28 412/412/1 
f 332/332/1 330/330/1 412/412/1 413/413/1 
f 43/43/1 332/332/1 413/413/1 42/42/1 
s 4
f 414/414/9 298/652/13 297/705/29 415/415/2 
f 416/416/9 414/414/9 415/415/2 417/417/2 
f 145/670/9 416/416/9 417/417/2 418/418/2 
f 45/45/9 145/670/9 418/418/2 46/46/2 
f 419/419/16 174/680/27 420/420/12 421/421/35 
f 422/422/14 423/423/15 424/424/12 425/425/13 
f 47/47/2 426/426/17 427/427/36 44/44/9 
f 415/415/2 297/705/29 316/709/29 428/428/2 
f 417/417/2 415/415/2 428/428/2 429/429/2 
f 418/418/2 417/417/2 429/429/2 430/430/2 
f 46/46/2 418/418/2 430/430/2 48/48/2 
f 431/431/2 175/682/27 174/680/27 419/419/16 
f 432/432/2 431/431/2 419/419/16 426/426/17 
f 49/49/2 432/432/2 426/426/17 47/47/2 
f 428/428/2 316/709/29 315/708/29 433/433/2 
f 429/429/2 428/428/2 433/433/2 434/434/2 
f 430/430/2 429/429/2 434/434/2 435/435/2 
f 48/48/2 430/430/2 435/435/2 50/50/10 
f 436/436/2 192/686/27 175/682/27 431/431/2 
f 437/437/2 436/436/2 431/431/2 432/432/2 
f 51/51/11 437/437/2 432/432/2 49/49/2 
f 433/433/2 315/708/29 152/662/29 438/438/2 
f 434/434/2 433/433/2 438/438/2 439/439/2 
f 435/435/2 434/434/2 439/439/2 440/440/2 
f 50/50/10 435/435/2 440/440/2 57/57/17 
f 441/441/2 193/687/27 192/686/27 436/436/2 
f 442/442/2 441/441/2 436/436/2 437/437/2 
f 56/56/16 442/442/2 437/437/2 51/51/11 
f 438/438/2 152/662/29 151/660/29 338/338/2 
f 439/439/2 438/438/2 338/338/2 340/340/2 
f 440/440/2 439/439/2 340/340/2 342/342/2 
f 57/57/17 440/440/2 342/342/2 6/6/2 
f 344/344/2 140/665/27 193/687/27 441/441/2 
f 346/346/2 344/344/2 441/441/2 442/442/2 
f 5/5/2 346/346/2 442/442/2 56/56/16 
f 443/443/18 214/696/15 213/695/27 444/444/2 
f 445/445/18 443/443/18 444/444/2 446/446/2 
f 156/675/18 445/445/18 446/446/2 447/447/16 
f 59/59/18 156/675/18 447/447/16 60/60/17 
f 448/448/2 258/648/29 449/449/14 450/450/18 
f 451/451/2 448/448/2 450/450/18 452/452/18 
f 61/61/2 451/451/2 452/452/18 58/58/18 
f 444/444/2 213/695/27 232/700/27 453/453/2 
f 446/446/2 444/444/2 453/453/2 454/454/2 
f 447/447/16 446/446/2 454/454/2 455/455/11 
f 456/456/14 457/457/15 458/458/12 459/459/13 
f 460/460/2 259/701/29 258/648/29 448/448/2 
f 461/461/2 460/460/2 448/448/2 451/451/2 
f 63/63/2 461/461/2 451/451/2 61/61/2 
f 453/453/2 232/700/27 231/699/27 462/462/2 
f 454/454/2 453/453/2 462/462/2 463/463/2 
f 455/455/11 454/454/2 463/463/2 464/464/2 
f 62/62/10 455/455/11 464/464/2 64/64/2 
f 465/465/16 276/694/31 259/701/29 460/460/2 
f 466/466/2 465/465/16 460/460/2 461/461/2 
f 65/65/2 466/466/2 461/461/2 63/63/2 
f 462/462/2 231/699/27 141/666/27 343/343/2 
f 463/463/2 462/462/2 343/343/2 345/345/2 
f 464/464/2 463/463/2 345/345/2 8/8/2 
f 64/64/2 464/464/2 8/8/2 7/7/2 
f 467/467/12 468/468/13 469/469/14 470/470/15 
f 341/341/2 339/339/11 465/465/16 466/466/2 
f 66/66/2 341/341/2 466/466/2 65/65/2 
s 16
f 421/726/35 420/725/12 471/471/33 472/472/4 
f 427/727/36 421/726/35 472/472/4 473/473/4 
f 44/655/9 427/727/36 473/473/4 474/474/4 
f 45/659/9 44/655/9 474/474/4 146/146/4 
f 475/475/4 123/650/26 298/653/13 414/722/9 
f 476/476/4 475/475/4 414/722/9 416/723/9 
f 147/147/4 476/476/4 416/723/9 145/145/9 
f 472/472/4 471/471/33 348/348/33 347/347/4 
f 473/473/4 472/472/4 347/347/4 351/351/4 
f 474/474/4 473/473/4 351/351/4 353/353/4 
f 146/146/4 474/474/4 353/353/4 14/14/4 
f 355/355/4 124/664/26 123/650/26 475/475/4 
f 357/357/4 355/355/4 475/475/4 476/476/4 
f 13/13/4 357/357/4 476/476/4 147/147/4 
f 376/714/7 294/676/23 293/656/26 354/354/4 
f 378/715/7 376/714/7 354/354/4 356/356/4 
f 25/644/7 378/715/7 356/356/4 16/16/4 
f 26/647/7 25/644/7 16/16/4 15/15/4 
f 350/350/4 349/349/33 370/711/20 369/685/7 
f 352/352/4 350/350/4 369/685/7 372/713/7 
f 149/149/4 352/352/4 372/713/7 148/148/7 
s 64
f 450/649/18 449/731/14 477/477/34 478/478/6 
f 452/732/18 450/649/18 478/478/6 479/479/6 
f 58/645/18 452/732/18 479/479/6 480/480/6 
f 59/651/18 58/645/18 480/480/6 157/157/6 
f 481/481/6 87/661/22 214/697/15 443/728/18 
f 482/482/6 481/481/6 443/728/18 445/729/18 
f 158/158/6 482/482/6 445/729/18 156/156/18 
f 478/478/6 477/477/34 359/359/34 358/358/6 
f 479/479/6 478/478/6 358/358/6 362/362/6 
f 480/480/6 479/479/6 362/362/6 364/364/6 
f 157/157/6 480/480/6 364/364/6 22/22/6 
f 366/366/6 88/663/22 87/661/22 481/481/6 
f 368/368/6 366/366/6 481/481/6 482/482/6 
f 21/21/6 368/368/6 482/482/6 158/158/6 
f 401/720/8 210/691/19 209/669/22 365/365/6 
f 403/721/8 401/720/8 365/365/6 367/367/6 
f 35/654/8 403/721/8 367/367/6 24/24/6 
f 36/658/8 35/654/8 24/24/6 23/23/6 
f 361/361/6 360/360/34 395/717/24 394/716/8 
f 363/363/6 361/361/6 394/716/8 397/719/8 
f 160/160/6 363/363/6 397/719/8 159/159/8 
s off
f 51/51/11 50/50/10 53/53/13 52/52/12 
f 50/50/10 57/57/17 54/54/14 53/53/13 
f 57/57/17 56/56/16 55/55/15 54/54/14 
f 56/56/16 51/51/11 52/52/12 55/55/15 
s 16
f 421/421/35 427/427/36 425/425/13 424/424/12 
s off
f 427/427/36 426/426/17 422/422/14 425/425/13 
f 426/426/17 419/419/16 423/423/15 422/422/14 
f 419/419/16 421/421/35 424/424/12 423/423/15 
f 60/60/17 447/447/16 457/457/15 456/456/14 
f 447/447/16 455/455/11 458/458/12 457/457/15 
f 455/455/11 62/62/10 459/459/13 458/458/12 
f 62/62/10 60/60/17 456/456/14 459/459/13 
s 32
f 277/672/32 276/694/31 469/469/14 468/468/13 
s off
f 276/694/31 465/465/16 470/470/15 469/469/14 
f 465/465/16 339/339/11 467/467/12 470/470/15 
f 339/339/11 277/672/32 468/468/13 467/467/12 
f 349/674/33 348/710/33 483/483/37 484/484/38 
f 348/710/33 72/72/3 485/485/39 483/483/37 
f 72/72/3 71/71/3 486/486/40 485/485/39 
f 71/71/3 349/674/33 484/484/38 486/486/40 
f 74/74/3 73/73/3 487/487/37 488/488/38 
f 73/73/3 80/80/3 489/489/39 487/487/37 
f 80/80/3 79/79/3 490/490/40 489/489/39 
f 79/79/3 74/74/3 488/488/38 490/490/40 
f 82/82/3 81/81/3 491/491/37 492/492/38 
f 81/81/3 10/10/3 493/493/39 491/491/37 
f 10/10/3 9/9/3 494/494/40 493/493/39 
f 9/9/3 82/82/3 492/492/38 494/494/40 
f 90/90/3 89/89/3 495/495/40 496/496/39 
f 89/89/3 96/96/3 497/497/38 495/495/40 
f 96/96/3 95/95/3 498/498/37 497/497/38 
f 95/95/3 90/90/3 496/496/39 498/498/37 
f 98/98/3 97/97/3 499/499/40 500/500/39 
f 97/97/3 11/11/3 501/501/38 499/499/40 
f 11/11/3 142/142/3 502/502/37 501/501/38 
f 142/142/3 98/98/3 500/500/39 502/502/37 
f 360/643/34 359/679/34 503/503/41 504/504/32 
f 359/679/34 108/108/5 505/505/42 503/503/41 
f 108/108/5 107/107/5 506/506/31 505/505/42 
f 107/107/5 360/643/34 504/504/32 506/506/31 
f 110/110/5 109/109/5 507/507/41 508/508/32 
f 109/109/5 116/116/5 509/509/42 507/507/41 
f 116/116/5 115/115/5 510/510/31 509/509/42 
f 115/115/5 110/110/5 508/508/32 510/510/31 
f 118/118/5 117/117/5 511/511/41 512/512/32 
f 117/117/5 18/18/5 513/513/42 511/511/41 
f 18/18/5 17/17/5 514/514/31 513/513/42 
f 17/17/5 118/118/5 512/512/32 514/514/31 
f 126/126/5 125/125/5 515/515/31 516/516/42 
f 125/125/5 132/132/5 517/517/32 515/515/31 
f 132/132/5 131/131/5 518/518/41 517/517/32 
f 131/131/5 126/126/5 516/516/42 518/518/41 
f 134/134/5 133/133/5 519/519/31 520/520/42 
f 133/133/5 19/19/5 521/521/32 519/519/31 
f 19/19/5 153/153/5 522/522/41 521/521/32 
f 153/153/5 134/134/5 520/520/42 522/522/41 
f 471/733/33 420/724/12 523/523/37 524/524/38 
f 420/724/12 174/174/27 525/525/39 523/523/37 
f 174/174/27 173/173/3 526/526/40 525/525/39 
f 173/173/3 471/733/33 524/524/38 526/526/40 
f 348/710/33 471/733/33 527/527/37 528/528/38 
f 471/733/33 173/173/3 529/529/39 527/527/37 
f 173/173/3 72/72/3 530/530/40 529/529/39 
f 72/72/3 348/710/33 528/528/38 530/530/40 
f 71/71/3 178/178/28 531/531/40 532/532/39 
f 178/178/28 370/712/20 533/533/38 531/531/40 
f 370/712/20 349/674/33 534/534/37 533/533/38 
f 349/674/33 71/71/3 532/532/39 534/534/37 
f 176/176/3 175/175/27 535/535/37 536/536/38 
f 175/175/27 192/192/27 537/537/39 535/535/37 
f 192/192/27 191/191/3 538/538/40 537/537/39 
f 191/191/3 176/176/3 536/536/38 538/538/40 
f 73/73/3 176/176/3 539/539/37 540/540/38 
f 176/176/3 191/191/3 541/541/39 539/539/37 
f 191/191/3 80/80/3 542/542/40 541/541/39 
f 80/80/3 73/73/3 540/540/38 542/542/40 
f 79/79/3 196/196/28 543/543/40 544/544/39 
f 196/196/28 177/177/28 545/545/38 543/543/40 
f 177/177/28 74/74/3 546/546/37 545/545/38 
f 74/74/3 79/79/3 544/544/39 546/546/37 
f 194/194/3 193/193/27 547/547/37 548/548/38 
f 193/193/27 140/140/27 549/549/39 547/547/37 
f 140/140/27 139/139/3 550/550/40 549/549/39 
f 139/139/3 194/194/3 548/548/38 550/550/40 
f 81/81/3 194/194/3 551/551/37 552/552/38 
f 194/194/3 139/139/3 553/553/39 551/551/37 
f 139/139/3 10/10/3 554/554/40 553/553/39 
f 10/10/3 81/81/3 552/552/38 554/554/40 
f 9/9/3 144/144/28 555/555/40 556/556/39 
f 144/144/28 195/195/28 557/557/38 555/555/40 
f 195/195/28 82/82/3 558/558/37 557/557/38 
f 82/82/3 9/9/3 556/556/39 558/558/37 
f 212/212/3 211/211/28 559/559/40 560/560/39 
f 211/211/28 228/228/28 561/561/38 559/559/40 
f 228/228/28 227/227/3 562/562/37 561/561/38 
f 227/227/3 212/212/3 560/560/39 562/562/37 
f 89/89/3 212/212/3 563/563/40 564/564/39 
f 212/212/3 227/227/3 565/565/38 563/563/40 
f 227/227/3 96/96/3 566/566/37 565/565/38 
f 96/96/3 89/89/3 564/564/39 566/566/37 
f 95/95/3 232/232/27 567/567/37 568/568/38 
f 232/232/27 213/213/27 569/569/39 567/567/37 
f 213/213/27 90/90/3 570/570/40 569/569/39 
f 90/90/3 95/95/3 568/568/38 570/570/40 
f 230/230/3 229/229/28 571/571/40 572/572/39 
f 229/229/28 143/143/28 573/573/38 571/571/40 
f 143/143/28 12/12/3 574/574/37 573/573/38 
f 12/12/3 230/230/3 572/572/39 574/574/37 
f 97/97/3 230/230/3 575/575/40 576/576/39 
f 230/230/3 12/12/3 577/577/38 575/575/40 
f 12/12/3 11/11/3 578/578/37 577/577/38 
f 11/11/3 97/97/3 576/576/39 578/578/37 
f 142/142/3 141/141/27 579/579/37 580/580/38 
f 141/141/27 231/231/27 581/581/39 579/579/37 
f 231/231/27 98/98/3 582/582/40 581/581/39 
f 98/98/3 142/142/3 580/580/38 582/582/40 
f 477/734/34 449/730/14 583/583/41 584/584/32 
f 449/730/14 258/258/29 585/585/42 583/583/41 
f 258/258/29 257/257/5 586/586/31 585/585/42 
f 257/257/5 477/734/34 584/584/32 586/586/31 
f 359/679/34 477/734/34 587/587/41 588/588/32 
f 477/734/34 257/257/5 589/589/42 587/587/41 
f 257/257/5 108/108/5 590/590/31 589/589/42 
f 108/108/5 359/679/34 588/588/32 590/590/31 
f 107/107/5 262/262/30 591/591/31 592/592/42 
f 262/262/30 395/718/24 593/593/32 591/591/31 
f 395/718/24 360/643/34 594/594/41 593/593/32 
f 360/643/34 107/107/5 592/592/42 594/594/41 
f 260/260/5 259/259/29 595/595/41 596/596/32 
f 259/259/29 276/276/31 597/597/42 595/595/41 
f 276/276/31 275/275/5 598/598/31 597/597/42 
f 275/275/5 260/260/5 596/596/32 598/598/31 
f 109/109/5 260/260/5 599/599/41 600/600/32 
f 260/260/5 275/275/5 601/601/42 599/599/41 
f 275/275/5 116/116/5 602/602/31 601/601/42 
f 116/116/5 109/109/5 600/600/32 602/602/31 
f 115/115/5 280/280/30 603/603/31 604/604/42 
f 280/280/30 261/261/30 605/605/32 603/603/31 
f 261/261/30 110/110/5 606/606/41 605/605/32 
f 110/110/5 115/115/5 604/604/42 606/606/41 
f 278/278/5 277/277/32 607/607/41 608/608/32 
f 277/277/32 151/151/29 609/609/42 607/607/41 
f 151/151/29 150/150/5 610/610/31 609/609/42 
f 150/150/5 278/278/5 608/608/32 610/610/31 
f 117/117/5 278/278/5 611/611/41 612/612/32 
f 278/278/5 150/150/5 613/613/42 611/611/41 
f 150/150/5 18/18/5 614/614/31 613/613/42 
f 18/18/5 117/117/5 612/612/32 614/614/31 
f 17/17/5 155/155/30 615/615/31 616/616/42 
f 155/155/30 279/279/30 617/617/32 615/615/31 
f 279/279/30 118/118/5 618/618/41 617/617/32 
f 118/118/5 17/17/5 616/616/42 618/618/41 
f 296/296/5 295/295/30 619/619/31 620/620/42 
f 295/295/30 312/312/30 621/621/32 619/619/31 
f 312/312/30 311/311/5 622/622/41 621/621/32 
f 311/311/5 296/296/5 620/620/42 622/622/41 
f 125/125/5 296/296/5 623/623/31 624/624/42 
f 296/296/5 311/311/5 625/625/32 623/623/31 
f 311/311/5 132/132/5 626/626/41 625/625/32 
f 132/132/5 125/125/5 624/624/42 626/626/41 
f 131/131/5 316/316/29 627/627/41 628/628/32 
f 316/316/29 297/297/29 629/629/42 627/627/41 
f 297/297/29 126/126/5 630/630/31 629/629/42 
f 126/126/5 131/131/5 628/628/32 630/630/31 
f 314/314/5 313/313/30 631/631/31 632/632/42 
f 313/313/30 154/154/30 633/633/32 631/631/31 
f 154/154/30 20/20/5 634/634/41 633/633/32 
f 20/20/5 314/314/5 632/632/42 634/634/41 
f 133/133/5 314/314/5 635/635/31 636/636/42 
f 314/314/5 20/20/5 637/637/32 635/635/31 
f 20/20/5 19/19/5 638/638/41 637/637/32 
f 19/19/5 133/133/5 636/636/42 638/638/41 
f 153/153/5 152/152/29 639/639/41 640/640/32 
f 152/152/29 315/315/29 641/641/42 639/639/41 
f 315/315/29 134/134/5 642/642/31 641/641/42 
f 134/134/5 153/153/5 640/640/32 642/642/31 
f 484/484/38 483/483/37 68/68/19 67/67/15 
f 483/483/37 485/485/39 69/69/20 68/68/19 
f 485/485/39 486/486/40 70/70/12 69/69/20 
f 486/486/40 484/484/38 67/67/15 70/70/12 
f 488/488/38 487/487/37 76/76/19 75/75/15 
f 487/487/37 489/489/39 77/77/20 76/76/19 
f 489/489/39 490/490/40 78/78/21 77/77/20 
f 490/490/40 488/488/38 75/75/15 78/78/21 
f 492/492/38 491/491/37 84/84/19 83/83/15 
f 491/491/37 493/493/39 85/85/20 84/84/19 
f 493/493/39 494/494/40 86/86/12 85/85/20 
f 494/494/40 492/492/38 83/83/15 86/86/12 
f 496/496/39 495/495/40 92/92/12 91/91/20 
f 495/495/40 497/497/38 93/93/15 92/92/12 
f 497/497/38 498/498/37 94/94/19 93/93/15 
f 498/498/37 496/496/39 91/91/20 94/94/19 
f 500/500/39 499/499/40 100/100/21 99/99/20 
f 499/499/40 501/501/38 101/101/15 100/100/21 
f 501/501/38 502/502/37 102/102/19 101/101/15 
f 502/502/37 500/500/39 99/99/20 102/102/19 
f 504/504/32 503/503/41 104/104/23 103/103/13 
f 503/503/41 505/505/42 105/105/24 104/104/23 
f 505/505/42 506/506/31 106/106/14 105/105/24 
f 506/506/31 504/504/32 103/103/13 106/106/14 
f 508/508/32 507/507/41 112/112/23 111/111/13 
f 507/507/41 509/509/42 113/113/24 112/112/23 
f 509/509/42 510/510/31 114/114/25 113/113/24 
f 510/510/31 508/508/32 111/111/13 114/114/25 
f 512/512/32 511/511/41 120/120/23 119/119/13 
f 511/511/41 513/513/42 121/121/24 120/120/23 
f 513/513/42 514/514/31 122/122/14 121/121/24 
f 514/514/31 512/512/32 119/119/13 122/122/14 
f 516/516/42 515/515/31 128/128/14 127/127/24 
f 515/515/31 517/517/32 129/129/13 128/128/14 
f 517/517/32 518/518/41 130/130/23 129/129/13 
f 518/518/41 516/516/42 127/127/24 130/130/23 
f 520/520/42 519/519/31 136/136/25 135/135/24 
f 519/519/31 521/521/32 137/137/13 136/136/25 
f 521/521/32 522/522/41 138/138/23 137/137/13 
f 522/522/41 520/520/42 135/135/24 138/138/23 
f 524/524/38 523/523/37 162/162/19 161/161/15 
f 523/523/37 525/525/39 163/163/20 162/162/19 
f 525/525/39 526/526/40 164/164/12 163/163/20 
f 526/526/40 524/524/38 161/161/15 164/164/12 
f 528/528/38 527/527/37 166/166/19 165/165/15 
f 527/527/37 529/529/39 167/167/20 166/166/19 
f 529/529/39 530/530/40 168/168/12 167/167/20 
f 530/530/40 528/528/38 165/165/15 168/168/12 
f 532/532/39 531/531/40 170/170/12 169/169/20 
f 531/531/40 533/533/38 171/171/15 170/170/12 
f 533/533/38 534/534/37 172/172/19 171/171/15 
f 534/534/37 532/532/39 169/169/20 172/172/19 
f 536/536/38 535/535/37 180/180/19 179/179/15 
f 535/535/37 537/537/39 181/181/20 180/180/19 
f 537/537/39 538/538/40 182/182/12 181/181/20 
f 538/538/40 536/536/38 179/179/15 182/182/12 
f 540/540/38 539/539/37 184/184/19 183/183/15 
f 539/539/37 541/541/39 185/185/20 184/184/19 
f 541/541/39 542/542/40 186/186/12 185/185/20 
f 542/542/40 540/540/38 183/183/15 186/186/12 
f 544/544/39 543/543/40 188/188/12 187/187/20 
f 543/543/40 545/545/38 189/189/15 188/188/12 
f 545/545/38 546/546/37 190/190/19 189/189/15 
f 546/546/37 544/544/39 187/187/20 190/190/19 
f 548/548/38 547/547/37 198/198/19 197/197/15 
f 547/547/37 549/549/39 199/199/20 198/198/19 
f 549/549/39 550/550/40 200/200/12 199/199/20 
f 550/550/40 548/548/38 197/197/15 200/200/12 
f 552/552/38 551/551/37 202/202/19 201/201/15 
f 551/551/37 553/553/39 203/203/20 202/202/19 
f 553/553/39 554/554/40 204/204/12 203/203/20 
f 554/554/40 552/552/38 201/201/15 204/204/12 
f 556/556/39 555/555/40 206/206/12 205/205/20 
f 555/555/40 557/557/38 207/207/15 206/206/12 
f 557/557/38 558/558/37 208/208/19 207/207/15 
f 558/558/37 556/556/39 205/205/20 208/208/19 
f 560/560/39 559/559/40 216/216/12 215/215/20 
f 559/559/40 561/561/38 217/217/15 216/216/12 
f 561/561/38 562/562/37 218/218/19 217/217/15 
f 562/562/37 560/560/39 215/215/20 218/218/19 
f 564/564/39 563/563/40 220/220/12 219/219/20 
f 563/563/40 565/565/38 221/221/15 220/220/12 
f 565/565/38 566/566/37 222/222/19 221/221/15 
f 566/566/37 564/564/39 219/219/20 222/222/19 
f 568/568/38 567/567/37 224/224/19 223/223/15 
f 567/567/37 569/569/39 225/225/20 224/224/19 
f 569/569/39 570/570/40 226/226/12 225/225/20 
f 570/570/40 568/568/38 223/223/15 226/226/12 
f 572/572/39 571/571/40 234/234/12 233/233/20 
f 571/571/40 573/573/38 235/235/15 234/234/12 
f 573/573/38 574/574/37 236/236/19 235/235/15 
f 574/574/37 572/572/39 233/233/20 236/236/19 
f 576/576/39 575/575/40 238/238/12 237/237/20 
f 575/575/40 577/577/38 239/239/15 238/238/12 
f 577/577/38 578/578/37 240/240/19 239/239/15 
f 578/578/37 576/576/39 237/237/20 240/240/19 
f 580/580/38 579/579/37 242/242/19 241/241/15 
f 579/579/37 581/581/39 243/243/20 242/242/19 
f 581/581/39 582/582/40 244/244/12 243/243/20 
f 582/582/40 580/580/38 241/241/15 244/244/12 
f 584/584/32 583/583/41 246/246/23 245/245/13 
f 583/583/41 585/585/42 247/247/24 246/246/23 
f 585/585/42 586/586/31 248/248/14 247/247/24 
f 586/586/31 584/584/32 245/245/13 248/248/14 
f 588/588/32 587/587/41 250/250/23 249/249/13 
f 587/587/41 589/589/42 251/251/24 250/250/23 
f 589/589/42 590/590/31 252/252/14 251/251/24 
f 590/590/31 588/588/32 249/249/13 252/252/14 
f 592/592/42 591/591/31 254/254/14 253/253/24 
f 591/591/31 593/593/32 255/255/13 254/254/14 
f 593/593/32 594/594/41 256/256/23 255/255/13 
f 594/594/41 592/592/42 253/253/24 256/256/23 
f 596/596/32 595/595/41 264/264/23 263/263/13 
f 595/595/41 597/597/42 265/265/24 264/264/23 
f 597/597/42 598/598/31 266/266/14 265/265/24 
f 598/598/31 596/596/32 263/263/13 266/266/14 
f 600/600/32 599/599/41 268/268/23 267/267/13 
f 599/599/41 601/601/42 269/269/24 268/268/23 
f 601/601/42 602/602/31 270/270/14 269/269/24 
f 602/602/31 600/600/32 267/267/13 270/270/14 
f 604/604/42 603/603/31 272/272/14 271/271/24 
f 603/603/31 605/605/32 273/273/13 272/272/14 
f 605/605/32 606/606/41 274/274/23 273/273/13 
f 606/606/41 604/604/42 271/271/24 274/274/23 
f 608/608/32 607/607/41 282/282/23 281/281/13 
f 607/607/41 609/609/42 283/283/24 282/282/23 
f 609/609/42 610/610/31 284/284/14 283/283/24 
f 610/610/31 608/608/32 281/281/13 284/284/14 
f 612/612/32 611/611/41 286/286/23 285/285/13 
f 611/611/41 613/613/42 287/287/24 286/286/23 
f 613/613/42 614/614/31 288/288/14 287/287/24 
f 614/614/31 612/612/32 285/285/13 288/288/14 
f 616/616/42 615/615/31 290/290/14 289/289/24 
f 615/615/31 617/617/32 291/291/13 290/290/14 
f 617/617/32 618/618/41 292/292/23 291/291/13 
f 618/618/41 616/616/42 289/289/24 292/292/23 
f 620/620/42 619/619/31 300/300/14 299/299/24 
f 619/619/31 621/621/32 301/301/13 300/300/14 
f 621/621/32 622/622/41 302/302/23 301/301/13 
f 622/622/41 620/620/42 299/299/24 302/302/23 
f 624/624/42 623/623/31 304/304/14 303/303/24 
f 623/623/31 625/625/32 305/305/13 304/304/14 
f 625/625/32 626/626/41 306/306/23 305/305/13 
f 626/626/41 624/624/42 303/303/24 306/306/23 
f 628/628/32 627/627/41 308/308/23 307/307/13 
f 627/627/41 629/629/42 309/309/24 308/308/23 
f 629/629/42 630/630/31 310/310/14 309/309/24 
f 630/630/31 628/628/32 307/307/13 310/310/14 
f 632/632/42 631/631/31 318/318/14 317/317/24 
f 631/631/31 633/633/32 319/319/13 318/318/14 
f 633/633/32 634/634/41 320/320/23 319/319/13 
f 634/634/41 632/632/42 317/317/24 320/320/23 
f 636/636/42 635/635/31 322/322/14 321/321/24 
f 635/635/31 637/637/32 323/323/13 322/322/14 
f 637/637/32 638/638/41 324/324/23 323/323/13 
f 638/638/41 636/636/42 321/321/24 324/324/23 
f 640/640/32 639/639/41 326/326/23 325/325/13 
f 639/639/41 641/641/42 327/327/24 326/326/23 
f 641/641/42 642/642/31 328/328/14 327/327/24 
f 642/642/31 640/640/32 325/325/13 328/328/14 
#end 640 faces

#ZOMPROPERTIES_04{
#ZOMPROPERTIES_04 table {Mesh table {SymPlane table {Point vector3d 0 0 0 Normal vector3d 1 0 0 Threshold double 0.01 
#ZOMPROPERTIES_04 Enabled bool false EdgeID int -1 SymEdgeID int -1 UPos double 0.5 LocalMode bool false } RootGroup C
#ZOMPROPERTIES_04 SubMeshGroup {Children table {Tile_0_0 CSubMeshGroup {Children table {} BBoxUV box3d 0 0 0 0 0 0 BBo
#ZOMPROPERTIES_04 x3D box3d 0 0 0 0 0 0 Area3D double 0 AreaUV double 0 IsRoot bool false Properties table {Selected b
#ZOMPROPERTIES_04 ool false Box box3d 0 1 0 1 0 1 U int 0 V int 0 NU int 0 NV int 0 Pack table {BoxFrameEdit bool fals
#ZOMPROPERTIES_04 e Behavior string "Free" Locked bool false Scaling table {Optimization string "Fill" } } Hotspot tab
#ZOMPROPERTIES_04 le {} } IsTile bool true PolyIDs ints { 5 300 53 303 302 301 129 290 283 284 285 286 51 289 288 287 
#ZOMPROPERTIES_04 294 133 297 298 299 134 135 296 295 52 293 292 131 291 130 132 3 279 47 282 281 280 122 269 262 263 
#ZOMPROPERTIES_04 264 265 45 268 267 266 273 126 276 277 278 127 128 275 274 46 272 271 124 270 123 125 4 474 634 106 
#ZOMPROPERTIES_04 632 472 103 462 622 100 620 460 97 38 98 466 626 101 624 464 104 478 638 107 636 476 48 446 606 93 6
#ZOMPROPERTIES_04 04 444 90 434 594 87 592 432 84 422 582 81 580 420 423 421 581 583 425 585 82 587 427 341 501 33 503
#ZOMPROPERTIES_04  343 431 591 83 589 429 428 430 590 588 86 442 602 89 600 440 92 454 614 95 612 452 50 455 453 613 6
#ZOMPROPERTIES_04 15 351 511 37 509 349 451 611 94 609 449 448 450 610 608 348 510 508 36 91 438 598 88 596 436 439 43
#ZOMPROPERTIES_04 7 597 599 345 505 35 507 347 346 344 34 85 504 506 350 443 441 601 603 342 340 500 502 426 424 584 5
#ZOMPROPERTIES_04 86 435 433 593 595 447 445 605 607 49 358 518 41 516 356 359 357 517 519 479 477 637 639 40 354 514 
#ZOMPROPERTIES_04 39 512 352 353 513 515 355 467 465 625 627 96 456 616 99 618 458 457 459 619 617 463 461 621 623 102
#ZOMPROPERTIES_04  468 628 105 630 470 469 471 631 629 475 473 633 635 2 414 574 79 572 412 76 402 562 73 560 400 70 2
#ZOMPROPERTIES_04 9 71 406 566 74 564 404 77 418 578 80 576 416 42 386 546 66 544 384 63 374 534 60 532 372 57 362 522
#ZOMPROPERTIES_04  54 520 360 363 361 521 523 365 525 55 527 367 321 481 24 483 323 371 531 56 529 369 368 370 530 528
#ZOMPROPERTIES_04  59 382 542 62 540 380 65 394 554 68 552 392 44 395 393 553 555 331 491 28 489 329 391 551 67 549 38
#ZOMPROPERTIES_04 9 388 390 550 548 328 490 488 27 64 378 538 61 536 376 379 377 537 539 325 485 26 487 327 326 324 25
#ZOMPROPERTIES_04  58 484 486 330 383 381 541 543 322 320 480 482 366 364 524 526 375 373 533 535 387 385 545 547 43 3
#ZOMPROPERTIES_04 38 498 32 496 336 339 337 497 499 419 417 577 579 31 334 494 30 492 332 333 493 495 335 407 405 565 
#ZOMPROPERTIES_04 567 69 396 556 72 558 398 397 399 559 557 403 401 561 563 75 408 568 78 570 410 409 411 571 569 415 
#ZOMPROPERTIES_04 413 573 575 0 195 188 181 174 11 177 176 175 182 189 196 108 164 157 150 143 136 137 138 139 6 142 1
#ZOMPROPERTIES_04 41 140 147 154 161 168 112 192 185 178 171 172 173 179 180 186 187 193 194 113 114 170 163 156 149 1
#ZOMPROPERTIES_04 55 8 153 160 167 166 110 198 191 184 190 13 197 14 109 111 165 159 158 152 151 9 145 146 7 162 169 1
#ZOMPROPERTIES_04 0 148 144 183 12 1 258 251 314 244 312 237 20 240 239 238 245 252 317 259 319 115 227 220 213 206 19
#ZOMPROPERTIES_04 9 200 201 202 15 205 309 204 311 203 210 217 224 231 119 255 248 241 234 235 236 243 242 249 250 256
#ZOMPROPERTIES_04  257 120 121 233 226 219 212 218 17 304 18 306 305 223 230 229 117 261 254 247 253 260 22 21 23 116 
#ZOMPROPERTIES_04 118 228 222 221 215 208 214 216 307 209 16 225 232 19 211 308 310 207 316 318 246 313 315 } } } BBox
#ZOMPROPERTIES_04 UV box3d 0 0 0 0 0 0 BBox3D box3d 0 0 0 0 0 0 Area3D double 0 AreaUV double 0 IsRoot bool true Prope
#ZOMPROPERTIES_04 rties table {Selected bool false Box box3d 0 1 0 1 0 1 U int 0 V int 0 NU int 1 NV int 1 Pack table 
#ZOMPROPERTIES_04 {Rotate table {Initial string "Automatic" Min double 0 Max double 90 Step double 0 } ResolutionDivis
#ZOMPROPERTIES_04 or int 0 MapResolution int 2048 UsePixelUnit bool true PaddingSize double 0.0078125 MarginSize doubl
#ZOMPROPERTIES_04 e 0.00390625 PaddingSizePx int 16 MarginSizePx int 8 Scaling table {TexelDensity double 1024 Mode in
#ZOMPROPERTIES_04 t 2 Optimization string "Fill" } MaxMutations int 1 Strategy string "Efficient" Sides string "Closed
#ZOMPROPERTIES_04 " } Hotspot table {} Tiling vector3d 1 1 1 TileRatioMode string "1:1" } IsTile bool false PolyIDs in
#ZOMPROPERTIES_04 ts { } } Maps table {Pin CDataMap {PrimType string "Vertex" Size int 1 DefaultValue double 0 ScaleTy
#ZOMPROPERTIES_04 pe string "Normalized" MergeMode string "Max" MinValue double 0 MaxValue double 1 Data doubles { r 7
#ZOMPROPERTIES_04 34 0 } } Density CDataMap {PrimType string "Polygon" Size int 1 DefaultValue double 1 ScaleType stri
#ZOMPROPERTIES_04 ng "Log" MergeMode string "Average" MinValue double 0.1 MaxValue double 4 Data doubles { r 640 1 } }
#ZOMPROPERTIES_04  Protect CDataMap {PrimType string "Vertex" Size int 1 DefaultValue double 0 ScaleType string "Norma
#ZOMPROPERTIES_04 lized" MergeMode string "Average" MinValue double -1 MaxValue double 1 Data doubles { r 734 0 } } } 
#ZOMPROPERTIES_04 } }
#ZOMPROPERTIES_04}


#ZOMSCENE_01{
#ZOMSCENE_01 CScene {Settings table {AxisSystem table {UpVector string "y" } Unit string "cm" TexelDensityDisplay
#ZOMSCENE_01 Unit string "tx/cm" } Root CXForm {Box018 CPrim {PolyRange table {Low int 0 High int 639 } } } }
#ZOMSCENE_01}

#begin 0 fatal error vertex (that RizomUV cannot handle)
#end 0 fatal error vertex (that RizomUV cannot handle)

#begin 0 error vertex
#end 0 error vertex
