#File written by RizomUV 2025.0.96.gd7fd59ee. Compilation :Sep 15 2025,14:05:29
mtllib Ô¶¾°Building3.mtl
#begin vertices
v 0 0 -1.203
v 0 0 1.203
v -2.8708 0 1.203
v -2.8708 0 -1.203
v 0 19.5756 1.203
v 0 19.5756 -1.203
v -2.8708 19.5756 -1.203
v -2.8708 19.5756 1.203
v -0.3117 8.142 4.9955
v -0.3117 11.4336 4.9955
v -2.559 11.4336 4.9955
v -2.559 8.142 4.9955
v 11.2736 11.4336 -0.8913
v 11.2736 11.4336 0.8913
v 11.2736 8.142 0.8913
v 11.2736 8.142 -0.8913
v 0 7.8302 -6.015
v 0 11.7454 -6.015
v 2.8708 11.7454 -6.015
v 2.8708 7.8302 -6.015
v -11.2453 11.4336 0.8913
v -11.2453 11.4336 -0.8913
v -11.2453 8.142 -0.8913
v -11.2453 8.142 0.8913
v 11.483 0 -1.203
v 11.483 0 1.203
v 8.6123 0 1.203
v 8.6123 0 -1.203
v 5.7415 0 1.203
v 5.7415 0 -1.203
v 2.8708 0 1.203
v 2.8708 0 -1.203
v -11.483 0 1.203
v -11.483 0 -1.203
v -8.6123 0 -1.203
v -8.6123 0 1.203
v -5.7415 0 -1.203
v -5.7415 0 1.203
v 11.483 19.5756 1.203
v 11.483 19.5756 -1.203
v 8.6123 19.5756 -1.203
v 8.6123 19.5756 1.203
v 5.7415 19.5756 -1.203
v 5.7415 19.5756 1.203
v 2.8708 19.5756 -1.203
v 2.8708 19.5756 1.203
v -11.483 19.5756 -1.203
v -11.483 19.5756 1.203
v -8.6123 19.5756 1.203
v -8.6123 19.5756 -1.203
v -5.7415 19.5756 1.203
v -5.7415 19.5756 -1.203
v 11.1713 8.142 4.9955
v 11.1713 11.4336 4.9955
v 8.924 11.4336 4.9955
v 8.924 8.142 4.9955
v 8.3005 8.142 4.9955
v 8.3005 11.4336 4.9955
v 6.0533 11.4336 4.9955
v 6.0533 8.142 4.9955
v 5.4298 8.142 4.9955
v 5.4298 11.4336 4.9955
v 3.1825 11.4336 4.9955
v 3.1825 8.142 4.9955
v 2.559 8.142 4.9955
v 2.559 11.4336 4.9955
v 0.3117 11.4336 4.9955
v 0.3117 8.142 4.9955
v -11.1713 11.4336 4.9955
v -11.1713 8.142 4.9955
v -8.924 8.142 4.9955
v -8.924 11.4336 4.9955
v -8.3005 11.4336 4.9955
v -8.3005 8.142 4.9955
v -6.0533 8.142 4.9955
v -6.0533 11.4336 4.9955
v -5.4298 11.4336 4.9955
v -5.4298 8.142 4.9955
v -3.1825 8.142 4.9955
v -3.1825 11.4336 4.9955
v -11.483 7.8302 -6.015
v -11.483 11.7454 -6.015
v -8.6123 11.7454 -6.015
v -8.6123 7.8302 -6.015
v -5.7415 11.7454 -6.015
v -5.7415 7.8302 -6.015
v -2.8708 11.7454 -6.015
v -2.8708 7.8302 -6.015
v 11.483 11.7454 -6.015
v 11.483 7.8302 -6.015
v 8.6123 7.8302 -6.015
v 8.6123 11.7454 -6.015
v 5.7415 7.8302 -6.015
v 5.7415 11.7454 -6.015
v 0 15.6605 6.015
v 0 19.5756 6.015
v -2.8708 19.5756 6.015
v -2.8708 15.6605 6.015
v -0.3117 12.0571 4.9955
v -0.3117 15.3488 4.9955
v -2.559 15.3488 4.9955
v -2.559 12.0571 4.9955
v -2.8708 3.9151 6.015
v -2.8708 0 6.015
v 0 0 6.015
v 0 3.9151 6.015
v -2.559 7.5185 4.9955
v -2.559 4.2269 4.9955
v -0.3117 4.2269 4.9955
v -0.3117 7.5185 4.9955
v 11.2736 19.2639 -0.8913
v 11.2736 19.2639 0.8913
v 11.2736 15.9722 0.8913
v 11.2736 15.9722 -0.8913
v 11.2736 15.3488 -0.8913
v 11.2736 15.3488 0.8913
v 11.2736 12.0571 0.8913
v 11.2736 12.0571 -0.8913
v 11.2736 0.3117 0.8913
v 11.2736 0.3117 -0.8913
v 11.2736 3.6034 -0.8913
v 11.2736 3.6034 0.8913
v 11.2736 4.2269 0.8913
v 11.2736 4.2269 -0.8913
v 11.2736 7.5185 -0.8913
v 11.2736 7.5185 0.8913
v 0 15.6605 -6.015
v 0 19.5756 -6.015
v 2.8708 19.5756 -6.015
v 2.8708 15.6605 -6.015
v 2.8708 3.9151 -6.015
v 2.8708 0 -6.015
v 0 0 -6.015
v 0 3.9151 -6.015
v -11.2453 19.2639 0.8913
v -11.2453 19.2639 -0.8913
v -11.2453 15.9722 -0.8913
v -11.2453 15.9722 0.8913
v -11.2453 15.3488 0.8913
v -11.2453 15.3488 -0.8913
v -11.2453 12.0571 -0.8913
v -11.2453 12.0571 0.8913
v -11.2453 0.3117 -0.8913
v -11.2453 0.3117 0.8913
v -11.2453 3.6034 0.8913
v -11.2453 3.6034 -0.8913
v -11.2453 4.2269 -0.8913
v -11.2453 4.2269 0.8913
v -11.2453 7.5185 0.8913
v -11.2453 7.5185 -0.8913
v 11.483 15.6605 6.015
v 11.483 19.5756 6.015
v 8.6123 19.5756 6.015
v 8.6123 15.6605 6.015
v 11.1713 12.0571 4.9955
v 11.1713 15.3488 4.9955
v 8.924 15.3488 4.9955
v 8.924 12.0571 4.9955
v 8.6123 3.9151 6.015
v 8.6123 0 6.015
v 11.483 0 6.015
v 11.483 3.9151 6.015
v 8.924 7.5185 4.9955
v 8.924 4.2269 4.9955
v 11.1713 4.2269 4.9955
v 11.1713 7.5185 4.9955
v 5.7415 19.5756 6.015
v 5.7415 15.6605 6.015
v 8.3005 12.0571 4.9955
v 8.3005 15.3488 4.9955
v 6.0533 15.3488 4.9955
v 6.0533 12.0571 4.9955
v 5.7415 3.9151 6.015
v 5.7415 0 6.015
v 6.0533 7.5185 4.9955
v 6.0533 4.2269 4.9955
v 8.3005 4.2269 4.9955
v 8.3005 7.5185 4.9955
v 2.8708 19.5756 6.015
v 2.8708 15.6605 6.015
v 5.4298 12.0571 4.9955
v 5.4298 15.3488 4.9955
v 3.1825 15.3488 4.9955
v 3.1825 12.0571 4.9955
v 2.8708 3.9151 6.015
v 2.8708 0 6.015
v 3.1825 7.5185 4.9955
v 3.1825 4.2269 4.9955
v 5.4298 4.2269 4.9955
v 5.4298 7.5185 4.9955
v 2.559 12.0571 4.9955
v 2.559 15.3488 4.9955
v 0.3117 15.3488 4.9955
v 0.3117 12.0571 4.9955
v 0.3117 7.5185 4.9955
v 0.3117 4.2269 4.9955
v 2.559 4.2269 4.9955
v 2.559 7.5185 4.9955
v -11.483 3.9151 6.015
v -11.483 0 6.015
v -8.6123 0 6.015
v -8.6123 3.9151 6.015
v -11.1713 7.5185 4.9955
v -11.1713 4.2269 4.9955
v -8.924 4.2269 4.9955
v -8.924 7.5185 4.9955
v -8.6123 15.6605 6.015
v -8.6123 19.5756 6.015
v -11.483 19.5756 6.015
v -11.483 15.6605 6.015
v -8.924 12.0571 4.9955
v -8.924 15.3488 4.9955
v -11.1713 15.3488 4.9955
v -11.1713 12.0571 4.9955
v -5.7415 0 6.015
v -5.7415 3.9151 6.015
v -8.3005 7.5185 4.9955
v -8.3005 4.2269 4.9955
v -6.0533 4.2269 4.9955
v -6.0533 7.5185 4.9955
v -5.7415 15.6605 6.015
v -5.7415 19.5756 6.015
v -6.0533 12.0571 4.9955
v -6.0533 15.3488 4.9955
v -8.3005 15.3488 4.9955
v -8.3005 12.0571 4.9955
v -5.4298 7.5185 4.9955
v -5.4298 4.2269 4.9955
v -3.1825 4.2269 4.9955
v -3.1825 7.5185 4.9955
v -3.1825 12.0571 4.9955
v -3.1825 15.3488 4.9955
v -5.4298 15.3488 4.9955
v -5.4298 12.0571 4.9955
v -11.483 15.6605 -6.015
v -11.483 19.5756 -6.015
v -8.6123 19.5756 -6.015
v -8.6123 15.6605 -6.015
v -8.6123 3.9151 -6.015
v -8.6123 0 -6.015
v -11.483 0 -6.015
v -11.483 3.9151 -6.015
v -5.7415 19.5756 -6.015
v -5.7415 15.6605 -6.015
v -5.7415 3.9151 -6.015
v -5.7415 0 -6.015
v -2.8708 19.5756 -6.015
v -2.8708 15.6605 -6.015
v -2.8708 3.9151 -6.015
v -2.8708 0 -6.015
v 11.483 3.9151 -6.015
v 11.483 0 -6.015
v 8.6123 0 -6.015
v 8.6123 3.9151 -6.015
v 8.6123 15.6605 -6.015
v 8.6123 19.5756 -6.015
v 11.483 19.5756 -6.015
v 11.483 15.6605 -6.015
v 5.7415 0 -6.015
v 5.7415 3.9151 -6.015
v 5.7415 15.6605 -6.015
v 5.7415 19.5756 -6.015
v 0 7.8302 6.015
v 0 11.7454 6.015
v -0.3117 11.4336 6.015
v -0.3117 8.142 6.015
v -2.8708 11.7454 6.015
v -2.559 11.4336 6.015
v -2.8708 7.8302 6.015
v -2.559 8.142 6.015
v 11.483 7.8302 6.015
v 11.483 11.7454 6.015
v 11.1713 11.4336 6.015
v 11.1713 8.142 6.015
v 8.6123 11.7454 6.015
v 8.924 11.4336 6.015
v 8.6123 7.8302 6.015
v 8.924 8.142 6.015
v 8.3005 11.4336 6.015
v 8.3005 8.142 6.015
v 5.7415 11.7454 6.015
v 6.0533 11.4336 6.015
v 5.7415 7.8302 6.015
v 6.0533 8.142 6.015
v 5.4298 11.4336 6.015
v 5.4298 8.142 6.015
v 2.8708 11.7454 6.015
v 3.1825 11.4336 6.015
v 2.8708 7.8302 6.015
v 3.1825 8.142 6.015
v 2.559 11.4336 6.015
v 2.559 8.142 6.015
v 0.3117 11.4336 6.015
v 0.3117 8.142 6.015
v -11.483 11.7454 6.015
v -11.483 7.8302 6.015
v -11.1713 8.142 6.015
v -11.1713 11.4336 6.015
v -8.6123 7.8302 6.015
v -8.924 8.142 6.015
v -8.6123 11.7454 6.015
v -8.924 11.4336 6.015
v -8.3005 8.142 6.015
v -8.3005 11.4336 6.015
v -5.7415 7.8302 6.015
v -6.0533 8.142 6.015
v -5.7415 11.7454 6.015
v -6.0533 11.4336 6.015
v -5.4298 8.142 6.015
v -5.4298 11.4336 6.015
v -3.1825 8.142 6.015
v -3.1825 11.4336 6.015
v -0.3117 15.3488 6.015
v -0.3117 12.0571 6.015
v -2.559 15.3488 6.015
v -2.559 12.0571 6.015
v -2.559 4.2269 6.015
v -2.559 7.5185 6.015
v -0.3117 4.2269 6.015
v -0.3117 7.5185 6.015
v 11.1713 15.3488 6.015
v 11.1713 12.0571 6.015
v 8.924 15.3488 6.015
v 8.924 12.0571 6.015
v 8.924 4.2269 6.015
v 8.924 7.5185 6.015
v 11.1713 4.2269 6.015
v 11.1713 7.5185 6.015
v 8.3005 15.3488 6.015
v 8.3005 12.0571 6.015
v 6.0533 15.3488 6.015
v 6.0533 12.0571 6.015
v 6.0533 4.2269 6.015
v 6.0533 7.5185 6.015
v 8.3005 4.2269 6.015
v 8.3005 7.5185 6.015
v 5.4298 15.3488 6.015
v 5.4298 12.0571 6.015
v 3.1825 15.3488 6.015
v 3.1825 12.0571 6.015
v 3.1825 4.2269 6.015
v 3.1825 7.5185 6.015
v 5.4298 4.2269 6.015
v 5.4298 7.5185 6.015
v 2.559 15.3488 6.015
v 2.559 12.0571 6.015
v 0.3117 15.3488 6.015
v 0.3117 12.0571 6.015
v 0.3117 4.2269 6.015
v 0.3117 7.5185 6.015
v 2.559 4.2269 6.015
v 2.559 7.5185 6.015
v -11.1713 4.2269 6.015
v -11.1713 7.5185 6.015
v -8.924 4.2269 6.015
v -8.924 7.5185 6.015
v -8.924 15.3488 6.015
v -8.924 12.0571 6.015
v -11.1713 15.3488 6.015
v -11.1713 12.0571 6.015
v -8.3005 4.2269 6.015
v -8.3005 7.5185 6.015
v -6.0533 4.2269 6.015
v -6.0533 7.5185 6.015
v -6.0533 15.3488 6.015
v -6.0533 12.0571 6.015
v -8.3005 15.3488 6.015
v -8.3005 12.0571 6.015
v -5.4298 4.2269 6.015
v -5.4298 7.5185 6.015
v -3.1825 4.2269 6.015
v -3.1825 7.5185 6.015
v -3.1825 15.3488 6.015
v -3.1825 12.0571 6.015
v -5.4298 15.3488 6.015
v -5.4298 12.0571 6.015
v 0 0 3.609
v -2.8708 0 3.609
v -2.8708 0 -3.609
v 0 0 -3.609
v 0 19.5756 -3.609
v -2.8708 19.5756 -3.609
v -2.8708 19.5756 3.609
v 0 19.5756 3.609
v 11.2736 11.4336 3.9207
v 11.2736 11.4336 5.7032
v 11.2736 8.142 5.7032
v 11.2736 8.142 3.9207
v 11.2736 11.4336 1.5147
v 11.2736 11.4336 3.2972
v 11.2736 8.142 3.2972
v 11.2736 8.142 1.5147
v 11.2736 8.142 -3.9207
v 11.2736 8.142 -5.7032
v 11.2736 11.4336 -5.7032
v 11.2736 11.4336 -3.9207
v 11.2736 8.142 -1.5147
v 11.2736 8.142 -3.2972
v 11.2736 11.4336 -3.2972
v 11.2736 11.4336 -1.5147
v -11.2453 11.4336 -3.9207
v -11.2453 11.4336 -5.7032
v -11.2453 8.142 -5.7032
v -11.2453 8.142 -3.9207
v -11.2453 11.4336 -1.5147
v -11.2453 11.4336 -3.2972
v -11.2453 8.142 -3.2972
v -11.2453 8.142 -1.5147
v -11.2453 8.142 3.9207
v -11.2453 8.142 5.7032
v -11.2453 11.4336 5.7032
v -11.2453 11.4336 3.9207
v -11.2453 8.142 1.5147
v -11.2453 8.142 3.2972
v -11.2453 11.4336 3.2972
v -11.2453 11.4336 1.5147
v 11.483 0 3.609
v 8.6123 0 3.609
v 8.6123 0 -3.609
v 11.483 0 -3.609
v 5.7415 0 3.609
v 5.7415 0 -3.609
v 2.8708 0 3.609
v 2.8708 0 -3.609
v -11.483 0 -3.609
v -8.6123 0 -3.609
v -8.6123 0 3.609
v -11.483 0 3.609
v -5.7415 0 -3.609
v -5.7415 0 3.609
v 11.483 19.5756 -3.609
v 8.6123 19.5756 -3.609
v 8.6123 19.5756 3.609
v 11.483 19.5756 3.609
v 5.7415 19.5756 -3.609
v 5.7415 19.5756 3.609
v 2.8708 19.5756 -3.609
v 2.8708 19.5756 3.609
v -11.483 19.5756 3.609
v -8.6123 19.5756 3.609
v -8.6123 19.5756 -3.609
v -11.483 19.5756 -3.609
v -5.7415 19.5756 3.609
v -5.7415 19.5756 -3.609
v 11.2736 19.2639 3.9207
v 11.2736 19.2639 5.7032
v 11.2736 15.9722 5.7032
v 11.2736 15.9722 3.9207
v 11.2736 19.2639 1.5147
v 11.2736 19.2639 3.2972
v 11.2736 15.9722 3.2972
v 11.2736 15.9722 1.5147
v 11.2736 15.9722 -3.9207
v 11.2736 15.9722 -5.7032
v 11.2736 19.2639 -5.7032
v 11.2736 19.2639 -3.9207
v 11.2736 15.9722 -1.5147
v 11.2736 15.9722 -3.2972
v 11.2736 19.2639 -3.2972
v 11.2736 19.2639 -1.5147
v 11.2736 15.3488 3.9207
v 11.2736 15.3488 5.7032
v 11.2736 12.0571 5.7032
v 11.2736 12.0571 3.9207
v 11.2736 15.3488 1.5147
v 11.2736 15.3488 3.2972
v 11.2736 12.0571 3.2972
v 11.2736 12.0571 1.5147
v 11.2736 12.0571 -3.9207
v 11.2736 12.0571 -5.7032
v 11.2736 15.3488 -5.7032
v 11.2736 15.3488 -3.9207
v 11.2736 12.0571 -1.5147
v 11.2736 12.0571 -3.2972
v 11.2736 15.3488 -3.2972
v 11.2736 15.3488 -1.5147
v 11.2736 0.3117 -3.9207
v 11.2736 0.3117 -5.7032
v 11.2736 3.6034 -5.7032
v 11.2736 3.6034 -3.9207
v 11.2736 0.3117 -1.5147
v 11.2736 0.3117 -3.2972
v 11.2736 3.6034 -3.2972
v 11.2736 3.6034 -1.5147
v 11.2736 3.6034 3.9207
v 11.2736 3.6034 5.7032
v 11.2736 0.3117 5.7032
v 11.2736 0.3117 3.9207
v 11.2736 3.6034 1.5147
v 11.2736 3.6034 3.2972
v 11.2736 0.3117 3.2972
v 11.2736 0.3117 1.5147
v 11.2736 4.2269 -3.9207
v 11.2736 4.2269 -5.7032
v 11.2736 7.5185 -5.7032
v 11.2736 7.5185 -3.9207
v 11.2736 4.2269 -1.5147
v 11.2736 4.2269 -3.2972
v 11.2736 7.5185 -3.2972
v 11.2736 7.5185 -1.5147
v 11.2736 7.5185 3.9207
v 11.2736 7.5185 5.7032
v 11.2736 4.2269 5.7032
v 11.2736 4.2269 3.9207
v 11.2736 7.5185 1.5147
v 11.2736 7.5185 3.2972
v 11.2736 4.2269 3.2972
v 11.2736 4.2269 1.5147
v -11.2453 19.2639 -3.9207
v -11.2453 19.2639 -5.7032
v -11.2453 15.9722 -5.7032
v -11.2453 15.9722 -3.9207
v -11.2453 19.2639 -1.5147
v -11.2453 19.2639 -3.2972
v -11.2453 15.9722 -3.2972
v -11.2453 15.9722 -1.5147
v -11.2453 15.9722 3.9207
v -11.2453 15.9722 5.7032
v -11.2453 19.2639 5.7032
v -11.2453 19.2639 3.9207
v -11.2453 15.9722 1.5147
v -11.2453 15.9722 3.2972
v -11.2453 19.2639 3.2972
v -11.2453 19.2639 1.5147
v -11.2453 15.3488 -3.9207
v -11.2453 15.3488 -5.7032
v -11.2453 12.0571 -5.7032
v -11.2453 12.0571 -3.9207
v -11.2453 15.3488 -1.5147
v -11.2453 15.3488 -3.2972
v -11.2453 12.0571 -3.2972
v -11.2453 12.0571 -1.5147
v -11.2453 12.0571 3.9207
v -11.2453 12.0571 5.7032
v -11.2453 15.3488 5.7032
v -11.2453 15.3488 3.9207
v -11.2453 12.0571 1.5147
v -11.2453 12.0571 3.2972
v -11.2453 15.3488 3.2972
v -11.2453 15.3488 1.5147
v -11.2453 0.3117 3.9207
v -11.2453 0.3117 5.7032
v -11.2453 3.6034 5.7032
v -11.2453 3.6034 3.9207
v -11.2453 0.3117 1.5147
v -11.2453 0.3117 3.2972
v -11.2453 3.6034 3.2972
v -11.2453 3.6034 1.5147
v -11.2453 3.6034 -3.9207
v -11.2453 3.6034 -5.7032
v -11.2453 0.3117 -5.7032
v -11.2453 0.3117 -3.9207
v -11.2453 3.6034 -1.5147
v -11.2453 3.6034 -3.2972
v -11.2453 0.3117 -3.2972
v -11.2453 0.3117 -1.5147
v -11.2453 4.2269 3.9207
v -11.2453 4.2269 5.7032
v -11.2453 7.5185 5.7032
v -11.2453 7.5185 3.9207
v -11.2453 4.2269 1.5147
v -11.2453 4.2269 3.2972
v -11.2453 7.5185 3.2972
v -11.2453 7.5185 1.5147
v -11.2453 7.5185 -3.9207
v -11.2453 7.5185 -5.7032
v -11.2453 4.2269 -5.7032
v -11.2453 4.2269 -3.9207
v -11.2453 7.5185 -1.5147
v -11.2453 7.5185 -3.2972
v -11.2453 4.2269 -3.2972
v -11.2453 4.2269 -1.5147
v 11.483 11.7454 -1.203
v 11.483 11.7454 1.203
v 11.4619 11.4336 0.8913
v 11.4619 11.4336 -0.8913
v 11.483 7.8302 1.203
v 11.4619 8.142 0.8913
v 11.483 7.8302 -1.203
v 11.4619 8.142 -0.8913
v -11.483 11.7454 1.203
v -11.483 11.7454 -1.203
v -11.5041 11.4336 -0.8913
v -11.5041 11.4336 0.8913
v -11.483 7.8302 -1.203
v -11.5041 8.142 -0.8913
v -11.483 7.8302 1.203
v -11.5041 8.142 0.8913
v 11.4619 19.2639 0.8913
v 11.4619 19.2639 -0.8913
v 11.483 15.6605 1.203
v 11.4619 15.9722 0.8913
v 11.483 15.6605 -1.203
v 11.4619 15.9722 -0.8913
v 11.4619 15.3488 0.8913
v 11.4619 15.3488 -0.8913
v 11.4619 12.0571 0.8913
v 11.4619 12.0571 -0.8913
v 11.4619 0.3117 -0.8913
v 11.4619 0.3117 0.8913
v 11.483 3.9151 -1.203
v 11.4619 3.6034 -0.8913
v 11.483 3.9151 1.203
v 11.4619 3.6034 0.8913
v 11.4619 4.2269 -0.8913
v 11.4619 4.2269 0.8913
v 11.4619 7.5185 -0.8913
v 11.4619 7.5185 0.8913
v -11.5041 19.2639 -0.8913
v -11.5041 19.2639 0.8913
v -11.483 15.6605 -1.203
v -11.5041 15.9722 -0.8913
v -11.483 15.6605 1.203
v -11.5041 15.9722 0.8913
v -11.5041 15.3488 -0.8913
v -11.5041 15.3488 0.8913
v -11.5041 12.0571 -0.8913
v -11.5041 12.0571 0.8913
v -11.5041 0.3117 0.8913
v -11.5041 0.3117 -0.8913
v -11.483 3.9151 1.203
v -11.5041 3.6034 0.8913
v -11.483 3.9151 -1.203
v -11.5041 3.6034 -0.8913
v -11.5041 4.2269 0.8913
v -11.5041 4.2269 -0.8913
v -11.5041 7.5185 0.8913
v -11.5041 7.5185 -0.8913
v 11.483 11.7454 3.609
v 11.4619 11.4336 5.7032
v 11.4619 11.4336 3.9207
v 11.4619 8.142 5.7032
v 11.483 7.8302 3.609
v 11.4619 8.142 3.9207
v 11.4619 11.4336 3.2972
v 11.4619 11.4336 1.5147
v 11.4619 8.142 3.2972
v 11.4619 8.142 1.5147
v 11.483 7.8302 -3.609
v 11.4619 8.142 -5.7032
v 11.4619 8.142 -3.9207
v 11.4619 11.4336 -5.7032
v 11.483 11.7454 -3.609
v 11.4619 11.4336 -3.9207
v 11.4619 8.142 -3.2972
v 11.4619 8.142 -1.5147
v 11.4619 11.4336 -3.2972
v 11.4619 11.4336 -1.5147
v -11.483 11.7454 -3.609
v -11.5041 11.4336 -5.7032
v -11.5041 11.4336 -3.9207
v -11.5041 8.142 -5.7032
v -11.483 7.8302 -3.609
v -11.5041 8.142 -3.9207
v -11.5041 11.4336 -3.2972
v -11.5041 11.4336 -1.5147
v -11.5041 8.142 -3.2972
v -11.5041 8.142 -1.5147
v -11.483 7.8302 3.609
v -11.5041 8.142 5.7032
v -11.5041 8.142 3.9207
v -11.5041 11.4336 5.7032
v -11.483 11.7454 3.609
v -11.5041 11.4336 3.9207
v -11.5041 8.142 3.2972
v -11.5041 8.142 1.5147
v -11.5041 11.4336 3.2972
v -11.5041 11.4336 1.5147
v 11.4619 19.2639 5.7032
v 11.4619 19.2639 3.9207
v 11.4619 15.9722 5.7032
v 11.483 15.6605 3.609
v 11.4619 15.9722 3.9207
v 11.4619 19.2639 3.2972
v 11.4619 19.2639 1.5147
v 11.4619 15.9722 3.2972
v 11.4619 15.9722 1.5147
v 11.483 15.6605 -3.609
v 11.4619 15.9722 -5.7032
v 11.4619 15.9722 -3.9207
v 11.4619 19.2639 -5.7032
v 11.4619 19.2639 -3.9207
v 11.4619 15.9722 -3.2972
v 11.4619 15.9722 -1.5147
v 11.4619 19.2639 -3.2972
v 11.4619 19.2639 -1.5147
v 11.4619 15.3488 5.7032
v 11.4619 15.3488 3.9207
v 11.4619 12.0571 5.7032
v 11.4619 12.0571 3.9207
v 11.4619 15.3488 3.2972
v 11.4619 15.3488 1.5147
v 11.4619 12.0571 3.2972
v 11.4619 12.0571 1.5147
v 11.4619 12.0571 -5.7032
v 11.4619 12.0571 -3.9207
v 11.4619 15.3488 -5.7032
v 11.4619 15.3488 -3.9207
v 11.4619 12.0571 -3.2972
v 11.4619 12.0571 -1.5147
v 11.4619 15.3488 -3.2972
v 11.4619 15.3488 -1.5147
v 11.4619 0.3117 -5.7032
v 11.4619 0.3117 -3.9207
v 11.4619 3.6034 -5.7032
v 11.483 3.9151 -3.609
v 11.4619 3.6034 -3.9207
v 11.4619 0.3117 -3.2972
v 11.4619 0.3117 -1.5147
v 11.4619 3.6034 -3.2972
v 11.4619 3.6034 -1.5147
v 11.483 3.9151 3.609
v 11.4619 3.6034 5.7032
v 11.4619 3.6034 3.9207
v 11.4619 0.3117 5.7032
v 11.4619 0.3117 3.9207
v 11.4619 3.6034 3.2972
v 11.4619 3.6034 1.5147
v 11.4619 0.3117 3.2972
v 11.4619 0.3117 1.5147
v 11.4619 4.2269 -5.7032
v 11.4619 4.2269 -3.9207
v 11.4619 7.5185 -5.7032
v 11.4619 7.5185 -3.9207
v 11.4619 4.2269 -3.2972
v 11.4619 4.2269 -1.5147
v 11.4619 7.5185 -3.2972
v 11.4619 7.5185 -1.5147
v 11.4619 7.5185 5.7032
v 11.4619 7.5185 3.9207
v 11.4619 4.2269 5.7032
v 11.4619 4.2269 3.9207
v 11.4619 7.5185 3.2972
v 11.4619 7.5185 1.5147
v 11.4619 4.2269 3.2972
v 11.4619 4.2269 1.5147
v -11.5041 19.2639 -5.7032
v -11.5041 19.2639 -3.9207
v -11.5041 15.9722 -5.7032
v -11.483 15.6605 -3.609
v -11.5041 15.9722 -3.9207
v -11.5041 19.2639 -3.2972
v -11.5041 19.2639 -1.5147
v -11.5041 15.9722 -3.2972
v -11.5041 15.9722 -1.5147
v -11.483 15.6605 3.609
v -11.5041 15.9722 5.7032
v -11.5041 15.9722 3.9207
v -11.5041 19.2639 5.7032
v -11.5041 19.2639 3.9207
v -11.5041 15.9722 3.2972
v -11.5041 15.9722 1.5147
v -11.5041 19.2639 3.2972
v -11.5041 19.2639 1.5147
v -11.5041 15.3488 -5.7032
v -11.5041 15.3488 -3.9207
v -11.5041 12.0571 -5.7032
v -11.5041 12.0571 -3.9207
v -11.5041 15.3488 -3.2972
v -11.5041 15.3488 -1.5147
v -11.5041 12.0571 -3.2972
v -11.5041 12.0571 -1.5147
v -11.5041 12.0571 5.7032
v -11.5041 12.0571 3.9207
v -11.5041 15.3488 5.7032
v -11.5041 15.3488 3.9207
v -11.5041 12.0571 3.2972
v -11.5041 12.0571 1.5147
v -11.5041 15.3488 3.2972
v -11.5041 15.3488 1.5147
v -11.5041 0.3117 5.7032
v -11.5041 0.3117 3.9207
v -11.5041 3.6034 5.7032
v -11.483 3.9151 3.609
v -11.5041 3.6034 3.9207
v -11.5041 0.3117 3.2972
v -11.5041 0.3117 1.5147
v -11.5041 3.6034 3.2972
v -11.5041 3.6034 1.5147
v -11.483 3.9151 -3.609
v -11.5041 3.6034 -5.7032
v -11.5041 3.6034 -3.9207
v -11.5041 0.3117 -5.7032
v -11.5041 0.3117 -3.9207
v -11.5041 3.6034 -3.2972
v -11.5041 3.6034 -1.5147
v -11.5041 0.3117 -3.2972
v -11.5041 0.3117 -1.5147
v -11.5041 4.2269 5.7032
v -11.5041 4.2269 3.9207
v -11.5041 7.5185 5.7032
v -11.5041 7.5185 3.9207
v -11.5041 4.2269 3.2972
v -11.5041 4.2269 1.5147
v -11.5041 7.5185 3.2972
v -11.5041 7.5185 1.5147
v -11.5041 7.5185 -5.7032
v -11.5041 7.5185 -3.9207
v -11.5041 4.2269 -5.7032
v -11.5041 4.2269 -3.9207
v -11.5041 7.5185 -3.2972
v -11.5041 7.5185 -1.5147
v -11.5041 4.2269 -3.2972
v -11.5041 4.2269 -1.5147
#end vertices

#begin 880 textures vertices 
vt 0.1987775 0.8892027 0
vt 0.1987775 0.8483719 0
vt 0.2474961 0.8483719 0
vt 0.2474961 0.8892027 0
vt 0.7327404 0.2732934 0
vt 0.7327404 0.3141242 0
vt 0.6840217 0.3141242 0
vt 0.6840217 0.2732934 0
vt 0.2535215 0.1869023 0
vt 0.2493708 0.2398536 0
vt 0.2166562 0.2373489 0
vt 0.2208521 0.1843697 0
vt 0.8659974 0.7495695 0
vt 0.8959729 0.7497543 0
vt 0.8957546 0.8062449 0
vt 0.8657675 0.8060422 0
vt 0.3134686 0.5582237 0
vt 0.3134686 0.6246662 0
vt 0.2647499 0.6246662 0
vt 0.2647499 0.5582237 0
vt 0.6225388 0.5773214 0
vt 0.6524264 0.5777247 0
vt 0.6520113 0.6342178 0
vt 0.6221422 0.6338974 0
vt 0.003906259 0.8892027 0
vt 0.003906259 0.8483719 0
vt 0.05262322 0.8483719 0
vt 0.05262322 0.8892027 0
vt 0.1013419 0.8483719 0
vt 0.1013419 0.8892027 0
vt 0.1500588 0.8483719 0
vt 0.1500588 0.8892027 0
vt 0.3936487 0.8483719 0
vt 0.3936487 0.8892027 0
vt 0.3449317 0.8892027 0
vt 0.3449317 0.8483719 0
vt 0.2962131 0.8892027 0
vt 0.2962131 0.8483719 0
vt 0.9276116 0.2732934 0
vt 0.9276116 0.3141242 0
vt 0.8788946 0.3141242 0
vt 0.8788946 0.2732934 0
vt 0.830176 0.3141242 0
vt 0.830176 0.2732934 0
vt 0.781459 0.3141242 0
vt 0.781459 0.2732934 0
vt 0.5378692 0.3141242 0
vt 0.5378692 0.2732934 0
vt 0.5865861 0.2732934 0
vt 0.5865861 0.3141242 0
vt 0.6353048 0.2732934 0
vt 0.6353048 0.3141242 0
vt 0.5132083 0.1923201 0
vt 0.5090779 0.2439216 0
vt 0.4748873 0.24107 0
vt 0.4789 0.1889413 0
vt 0.4463267 0.1902671 0
vt 0.4422173 0.242546 0
vt 0.4090936 0.2398843 0
vt 0.4131433 0.1873716 0
vt 0.3814961 0.188895 0
vt 0.3774266 0.2415287 0
vt 0.344679 0.2389281 0
vt 0.3487226 0.1861947 0
vt 0.3174047 0.1878227 0
vt 0.3133348 0.2406285 0
vt 0.2806657 0.2380366 0
vt 0.2847328 0.1852108 0
vt 0.01975772 0.2365801 0
vt 0.02367702 0.1815246 0
vt 0.05821188 0.1846503 0
vt 0.05424676 0.2386957 0
vt 0.08715523 0.2367342 0
vt 0.09126043 0.1832665 0
vt 0.1247334 0.1859377 0
vt 0.120592 0.2391834 0
vt 0.1523109 0.2373724 0
vt 0.156549 0.1840608 0
vt 0.1894834 0.1862094 0
vt 0.1852159 0.2394085 0
vt 0.5083398 0.5582237 0
vt 0.5083398 0.6246662 0
vt 0.4596228 0.6246662 0
vt 0.4596228 0.5582237 0
vt 0.4109042 0.6246662 0
vt 0.4109042 0.5582237 0
vt 0.3621872 0.6246662 0
vt 0.3621872 0.5582237 0
vt 0.1185974 0.6246662 0
vt 0.1185974 0.5582237 0
vt 0.1673143 0.5582237 0
vt 0.1673143 0.6246662 0
vt 0.216033 0.5582237 0
vt 0.216033 0.6246662 0
vt 0.2661872 0.3418421 0
vt 0.2691364 0.4161507 0
vt 0.2064489 0.4159274 0
vt 0.2030163 0.3415475 0
vt 0.2517109 0.2730247 0
vt 0.2493632 0.3261375 0
vt 0.2169239 0.323876 0
vt 0.2189841 0.2706212 0
vt 0.2082408 0.08221669 0
vt 0.2106629 0.007815699 0
vt 0.274339 0.008712142 0
vt 0.2721056 0.08290922 0
vt 0.2195361 0.1506098 0
vt 0.2246533 0.09771 0
vt 0.2571724 0.1003652 0
vt 0.2521209 0.1533045 0
vt 0.8662694 0.6078074 0
vt 0.8961235 0.6079661 0
vt 0.896024 0.6644028 0
vt 0.866079 0.6642496 0
vt 0.8661279 0.6786811 0
vt 0.8960851 0.6788433 0
vt 0.895925 0.7353041 0
vt 0.8659566 0.7351281 0
vt 0.8951557 0.948134 0
vt 0.864867 0.9479237 0
vt 0.8654068 0.891428 0
vt 0.8954888 0.8916633 0
vt 0.8954807 0.877205 0
vt 0.8654247 0.876988 0
vt 0.8657844 0.8204871 0
vt 0.8957826 0.8207019 0
vt 0.3134686 0.6911071 0
vt 0.3134686 0.7575479 0
vt 0.2647499 0.7575479 0
vt 0.2647499 0.6911071 0
vt 0.2647499 0.4917828 0
vt 0.2647499 0.4253419 0
vt 0.3134686 0.4253419 0
vt 0.3134686 0.4917828 0
vt 0.6246284 0.4323761 0
vt 0.6545924 0.4329032 0
vt 0.6534335 0.4894524 0
vt 0.6235197 0.4889465 0
vt 0.6234187 0.5048437 0
vt 0.6533222 0.5053332 0
vt 0.6524408 0.561846 0
vt 0.6225413 0.5614161 0
vt 0.6522269 0.779036 0
vt 0.6225865 0.7788452 0
vt 0.6224177 0.7222946 0
vt 0.6522014 0.7224933 0
vt 0.6520337 0.7066048 0
vt 0.6222244 0.7063798 0
vt 0.6222588 0.6498092 0
vt 0.6521102 0.6501 0
vt 0.5179977 0.3422779 0
vt 0.5134006 0.4143377 0
vt 0.4556848 0.4161525 0
vt 0.455817 0.3428273 0
vt 0.5100396 0.2757619 0
vt 0.502646 0.3272563 0
vt 0.4705179 0.3254464 0
vt 0.4759966 0.2732628 0
vt 0.4627449 0.08797585 0
vt 0.4627414 0.01417632 0
vt 0.5205668 0.01586289 0
vt 0.5250532 0.09067055 0
vt 0.4768402 0.1564063 0
vt 0.4793461 0.1041058 0
vt 0.5114954 0.1076903 0
vt 0.5107827 0.1601053 0
vt 0.3944748 0.4166337 0
vt 0.3927589 0.3427795 0
vt 0.443917 0.2751982 0
vt 0.4395231 0.3275205 0
vt 0.4071368 0.3253352 0
vt 0.4108276 0.2727241 0
vt 0.3994263 0.08586991 0
vt 0.401192 0.01203965 0
vt 0.4114494 0.1543977 0
vt 0.4157307 0.1018492 0
vt 0.4481395 0.1050523 0
vt 0.4444553 0.1574738 0
vt 0.3319651 0.4164845 0
vt 0.3294671 0.3423656 0
vt 0.3794501 0.2745222 0
vt 0.3761457 0.3272428 0
vt 0.3436845 0.3248839 0
vt 0.3466905 0.27204 0
vt 0.3358101 0.08423451 0
vt 0.3380687 0.01018113 0
vt 0.3471648 0.1529707 0
vt 0.3520101 0.1001872 0
vt 0.3845089 0.1031309 0
vt 0.3798449 0.1557849 0
vt 0.3155275 0.2737781 0
vt 0.3127242 0.3267044 0
vt 0.2802642 0.3243021 0
vt 0.2828445 0.2712806 0
vt 0.2832681 0.1518031 0
vt 0.2882891 0.09884926 0
vt 0.3208205 0.1016372 0
vt 0.3158623 0.1544928 0
vt 0.01983188 0.07729098 0
vt 0.02978222 0.00390625 0
vt 0.08718598 0.005958375 0
vt 0.08181331 0.08046379 0
vt 0.02382868 0.1476295 0
vt 0.03407264 0.0942492 0
vt 0.06615766 0.09771386 0
vt 0.05788058 0.1511248 0
vt 0.07660222 0.3423015 0
vt 0.08374297 0.4171723 0
vt 0.02661349 0.4209016 0
vt 0.01457777 0.3448833 0
vt 0.05773482 0.272588 0
vt 0.05887461 0.3266897 0
vt 0.02652941 0.3258104 0
vt 0.02340703 0.2707679 0
vt 0.1479678 0.007104036 0
vt 0.1447725 0.08170078 0
vt 0.09031981 0.1497726 0
vt 0.09726121 0.09657867 0
vt 0.1295987 0.09926744 0
vt 0.1235518 0.1525204 0
vt 0.1397302 0.3418201 0
vt 0.1442692 0.4161525 0
vt 0.1232357 0.2728909 0
vt 0.1223557 0.3262296 0
vt 0.08981702 0.324302 0
vt 0.08988379 0.270575 0
vt 0.1552232 0.1506714 0
vt 0.1607084 0.09747512 0
vt 0.1931685 0.09983042 0
vt 0.1880062 0.1529377 0
vt 0.1877503 0.2725577 0
vt 0.1860897 0.3259521 0
vt 0.1536023 0.3240954 0
vt 0.1549422 0.2706422 0
vt 0.5083398 0.6911071 0
vt 0.5083398 0.7575479 0
vt 0.4596228 0.7575479 0
vt 0.4596228 0.6911071 0
vt 0.4596228 0.4917828 0
vt 0.4596228 0.4253419 0
vt 0.5083398 0.4253419 0
vt 0.5083398 0.4917828 0
vt 0.4109042 0.7575479 0
vt 0.4109042 0.6911071 0
vt 0.4109042 0.4917828 0
vt 0.4109042 0.4253419 0
vt 0.3621872 0.7575479 0
vt 0.3621872 0.6911071 0
vt 0.3621872 0.4917828 0
vt 0.3621872 0.4253419 0
vt 0.1185974 0.4917828 0
vt 0.1185974 0.4253419 0
vt 0.1673143 0.4253419 0
vt 0.1673143 0.4917828 0
vt 0.1673143 0.6911071 0
vt 0.1673143 0.7575479 0
vt 0.1185974 0.7575479 0
vt 0.1185974 0.6911071 0
vt 0.216033 0.4253419 0
vt 0.216033 0.4917828 0
vt 0.216033 0.6911071 0
vt 0.216033 0.7575479 0
vt 0.2682909 0.1693179 0
vt 0.2660064 0.2555264 0
vt 0.2604661 0.2491597 0
vt 0.2624546 0.1755875 0
vt 0.2019327 0.2549409 0
vt 0.2077792 0.2486488 0
vt 0.2044648 0.1684296 0
vt 0.2099496 0.1748494 0
vt 0.5294191 0.175817 0
vt 0.5269376 0.2590859 0
vt 0.5209531 0.2528977 0
vt 0.5231148 0.1816206 0
vt 0.4591654 0.2580341 0
vt 0.4653875 0.2520041 0
vt 0.461564 0.1732174 0
vt 0.4674629 0.1796156 0
vt 0.4535056 0.2517401 0
vt 0.4555782 0.1792516 0
vt 0.394082 0.257168 0
vt 0.4000233 0.2510241 0
vt 0.3963772 0.1715933 0
vt 0.4020169 0.1779912 0
vt 0.3885288 0.2508158 0
vt 0.3905149 0.177737 0
vt 0.3299343 0.2563439 0
vt 0.3357706 0.2501476 0
vt 0.3321826 0.1703725 0
vt 0.3377233 0.1767781 0
vt 0.3243999 0.249959 0
vt 0.3263534 0.1765803 0
vt 0.2718155 0.2492976 0
vt 0.2738004 0.1757328 0
vt 0.00390625 0.2549851 0
vt 0.006074253 0.164705 0
vt 0.01206088 0.1716186 0
vt 0.01019102 0.2482949 0
vt 0.07423234 0.1672574 0
vt 0.06791957 0.1734724 0
vt 0.07199354 0.254565 0
vt 0.06598445 0.2481073 0
vt 0.07995909 0.1737807 0
vt 0.07800361 0.2481863 0
vt 0.1399372 0.1683676 0
vt 0.1339151 0.1746543 0
vt 0.1374567 0.2552733 0
vt 0.131765 0.2487949 0
vt 0.1454819 0.1747176 0
vt 0.1433747 0.2488325 0
vt 0.1985216 0.1748153 0
vt 0.1963777 0.2486429 0
vt 0.2605525 0.3354369 0
vt 0.2603518 0.2617509 0
vt 0.2085273 0.3352643 0
vt 0.2076934 0.2613656 0
vt 0.2136504 0.08854789 0
vt 0.2104596 0.1620287 0
vt 0.2662152 0.08912915 0
vt 0.2628824 0.1628784 0
vt 0.5131696 0.3361977 0
vt 0.5201513 0.2649633 0
vt 0.4616728 0.3366602 0
vt 0.4648195 0.2642777 0
vt 0.4683271 0.09446481 0
vt 0.4675519 0.1672527 0
vt 0.5199183 0.09668016 0
vt 0.5229191 0.1694023 0
vt 0.4504743 0.3365838 0
vt 0.4531034 0.2640981 0
vt 0.3984691 0.3365872 0
vt 0.3997111 0.2635147 0
vt 0.4048755 0.09231187 0
vt 0.4023198 0.1654749 0
vt 0.4570781 0.09403522 0
vt 0.4557836 0.1668504 0
vt 0.3872372 0.3364354 0
vt 0.3882884 0.2633156 0
vt 0.3351044 0.3361596 0
vt 0.3355704 0.2627392 0
vt 0.3412105 0.09066986 0
vt 0.3381014 0.1641693 0
vt 0.3935842 0.09201452 0
vt 0.390859 0.1652118 0
vt 0.3238732 0.3359732 0
vt 0.3242359 0.2625302 0
vt 0.2717654 0.3356118 0
vt 0.271682 0.26195 0
vt 0.2774925 0.08934815 0
vt 0.2742096 0.1630695 0
vt 0.3299137 0.09044062 0
vt 0.326748 0.1639663 0
vt 0.02429065 0.08406051 0
vt 0.01320792 0.1585466 0
vt 0.07563088 0.08660065 0
vt 0.06879681 0.1606958 0
vt 0.07058576 0.3359409 0
vt 0.0663607 0.2610223 0
vt 0.01923993 0.3380145 0
vt 0.01082511 0.2615786 0
vt 0.08683147 0.08695083 0
vt 0.08065312 0.1609879 0
vt 0.138778 0.08798151 0
vt 0.1344835 0.1619355 0
vt 0.1338662 0.3354239 0
vt 0.1318463 0.2615148 0
vt 0.08180286 0.3358785 0
vt 0.07819055 0.261122 0
vt 0.1500259 0.08807445 0
vt 0.1460241 0.1620146 0
vt 0.202295 0.08852086 0
vt 0.1990202 0.1621294 0
vt 0.197322 0.3351772 0
vt 0.1963086 0.2612468 0
vt 0.145179 0.3355348 0
vt 0.1432977 0.2618289 0
vt 0.1987775 0.8075411 0
vt 0.2474961 0.8075411 0
vt 0.2474961 0.9300335 0
vt 0.1987775 0.9300335 0
vt 0.7327404 0.354955 0
vt 0.6840217 0.354955 0
vt 0.6840217 0.2324626 0
vt 0.7327404 0.2324626 0
vt 0.9580315 0.7495706 0
vt 0.9880277 0.7495247 0
vt 0.9878494 0.8060066 0
vt 0.9578433 0.8060743 0
vt 0.9120086 0.7496586 0
vt 0.9419874 0.7497266 0
vt 0.9417942 0.8062302 0
vt 0.9117999 0.8061615 0
vt 0.8036907 0.8056759 0
vt 0.7737 0.8052364 0
vt 0.7739418 0.7489519 0
vt 0.8039418 0.7493076 0
vt 0.8497233 0.8060562 0
vt 0.8197416 0.805722 0
vt 0.8199834 0.749318 0
vt 0.8499629 0.7496062 0
vt 0.7184269 0.5782183 0
vt 0.7482717 0.578827 0
vt 0.7478149 0.6349642 0
vt 0.7179615 0.6344925 0
vt 0.6704992 0.5776882 0
vt 0.7003633 0.5781976 0
vt 0.6999159 0.6345404 0
vt 0.6700607 0.6341214 0
vt 0.5561477 0.6341427 0
vt 0.5262614 0.6341717 0
vt 0.5265772 0.5770596 0
vt 0.556452 0.5772684 0
vt 0.6040858 0.6340632 0
vt 0.574207 0.6338801 0
vt 0.574549 0.577115 0
vt 0.6044516 0.5774163 0
vt 0.003906259 0.8075411 0
vt 0.05262322 0.8075411 0
vt 0.05262322 0.9300335 0
vt 0.003906259 0.9300335 0
vt 0.1013419 0.8075411 0
vt 0.1013419 0.9300335 0
vt 0.1500588 0.8075411 0
vt 0.1500588 0.9300335 0
vt 0.3936487 0.9300335 0
vt 0.3449317 0.9300335 0
vt 0.3449317 0.8075411 0
vt 0.3936487 0.8075411 0
vt 0.2962131 0.9300335 0
vt 0.2962131 0.8075411 0
vt 0.9276116 0.354955 0
vt 0.8788946 0.354955 0
vt 0.8788946 0.2324626 0
vt 0.9276116 0.2324626 0
vt 0.830176 0.354955 0
vt 0.830176 0.2324626 0
vt 0.781459 0.354955 0
vt 0.781459 0.2324626 0
vt 0.5378692 0.2324626 0
vt 0.5865861 0.2324626 0
vt 0.5865861 0.354955 0
vt 0.5378692 0.354955 0
vt 0.6353048 0.2324626 0
vt 0.6353048 0.354955 0
vt 0.9579817 0.6077257 0
vt 0.9879368 0.6076753 0
vt 0.9880109 0.6641453 0
vt 0.9580245 0.6641877 0
vt 0.9120997 0.6078519 0
vt 0.9419758 0.6078954 0
vt 0.9419937 0.6643455 0
vt 0.9120404 0.6643015 0
vt 0.8040701 0.6640496 0
vt 0.7740828 0.6637467 0
vt 0.7744299 0.6073041 0
vt 0.8043932 0.607613 0
vt 0.8500609 0.6642944 0
vt 0.8201055 0.6640439 0
vt 0.8204046 0.6076035 0
vt 0.8502901 0.6078618 0
vt 0.9581114 0.6786301 0
vt 0.9881002 0.6785875 0
vt 0.9879644 0.7350776 0
vt 0.9579696 0.73512 0
vt 0.9121109 0.6787381 0
vt 0.942074 0.6787885 0
vt 0.9419304 0.7352731 0
vt 0.9119574 0.7352099 0
vt 0.803906 0.7348844 0
vt 0.7739159 0.7345451 0
vt 0.7741029 0.6781694 0
vt 0.8040978 0.6784807 0
vt 0.8499225 0.7351655 0
vt 0.8199511 0.7348895 0
vt 0.8201356 0.6784713 0
vt 0.8501016 0.6787309 0
vt 0.8022538 0.947282 0
vt 0.772152 0.9465798 0
vt 0.7731349 0.8902462 0
vt 0.8031592 0.8908763 0
vt 0.8486662 0.9478917 0
vt 0.8184119 0.947446 0
vt 0.8192443 0.8909916 0
vt 0.8493035 0.8914276 0
vt 0.9577718 0.8914507 0
vt 0.9878166 0.891392 0
vt 0.987796 0.947863 0
vt 0.9577127 0.9479122 0
vt 0.9115974 0.8915627 0
vt 0.9416748 0.8916257 0
vt 0.9415698 0.9480784 0
vt 0.9113472 0.9480481 0
vt 0.803245 0.8764513 0
vt 0.7732398 0.8758504 0
vt 0.7736884 0.8196258 0
vt 0.8036927 0.820092 0
vt 0.8493472 0.8769736 0
vt 0.8193147 0.8765632 0
vt 0.8197414 0.820149 0
vt 0.8497354 0.820502 0
vt 0.9579013 0.8205229 0
vt 0.9879152 0.8204564 0
vt 0.9877357 0.8769481 0
vt 0.9577043 0.8770197 0
vt 0.9118369 0.820611 0
vt 0.9418409 0.8206865 0
vt 0.9416218 0.877177 0
vt 0.911564 0.8771258 0
vt 0.7208111 0.4337861 0
vt 0.7507057 0.4346479 0
vt 0.7493554 0.4910408 0
vt 0.7194938 0.4902417 0
vt 0.6727255 0.4329603 0
vt 0.7027021 0.4336246 0
vt 0.7014205 0.4901179 0
vt 0.6715288 0.4894732 0
vt 0.557445 0.4884974 0
vt 0.5275745 0.4879305 0
vt 0.528696 0.431195 0
vt 0.5585424 0.4318341 0
vt 0.6054259 0.4889685 0
vt 0.5755192 0.4884993 0
vt 0.5766203 0.4318643 0
vt 0.6065182 0.4323736 0
vt 0.7193508 0.5060928 0
vt 0.7492007 0.5068693 0
vt 0.7483078 0.5630371 0
vt 0.7184493 0.5623965 0
vt 0.6714033 0.5053625 0
vt 0.7012813 0.5059884 0
vt 0.7003891 0.5623562 0
vt 0.670511 0.5618196 0
vt 0.5564521 0.5612858 0
vt 0.5265521 0.5609968 0
vt 0.527465 0.5039319 0
vt 0.5573235 0.5044595 0
vt 0.6044533 0.5615046 0
vt 0.5745342 0.5611666 0
vt 0.5754206 0.5044321 0
vt 0.6053195 0.50488 0
vt 0.5570751 0.779534 0
vt 0.5273113 0.7797785 0
vt 0.5268088 0.7230947 0
vt 0.5566334 0.7228856 0
vt 0.6046754 0.7791198 0
vt 0.5750248 0.7791289 0
vt 0.5746379 0.7225175 0
vt 0.6044265 0.7225329 0
vt 0.7180157 0.7225545 0
vt 0.7478448 0.7228911 0
vt 0.7476368 0.7793723 0
vt 0.7178355 0.7790506 0
vt 0.6701989 0.7223469 0
vt 0.699995 0.722662 0
vt 0.6998546 0.7791751 0
vt 0.6701551 0.7788626 0
vt 0.5563755 0.706931 0
vt 0.5265352 0.7071214 0
vt 0.5264435 0.6502024 0
vt 0.5563031 0.6501306 0
vt 0.6042114 0.7066172 0
vt 0.5743957 0.7065737 0
vt 0.5743519 0.6498415 0
vt 0.6042085 0.6499871 0
vt 0.7180449 0.6503261 0
vt 0.7478836 0.6507674 0
vt 0.7477305 0.7070417 0
vt 0.7178891 0.7066844 0
vt 0.6701569 0.6499961 0
vt 0.6999971 0.6503883 0
vt 0.6998635 0.7067919 0
vt 0.6700487 0.7064546 0
vt 0.8579625 0.7423741 0
vt 0.9039681 0.7424893 0
vt 0.898387 0.7480194 0
vt 0.86351 0.7479675 0
vt 0.9037962 0.8134414 0
vt 0.8982453 0.8078436 0
vt 0.8577586 0.8132829 0
vt 0.8633454 0.8077653 0
vt 0.6134738 0.5694041 0
vt 0.6614487 0.5697596 0
vt 0.6557345 0.5753288 0
vt 0.6191221 0.5751172 0
vt 0.6610698 0.6421002 0
vt 0.6554269 0.6364138 0
vt 0.6131569 0.6419276 0
vt 0.6188548 0.6363212 0
vt 0.8985251 0.6062274 0
vt 0.8637902 0.6062067 0
vt 0.9040681 0.6715797 0
vt 0.8985137 0.6659985 0
vt 0.8580909 0.6714967 0
vt 0.8636646 0.6659774 0
vt 0.8984964 0.6771078 0
vt 0.8636403 0.6770814 0
vt 0.8984153 0.7369012 0
vt 0.8635393 0.7368552 0
vt 0.862411 0.9496324 0
vt 0.8976694 0.9497266 0
vt 0.8573792 0.884221 0
vt 0.8629171 0.8898231 0
vt 0.9035325 0.8844041 0
vt 0.8979175 0.8899312 0
vt 0.8629926 0.8787059 0
vt 0.8979755 0.8788033 0
vt 0.8632979 0.8188825 0
vt 0.8982017 0.8189685 0
vt 0.6579359 0.4305263 0
vt 0.6212272 0.4301534 0
vt 0.6624112 0.4973905 0
vt 0.6568319 0.4916682 0
vt 0.6144098 0.4969059 0
vt 0.6201915 0.4913375 0
vt 0.6566486 0.5029483 0
vt 0.6200144 0.5026294 0
vt 0.6558449 0.5640552 0
vt 0.6192285 0.5638208 0
vt 0.6193468 0.7812943 0
vt 0.6556311 0.7812244 0
vt 0.6133096 0.7144418 0
vt 0.6189926 0.7201128 0
vt 0.6611165 0.7144641 0
vt 0.6554717 0.7200701 0
vt 0.6189588 0.7088182 0
vt 0.6554534 0.7087922 0
vt 0.6188335 0.6476182 0
vt 0.6553981 0.6476885 0
vt 0.9499818 0.7424306 0
vt 0.9904384 0.7477743 0
vt 0.9555363 0.747986 0
vt 0.9903505 0.8075812 0
vt 0.9498462 0.813392 0
vt 0.9554309 0.8078204 0
vt 0.9443988 0.7479828 0
vt 0.9095178 0.7480649 0
vt 0.9442897 0.8078176 0
vt 0.9093822 0.807896 0
vt 0.8117246 0.81292 0
vt 0.771267 0.8069367 0
vt 0.806175 0.8072915 0
vt 0.7714561 0.7473423 0
vt 0.8119478 0.7421055 0
vt 0.806363 0.7475906 0
vt 0.8173147 0.8074334 0
vt 0.85221 0.807665 0
vt 0.8174978 0.7477099 0
vt 0.8523803 0.7478808 0
vt 0.709388 0.5702826 0
vt 0.7515859 0.5764612 0
vt 0.7150221 0.5760007 0
vt 0.7512231 0.6371653 0
vt 0.7089663 0.6424302 0
vt 0.7146654 0.6368868 0
vt 0.7036741 0.5758165 0
vt 0.6670888 0.5754766 0
vt 0.7033267 0.6367425 0
vt 0.6667685 0.6365287 0
vt 0.5652326 0.6419803 0
vt 0.5229992 0.6366511 0
vt 0.5595766 0.6363157 0
vt 0.5231626 0.5748442 0
vt 0.5654676 0.5692011 0
vt 0.5597558 0.5748443 0
vt 0.5709282 0.6363263 0
vt 0.6075076 0.6362495 0
vt 0.5711258 0.574917 0
vt 0.6077582 0.575007 0
vt 0.9903409 0.6059252 0
vt 0.9554853 0.6061442 0
vt 0.9905123 0.6657239 0
vt 0.9500585 0.6714944 0
vt 0.9556174 0.6659335 0
vt 0.9443749 0.6061488 0
vt 0.9096137 0.606261 0
vt 0.944489 0.6659319 0
vt 0.9096309 0.6660387 0
vt 0.8120964 0.6712664 0
vt 0.7716561 0.6654631 0
vt 0.806555 0.6656579 0
vt 0.7719473 0.6056943 0
vt 0.8068137 0.6058917 0
vt 0.8176849 0.665764 0
vt 0.8525467 0.6658981 0
vt 0.8179268 0.6059956 0
vt 0.8526999 0.6061325 0
vt 0.9905117 0.676839 0
vt 0.9556164 0.6770459 0
vt 0.9904641 0.7366556 0
vt 0.9555593 0.736866 0
vt 0.9444836 0.677045 0
vt 0.9096202 0.6771465 0
vt 0.9444247 0.736861 0
vt 0.9095439 0.7369467 0
vt 0.7714883 0.7362566 0
vt 0.8063928 0.7364938 0
vt 0.7716148 0.6765623 0
vt 0.8065168 0.6767599 0
vt 0.8175292 0.7366077 0
vt 0.8524102 0.7367704 0
vt 0.8176491 0.6768656 0
vt 0.8525165 0.6770038 0
vt 0.7696922 0.9482568 0
vt 0.8047325 0.948916 0
vt 0.7706671 0.8886105 0
vt 0.8112584 0.8837365 0
vt 0.8056026 0.8891792 0
vt 0.8159451 0.949134 0
vt 0.8511667 0.9495041 0
vt 0.816766 0.8893705 0
vt 0.8517405 0.8897112 0
vt 0.949689 0.8843303 0
vt 0.9902258 0.8896409 0
vt 0.9552672 0.8898741 0
vt 0.9903022 0.9494418 0
vt 0.9552912 0.9496538 0
vt 0.9440945 0.8898825 0
vt 0.909098 0.8899736 0
vt 0.9440857 0.9496577 0
vt 0.9089082 0.949776 0
vt 0.7707978 0.8775357 0
vt 0.8057247 0.8780787 0
vt 0.7712089 0.8180074 0
vt 0.8061205 0.8183837 0
vt 0.8168772 0.8782652 0
vt 0.8518345 0.8785873 0
vt 0.8172595 0.8185352 0
vt 0.8521589 0.8187809 0
vt 0.9903227 0.8187013 0
vt 0.9554037 0.8189411 0
vt 0.9902377 0.8785227 0
vt 0.9552841 0.878761 0
vt 0.9442551 0.8189423 0
vt 0.9093448 0.8190176 0
vt 0.9441221 0.8787613 0
vt 0.9091379 0.878857 0
vt 0.7540519 0.4323029 0
vt 0.7174305 0.4315286 0
vt 0.7527324 0.493291 0
vt 0.7103691 0.498101 0
vt 0.7161592 0.4926016 0
vt 0.7060525 0.4312638 0
vt 0.6693284 0.4307243 0
vt 0.7048052 0.4923556 0
vt 0.6681973 0.4918527 0
vt 0.5664143 0.4964764 0
vt 0.5242549 0.4903218 0
vt 0.5608376 0.4907276 0
vt 0.5253108 0.428951 0
vt 0.5618691 0.4294535 0
vt 0.5721956 0.4908961 0
vt 0.608825 0.4911846 0
vt 0.5732253 0.4296399 0
vt 0.6098498 0.4299877 0
vt 0.7525294 0.5045195 0
vt 0.7159611 0.5038526 0
vt 0.7517006 0.5652601 0
vt 0.7151332 0.5647703 0
vt 0.7046083 0.5036176 0
vt 0.6680092 0.50313 0
vt 0.7037874 0.5645734 0
vt 0.6671977 0.56421 0
vt 0.5232588 0.5634344 0
vt 0.5598624 0.5634889 0
vt 0.5240736 0.5016852 0
vt 0.5606493 0.5020624 0
vt 0.5712259 0.5635844 0
vt 0.6078642 0.563705 0
vt 0.5720183 0.5022123 0
vt 0.608645 0.5024849 0
vt 0.524075 0.7822664 0
vt 0.5605144 0.7816744 0
vt 0.5233589 0.7209559 0
vt 0.5654938 0.7147116 0
vt 0.5598817 0.720412 0
vt 0.5717958 0.7815991 0
vt 0.6080918 0.781287 0
vt 0.5712012 0.7203549 0
vt 0.6076848 0.7200879 0
vt 0.7089417 0.7146682 0
vt 0.7511355 0.720483 0
vt 0.7146 0.7203574 0
vt 0.7510495 0.7815689 0
vt 0.7145574 0.7814708 0
vt 0.7032765 0.7202518 0
vt 0.6667814 0.7201526 0
vt 0.703258 0.7813748 0
vt 0.6668964 0.7812934 0
vt 0.523282 0.7096101 0
vt 0.559811 0.7090853 0
vt 0.5230025 0.6480418 0
vt 0.5595727 0.6476702 0
vt 0.5711387 0.709036 0
vt 0.6076379 0.70879 0
vt 0.5709194 0.6476621 0
vt 0.6074899 0.6475563 0
vt 0.7511825 0.6483781 0
vt 0.7146295 0.6481241 0
vt 0.7511489 0.709233 0
vt 0.714608 0.7090956 0
vt 0.70329 0.6479901 0
vt 0.6667376 0.6477969 0
vt 0.70328 0.708987 0
vt 0.6667744 0.7088753 0
vt 0.003906259 0.7667103 0
vt 0.9958935 0.9549887 0
vt 0.6840217 0.1916318 0
vt 0.613752 0.7869234 0
vt 0.5173113 0.6423802 0
vt 0.8788946 0.1916318 0
vt 0.7659013 0.7417394 0
vt 0.8567329 0.9551393 0
vt 0.9958022 0.8840703 0
vt 0.6612671 0.7868939 0
vt 0.7656733 0.8123925 0
vt 0.9032715 0.955319 0
vt 0.6637387 0.4249728 0
vt 0.830176 0.1916318 0
vt 0.9040702 0.6006977 0
vt 0.9496982 0.9552157 0
vt 0.3449317 0.9708643 0
vt 0.6156323 0.4244226 0
vt 0.2474961 0.7667103 0
vt 0.8582641 0.6006228 0
vt 0.5378692 0.1916318 0
vt 0.5197406 0.423178 0
vt 0.756862 0.6428389 0
vt 0.5184814 0.4958934 0
vt 0.7572973 0.5709671 0
vt 0.05262322 0.7667103 0
vt 0.7327404 0.1916318 0
vt 0.1987775 0.7667103 0
vt 0.8788946 0.3957858 0
vt 0.7327404 0.3957858 0
vt 0.9960263 0.7422059 0
vt 0.781459 0.3957858 0
vt 0.1500588 0.9708643 0
vt 0.1987775 0.9708643 0
vt 0.2962131 0.7667103 0
vt 0.9960938 0.6712724 0
vt 0.9958935 0.6003577 0
vt 0.9276116 0.1916318 0
vt 0.1013419 0.7667103 0
vt 0.5175109 0.5690984 0
vt 0.6353048 0.3957858 0
vt 0.781459 0.1916318 0
vt 0.2474961 0.9708643 0
vt 0.1500588 0.7667103 0
vt 0.5176333 0.715348 0
vt 0.5184814 0.7879866 0
vt 0.3936487 0.7667103 0
vt 0.3449317 0.7667103 0
vt 0.9276116 0.3957858 0
vt 0.7664113 0.6000836 0
vt 0.5865861 0.1916318 0
vt 0.6353048 0.1916318 0
vt 0.7582839 0.4990543 0
vt 0.7598595 0.426829 0
vt 0.5378692 0.3957858 0
vt 0.5662179 0.7872716 0
vt 0.5865861 0.3957858 0
vt 0.3936487 0.9708643 0
vt 0.7567008 0.7872536 0
vt 0.7568151 0.7149016 0
vt 0.2962131 0.9708643 0
vt 0.6840217 0.3957858 0
vt 0.766056 0.6709589 0
vt 0.7651803 0.8829538 0
vt 0.7640054 0.9536641 0
vt 0.003906259 0.9708643 0
vt 0.05262322 0.9708643 0
vt 0.1013419 0.9708643 0
vt 0.830176 0.3957858 0
vt 0.9959104 0.813128 0
vt 0.8102421 0.9545932 0
vt 0.7088934 0.7870632 0
vt 0.8124024 0.6003938 0
vt 0.9499157 0.6005976 0
vt 0.5676422 0.4239048 0
vt 0.7118701 0.4257446 0
#end 880 textures vertices 

#begin 49 normals 
vn 0 -1 -0
vn 0 1 -0
vn -0.5774 0.5774 0.5774
vn -0.5774 -0.5774 0.5774
vn 0.5774 -0.5774 0.5774
vn 0.5774 0.5774 0.5774
vn 0.5774 -0.5774 -0.5774
vn 0.5774 0.5774 -0.5774
vn 0 0 -1
vn -0.5774 -0.5774 -0.5774
vn -0.5774 0.5774 -0.5774
vn 0.7189 -0.6951 -0
vn -0.695 -0.719 -0
vn 0.7189 0.6951 -0
vn -0.695 0.719 -0
vn -0.695 -0 -0.719
vn -0.695 0 -0.719
vn 0.7189 0 -0.6951
vn 0 0 1
vn 0 0.7071 0.7071
vn 0 -0.7071 0.7071
vn 0 0.7071 -0.7071
vn 0 -0.7071 -0.7071
vn 0.7189 0 0.6951
vn 0.5903 0.5708 0.5708
vn 0.5903 -0.5708 0.5708
vn -0.695 0 0.719
vn -0.5642 -0.5838 0.5838
vn -0.5642 0.5838 0.5838
vn -0.5642 0.5838 -0.5838
vn -0.5642 -0.5838 -0.5838
vn 0.5903 -0.5708 -0.5708
vn 0.5903 0.5708 -0.5708
vn -0.3015 -0.3015 0.9045
vn -0.3015 0.3015 0.9045
vn 0.3015 -0.3015 0.9045
vn 0.3015 0.3015 0.9045
vn -0.695 -0 0.719
vn 1 0 -0
vn 0.887 -0.3265 -0.3265
vn 0.887 -0.3265 0.3265
vn 0.887 0.3265 -0.3265
vn 0.887 0.3265 0.3265
vn -1 0 -0
vn -0.9204 -0.2765 0.2765
vn -0.9204 -0.2765 -0.2765
vn -1 -0 -0
vn -0.9204 0.2765 0.2765
vn -0.9204 0.2765 -0.2765
#end 49 normals 

#begin 802 faces
o Box015
usemtl wire_152173046
g Box015
s 2
f 1/1/1 2/2/1 3/3/1 4/4/1 
s 4
f 5/5/2 6/6/2 7/7/2 8/8/2 
s 8
f 9/9/3 10/10/4 11/11/5 12/12/6 
s 16
f 13/13/5 14/14/7 15/15/8 16/16/6 
s 32
f 17/17/9 18/18/9 19/19/9 20/20/9 
s 64
f 21/21/10 22/22/4 23/23/3 24/24/11 
s 2
f 25/25/12 26/26/12 27/27/1 28/28/1 
f 28/28/1 27/27/1 29/29/1 30/30/1 
f 30/30/1 29/29/1 31/31/1 32/32/1 
f 32/32/1 31/31/1 2/2/1 1/1/1 
f 33/33/13 34/34/13 35/35/1 36/36/1 
f 36/36/1 35/35/1 37/37/1 38/38/1 
f 38/38/1 37/37/1 4/4/1 3/3/1 
s 4
f 39/39/14 40/40/14 41/41/2 42/42/2 
f 42/42/2 41/41/2 43/43/2 44/44/2 
f 44/44/2 43/43/2 45/45/2 46/46/2 
f 46/46/2 45/45/2 6/6/2 5/5/2 
f 47/47/15 48/48/15 49/49/2 50/50/2 
f 50/50/2 49/49/2 51/51/2 52/52/2 
f 52/52/2 51/51/2 8/8/2 7/7/2 
s 8
f 53/53/3 54/54/4 55/55/5 56/56/6 
f 57/57/3 58/58/4 59/59/5 60/60/6 
f 61/61/3 62/62/4 63/63/5 64/64/6 
f 65/65/3 66/66/4 67/67/5 68/68/6 
f 69/69/5 70/70/6 71/71/3 72/72/4 
f 73/73/5 74/74/6 75/75/3 76/76/4 
f 77/77/5 78/78/6 79/79/3 80/80/4 
s 32
f 81/81/16 82/82/17 83/83/9 84/84/9 
f 84/84/9 83/83/9 85/85/9 86/86/9 
f 86/86/9 85/85/9 87/87/9 88/88/9 
f 88/88/9 87/87/9 18/18/9 17/17/9 
f 89/89/18 90/90/18 91/91/9 92/92/9 
f 92/92/9 91/91/9 93/93/9 94/94/9 
f 94/94/9 93/93/9 20/20/9 19/19/9 
s 8
f 95/95/19 96/96/20 97/97/20 98/98/19 
f 99/99/3 100/100/4 101/101/5 102/102/6 
f 103/103/19 104/104/21 105/105/21 106/106/19 
f 107/107/5 108/108/6 109/109/3 110/110/4 
s 16
f 111/111/5 112/112/7 113/113/8 114/114/6 
f 115/115/5 116/116/7 117/117/8 118/118/6 
f 119/119/8 120/120/6 121/121/5 122/122/7 
f 123/123/8 124/124/6 125/125/5 126/126/7 
s 32
f 127/127/9 128/128/22 129/129/22 130/130/9 
f 18/18/9 127/127/9 130/130/9 19/19/9 
f 131/131/9 132/132/23 133/133/23 134/134/9 
f 20/20/9 131/131/9 134/134/9 17/17/9 
s 64
f 135/135/10 136/136/4 137/137/3 138/138/11 
f 139/139/10 140/140/4 141/141/3 142/142/11 
f 143/143/3 144/144/11 145/145/10 146/146/4 
f 147/147/3 148/148/11 149/149/10 150/150/4 
s 8
f 151/151/24 152/152/25 153/153/20 154/154/19 
f 155/155/3 156/156/4 157/157/5 158/158/6 
f 159/159/19 160/160/21 161/161/26 162/162/24 
f 163/163/5 164/164/6 165/165/3 166/166/4 
f 154/154/19 153/153/20 167/167/20 168/168/19 
f 169/169/3 170/170/4 171/171/5 172/172/6 
f 173/173/19 174/174/21 160/160/21 159/159/19 
f 175/175/5 176/176/6 177/177/3 178/178/4 
f 168/168/19 167/167/20 179/179/20 180/180/19 
f 181/181/3 182/182/4 183/183/5 184/184/6 
f 185/185/19 186/186/21 174/174/21 173/173/19 
f 187/187/5 188/188/6 189/189/3 190/190/4 
f 180/180/19 179/179/20 96/96/20 95/95/19 
f 191/191/3 192/192/4 193/193/5 194/194/6 
f 106/106/19 105/105/21 186/186/21 185/185/19 
f 195/195/5 196/196/6 197/197/3 198/198/4 
f 199/199/27 200/200/28 201/201/21 202/202/19 
f 203/203/5 204/204/6 205/205/3 206/206/4 
f 207/207/19 208/208/20 209/209/29 210/210/27 
f 211/211/3 212/212/4 213/213/5 214/214/6 
f 202/202/19 201/201/21 215/215/21 216/216/19 
f 217/217/5 218/218/6 219/219/3 220/220/4 
f 221/221/19 222/222/20 208/208/20 207/207/19 
f 223/223/3 224/224/4 225/225/5 226/226/6 
f 216/216/19 215/215/21 104/104/21 103/103/19 
f 227/227/5 228/228/6 229/229/3 230/230/4 
f 98/98/19 97/97/20 222/222/20 221/221/19 
f 231/231/3 232/232/4 233/233/5 234/234/6 
s 32
f 235/235/17 236/236/30 237/237/22 238/238/9 
f 82/82/17 235/235/17 238/238/9 83/83/9 
f 239/239/9 240/240/23 241/241/31 242/242/17 
f 84/84/9 239/239/9 242/242/17 81/81/16 
f 238/238/9 237/237/22 243/243/22 244/244/9 
f 83/83/9 238/238/9 244/244/9 85/85/9 
f 245/245/9 246/246/23 240/240/23 239/239/9 
f 86/86/9 245/245/9 239/239/9 84/84/9 
f 244/244/9 243/243/22 247/247/22 248/248/9 
f 85/85/9 244/244/9 248/248/9 87/87/9 
f 249/249/9 250/250/23 246/246/23 245/245/9 
f 88/88/9 249/249/9 245/245/9 86/86/9 
f 248/248/9 247/247/22 128/128/22 127/127/9 
f 87/87/9 248/248/9 127/127/9 18/18/9 
f 134/134/9 133/133/23 250/250/23 249/249/9 
f 17/17/9 134/134/9 249/249/9 88/88/9 
f 251/251/18 252/252/32 253/253/23 254/254/9 
f 90/90/18 251/251/18 254/254/9 91/91/9 
f 255/255/9 256/256/22 257/257/33 258/258/18 
f 92/92/9 255/255/9 258/258/18 89/89/18 
f 254/254/9 253/253/23 259/259/23 260/260/9 
f 91/91/9 254/254/9 260/260/9 93/93/9 
f 261/261/9 262/262/22 256/256/22 255/255/9 
f 94/94/9 261/261/9 255/255/9 92/92/9 
f 260/260/9 259/259/23 132/132/23 131/131/9 
f 93/93/9 260/260/9 131/131/9 20/20/9 
f 130/130/9 129/129/22 262/262/22 261/261/9 
f 19/19/9 130/130/9 261/261/9 94/94/9 
s off
f 263/263/19 264/264/19 265/265/34 266/266/35 
f 264/264/19 267/267/19 268/268/36 265/265/34 
f 267/267/19 269/269/19 270/270/37 268/268/36 
f 269/269/19 263/263/19 266/266/35 270/270/37 
f 271/271/24 272/272/24 273/273/34 274/274/35 
f 272/272/24 275/275/19 276/276/36 273/273/34 
f 275/275/19 277/277/19 278/278/37 276/276/36 
f 277/277/19 271/271/24 274/274/35 278/278/37 
f 277/277/19 275/275/19 279/279/34 280/280/35 
f 275/275/19 281/281/19 282/282/36 279/279/34 
f 281/281/19 283/283/19 284/284/37 282/282/36 
f 283/283/19 277/277/19 280/280/35 284/284/37 
f 283/283/19 281/281/19 285/285/34 286/286/35 
f 281/281/19 287/287/19 288/288/36 285/285/34 
f 287/287/19 289/289/19 290/290/37 288/288/36 
f 289/289/19 283/283/19 286/286/35 290/290/37 
f 289/289/19 287/287/19 291/291/34 292/292/35 
f 287/287/19 264/264/19 293/293/36 291/291/34 
f 264/264/19 263/263/19 294/294/37 293/293/36 
f 263/263/19 289/289/19 292/292/35 294/294/37 
f 295/295/27 296/296/38 297/297/37 298/298/36 
f 296/296/38 299/299/19 300/300/35 297/297/37 
f 299/299/19 301/301/19 302/302/34 300/300/35 
f 301/301/19 295/295/27 298/298/36 302/302/34 
f 301/301/19 299/299/19 303/303/37 304/304/36 
f 299/299/19 305/305/19 306/306/35 303/303/37 
f 305/305/19 307/307/19 308/308/34 306/306/35 
f 307/307/19 301/301/19 304/304/36 308/308/34 
f 307/307/19 305/305/19 309/309/37 310/310/36 
f 305/305/19 269/269/19 311/311/35 309/309/37 
f 269/269/19 267/267/19 312/312/34 311/311/35 
f 267/267/19 307/307/19 310/310/36 312/312/34 
f 264/264/19 95/95/19 313/313/34 314/314/35 
f 95/95/19 98/98/19 315/315/36 313/313/34 
f 98/98/19 267/267/19 316/316/37 315/315/36 
f 267/267/19 264/264/19 314/314/35 316/316/37 
f 269/269/19 103/103/19 317/317/37 318/318/36 
f 103/103/19 106/106/19 319/319/35 317/317/37 
f 106/106/19 263/263/19 320/320/34 319/319/35 
f 263/263/19 269/269/19 318/318/36 320/320/34 
f 272/272/24 151/151/24 321/321/34 322/322/35 
f 151/151/24 154/154/19 323/323/36 321/321/34 
f 154/154/19 275/275/19 324/324/37 323/323/36 
f 275/275/19 272/272/24 322/322/35 324/324/37 
f 277/277/19 159/159/19 325/325/37 326/326/36 
f 159/159/19 162/162/24 327/327/35 325/325/37 
f 162/162/24 271/271/24 328/328/34 327/327/35 
f 271/271/24 277/277/19 326/326/36 328/328/34 
f 275/275/19 154/154/19 329/329/34 330/330/35 
f 154/154/19 168/168/19 331/331/36 329/329/34 
f 168/168/19 281/281/19 332/332/37 331/331/36 
f 281/281/19 275/275/19 330/330/35 332/332/37 
f 283/283/19 173/173/19 333/333/37 334/334/36 
f 173/173/19 159/159/19 335/335/35 333/333/37 
f 159/159/19 277/277/19 336/336/34 335/335/35 
f 277/277/19 283/283/19 334/334/36 336/336/34 
f 281/281/19 168/168/19 337/337/34 338/338/35 
f 168/168/19 180/180/19 339/339/36 337/337/34 
f 180/180/19 287/287/19 340/340/37 339/339/36 
f 287/287/19 281/281/19 338/338/35 340/340/37 
f 289/289/19 185/185/19 341/341/37 342/342/36 
f 185/185/19 173/173/19 343/343/35 341/341/37 
f 173/173/19 283/283/19 344/344/34 343/343/35 
f 283/283/19 289/289/19 342/342/36 344/344/34 
f 287/287/19 180/180/19 345/345/34 346/346/35 
f 180/180/19 95/95/19 347/347/36 345/345/34 
f 95/95/19 264/264/19 348/348/37 347/347/36 
f 264/264/19 287/287/19 346/346/35 348/348/37 
f 263/263/19 106/106/19 349/349/37 350/350/36 
f 106/106/19 185/185/19 351/351/35 349/349/37 
f 185/185/19 289/289/19 352/352/34 351/351/35 
f 289/289/19 263/263/19 350/350/36 352/352/34 
f 296/296/38 199/199/27 353/353/37 354/354/36 
f 199/199/27 202/202/19 355/355/35 353/353/37 
f 202/202/19 299/299/19 356/356/34 355/355/35 
f 299/299/19 296/296/38 354/354/36 356/356/34 
f 301/301/19 207/207/19 357/357/34 358/358/35 
f 207/207/19 210/210/27 359/359/36 357/357/34 
f 210/210/27 295/295/27 360/360/37 359/359/36 
f 295/295/27 301/301/19 358/358/35 360/360/37 
f 299/299/19 202/202/19 361/361/37 362/362/36 
f 202/202/19 216/216/19 363/363/35 361/361/37 
f 216/216/19 305/305/19 364/364/34 363/363/35 
f 305/305/19 299/299/19 362/362/36 364/364/34 
f 307/307/19 221/221/19 365/365/34 366/366/35 
f 221/221/19 207/207/19 367/367/36 365/365/34 
f 207/207/19 301/301/19 368/368/37 367/367/36 
f 301/301/19 307/307/19 366/366/35 368/368/37 
f 305/305/19 216/216/19 369/369/37 370/370/36 
f 216/216/19 103/103/19 371/371/35 369/369/37 
f 103/103/19 269/269/19 372/372/34 371/371/35 
f 269/269/19 305/305/19 370/370/36 372/372/34 
f 267/267/19 98/98/19 373/373/34 374/374/35 
f 98/98/19 221/221/19 375/375/36 373/373/34 
f 221/221/19 307/307/19 376/376/37 375/375/36 
f 307/307/19 267/267/19 374/374/35 376/376/37 
f 266/266/35 265/265/34 10/10/4 9/9/3 
f 265/265/34 268/268/36 11/11/5 10/10/4 
f 268/268/36 270/270/37 12/12/6 11/11/5 
f 270/270/37 266/266/35 9/9/3 12/12/6 
f 274/274/35 273/273/34 54/54/4 53/53/3 
f 273/273/34 276/276/36 55/55/5 54/54/4 
f 276/276/36 278/278/37 56/56/6 55/55/5 
f 278/278/37 274/274/35 53/53/3 56/56/6 
f 280/280/35 279/279/34 58/58/4 57/57/3 
f 279/279/34 282/282/36 59/59/5 58/58/4 
f 282/282/36 284/284/37 60/60/6 59/59/5 
f 284/284/37 280/280/35 57/57/3 60/60/6 
f 286/286/35 285/285/34 62/62/4 61/61/3 
f 285/285/34 288/288/36 63/63/5 62/62/4 
f 288/288/36 290/290/37 64/64/6 63/63/5 
f 290/290/37 286/286/35 61/61/3 64/64/6 
f 292/292/35 291/291/34 66/66/4 65/65/3 
f 291/291/34 293/293/36 67/67/5 66/66/4 
f 293/293/36 294/294/37 68/68/6 67/67/5 
f 294/294/37 292/292/35 65/65/3 68/68/6 
f 298/298/36 297/297/37 70/70/6 69/69/5 
f 297/297/37 300/300/35 71/71/3 70/70/6 
f 300/300/35 302/302/34 72/72/4 71/71/3 
f 302/302/34 298/298/36 69/69/5 72/72/4 
f 304/304/36 303/303/37 74/74/6 73/73/5 
f 303/303/37 306/306/35 75/75/3 74/74/6 
f 306/306/35 308/308/34 76/76/4 75/75/3 
f 308/308/34 304/304/36 73/73/5 76/76/4 
f 310/310/36 309/309/37 78/78/6 77/77/5 
f 309/309/37 311/311/35 79/79/3 78/78/6 
f 311/311/35 312/312/34 80/80/4 79/79/3 
f 312/312/34 310/310/36 77/77/5 80/80/4 
f 314/314/35 313/313/34 100/100/4 99/99/3 
f 313/313/34 315/315/36 101/101/5 100/100/4 
f 315/315/36 316/316/37 102/102/6 101/101/5 
f 316/316/37 314/314/35 99/99/3 102/102/6 
f 318/318/36 317/317/37 108/108/6 107/107/5 
f 317/317/37 319/319/35 109/109/3 108/108/6 
f 319/319/35 320/320/34 110/110/4 109/109/3 
f 320/320/34 318/318/36 107/107/5 110/110/4 
f 322/322/35 321/321/34 156/156/4 155/155/3 
f 321/321/34 323/323/36 157/157/5 156/156/4 
f 323/323/36 324/324/37 158/158/6 157/157/5 
f 324/324/37 322/322/35 155/155/3 158/158/6 
f 326/326/36 325/325/37 164/164/6 163/163/5 
f 325/325/37 327/327/35 165/165/3 164/164/6 
f 327/327/35 328/328/34 166/166/4 165/165/3 
f 328/328/34 326/326/36 163/163/5 166/166/4 
f 330/330/35 329/329/34 170/170/4 169/169/3 
f 329/329/34 331/331/36 171/171/5 170/170/4 
f 331/331/36 332/332/37 172/172/6 171/171/5 
f 332/332/37 330/330/35 169/169/3 172/172/6 
f 334/334/36 333/333/37 176/176/6 175/175/5 
f 333/333/37 335/335/35 177/177/3 176/176/6 
f 335/335/35 336/336/34 178/178/4 177/177/3 
f 336/336/34 334/334/36 175/175/5 178/178/4 
f 338/338/35 337/337/34 182/182/4 181/181/3 
f 337/337/34 339/339/36 183/183/5 182/182/4 
f 339/339/36 340/340/37 184/184/6 183/183/5 
f 340/340/37 338/338/35 181/181/3 184/184/6 
f 342/342/36 341/341/37 188/188/6 187/187/5 
f 341/341/37 343/343/35 189/189/3 188/188/6 
f 343/343/35 344/344/34 190/190/4 189/189/3 
f 344/344/34 342/342/36 187/187/5 190/190/4 
f 346/346/35 345/345/34 192/192/4 191/191/3 
f 345/345/34 347/347/36 193/193/5 192/192/4 
f 347/347/36 348/348/37 194/194/6 193/193/5 
f 348/348/37 346/346/35 191/191/3 194/194/6 
f 350/350/36 349/349/37 196/196/6 195/195/5 
f 349/349/37 351/351/35 197/197/3 196/196/6 
f 351/351/35 352/352/34 198/198/4 197/197/3 
f 352/352/34 350/350/36 195/195/5 198/198/4 
f 354/354/36 353/353/37 204/204/6 203/203/5 
f 353/353/37 355/355/35 205/205/3 204/204/6 
f 355/355/35 356/356/34 206/206/4 205/205/3 
f 356/356/34 354/354/36 203/203/5 206/206/4 
f 358/358/35 357/357/34 212/212/4 211/211/3 
f 357/357/34 359/359/36 213/213/5 212/212/4 
f 359/359/36 360/360/37 214/214/6 213/213/5 
f 360/360/37 358/358/35 211/211/3 214/214/6 
f 362/362/36 361/361/37 218/218/6 217/217/5 
f 361/361/37 363/363/35 219/219/3 218/218/6 
f 363/363/35 364/364/34 220/220/4 219/219/3 
f 364/364/34 362/362/36 217/217/5 220/220/4 
f 366/366/35 365/365/34 224/224/4 223/223/3 
f 365/365/34 367/367/36 225/225/5 224/224/4 
f 367/367/36 368/368/37 226/226/6 225/225/5 
f 368/368/37 366/366/35 223/223/3 226/226/6 
f 370/370/36 369/369/37 228/228/6 227/227/5 
f 369/369/37 371/371/35 229/229/3 228/228/6 
f 371/371/35 372/372/34 230/230/4 229/229/3 
f 372/372/34 370/370/36 227/227/5 230/230/4 
f 374/374/35 373/373/34 232/232/4 231/231/3 
f 373/373/34 375/375/36 233/233/5 232/232/4 
f 375/375/36 376/376/37 234/234/6 233/233/5 
f 376/376/37 374/374/35 231/231/3 234/234/6 
s 2
f 377/377/1 105/832/21 104/823/21 378/378/1 
f 2/2/1 377/377/1 378/378/1 3/3/1 
f 379/379/1 250/847/23 133/838/23 380/380/1 
f 4/4/1 379/379/1 380/380/1 1/1/1 
s 4
f 381/381/2 128/834/22 247/866/22 382/382/2 
f 6/6/2 381/381/2 382/382/2 7/7/2 
f 383/383/2 97/807/20 96/831/20 384/384/2 
f 8/8/2 383/383/2 384/384/2 5/5/2 
s 16
f 385/385/5 386/386/7 387/387/8 388/388/6 
f 389/389/5 390/390/7 391/391/8 392/392/6 
f 393/393/8 394/394/6 395/395/5 396/396/7 
f 397/397/8 398/398/6 399/399/5 400/400/7 
s 64
f 401/401/10 402/402/4 403/403/3 404/404/11 
f 405/405/10 406/406/4 407/407/3 408/408/11 
f 409/409/3 410/410/11 411/411/10 412/412/4 
f 413/413/3 414/414/11 415/415/10 416/416/4 
s 2
f 417/417/12 161/805/26 160/830/21 418/418/1 
f 26/26/12 417/417/12 418/418/1 27/27/1 
f 419/419/1 253/871/23 252/870/32 420/420/12 
f 28/28/1 419/419/1 420/420/12 25/25/12 
f 418/418/1 160/830/21 174/843/21 421/421/1 
f 27/27/1 418/418/1 421/421/1 29/29/1 
f 422/422/1 259/872/23 253/871/23 419/419/1 
f 30/30/1 422/422/1 419/419/1 28/28/1 
f 421/421/1 174/843/21 186/848/21 423/423/1 
f 29/29/1 421/421/1 423/423/1 31/31/1 
f 424/424/1 132/837/23 259/872/23 422/422/1 
f 32/32/1 424/424/1 422/422/1 30/30/1 
f 423/423/1 186/848/21 105/832/21 377/377/1 
f 31/31/1 423/423/1 377/377/1 2/2/1 
f 380/380/1 133/838/23 132/837/23 424/424/1 
f 1/1/1 380/380/1 424/424/1 32/32/1 
f 425/425/13 241/862/31 240/821/23 426/426/1 
f 34/34/13 425/425/13 426/426/1 35/35/1 
f 427/427/1 201/852/21 200/851/28 428/428/13 
f 36/36/1 427/427/1 428/428/13 33/33/13 
f 426/426/1 240/821/23 246/865/23 429/429/1 
f 35/35/1 426/426/1 429/429/1 37/37/1 
f 430/430/1 215/839/21 201/852/21 427/427/1 
f 38/38/1 430/430/1 427/427/1 36/36/1 
f 429/429/1 246/865/23 250/847/23 379/379/1 
f 37/37/1 429/429/1 379/379/1 4/4/1 
f 378/378/1 104/823/21 215/839/21 430/430/1 
f 3/3/1 378/378/1 430/430/1 38/38/1 
s 4
f 431/431/14 257/853/33 256/833/22 432/432/2 
f 40/40/14 431/431/14 432/432/2 41/41/2 
f 433/433/2 153/810/20 152/842/25 434/434/14 
f 42/42/2 433/433/2 434/434/14 39/39/14 
f 432/432/2 256/833/22 262/873/22 435/435/2 
f 41/41/2 432/432/2 435/435/2 43/43/2 
f 436/436/2 167/818/20 153/810/20 433/433/2 
f 44/44/2 436/436/2 433/433/2 42/42/2 
f 435/435/2 262/873/22 129/836/22 437/437/2 
f 43/43/2 435/435/2 437/437/2 45/45/2 
f 438/438/2 179/846/20 167/818/20 436/436/2 
f 46/46/2 438/438/2 436/436/2 44/44/2 
f 437/437/2 129/836/22 128/834/22 381/381/2 
f 45/45/2 437/437/2 381/381/2 6/6/2 
f 384/384/2 96/831/20 179/846/20 438/438/2 
f 5/5/2 384/384/2 438/438/2 46/46/2 
f 439/439/15 209/825/29 208/855/20 440/440/2 
f 48/48/15 439/439/15 440/440/2 49/49/2 
f 441/441/2 237/861/22 236/859/30 442/442/15 
f 50/50/2 441/441/2 442/442/15 47/47/15 
f 440/440/2 208/855/20 222/856/20 443/443/2 
f 49/49/2 440/440/2 443/443/2 51/51/2 
f 444/444/2 243/845/22 237/861/22 441/441/2 
f 52/52/2 444/444/2 441/441/2 50/50/2 
f 443/443/2 222/856/20 97/807/20 383/383/2 
f 51/51/2 443/443/2 383/383/2 8/8/2 
f 382/382/2 247/866/22 243/845/22 444/444/2 
f 7/7/2 382/382/2 444/444/2 52/52/2 
s 16
f 445/445/5 446/446/7 447/447/8 448/448/6 
f 449/449/5 450/450/7 451/451/8 452/452/6 
f 453/453/8 454/454/6 455/455/5 456/456/7 
f 457/457/8 458/458/6 459/459/5 460/460/7 
f 461/461/5 462/462/7 463/463/8 464/464/6 
f 465/465/5 466/466/7 467/467/8 468/468/6 
f 469/469/8 470/470/6 471/471/5 472/472/7 
f 473/473/8 474/474/6 475/475/5 476/476/7 
f 477/477/8 478/478/6 479/479/5 480/480/7 
f 481/481/8 482/482/6 483/483/5 484/484/7 
f 485/485/5 486/486/7 487/487/8 488/488/6 
f 489/489/5 490/490/7 491/491/8 492/492/6 
f 493/493/8 494/494/6 495/495/5 496/496/7 
f 497/497/8 498/498/6 499/499/5 500/500/7 
f 501/501/5 502/502/7 503/503/8 504/504/6 
f 505/505/5 506/506/7 507/507/8 508/508/6 
s 64
f 509/509/10 510/510/4 511/511/3 512/512/11 
f 513/513/10 514/514/4 515/515/3 516/516/11 
f 517/517/3 518/518/11 519/519/10 520/520/4 
f 521/521/3 522/522/11 523/523/10 524/524/4 
f 525/525/10 526/526/4 527/527/3 528/528/11 
f 529/529/10 530/530/4 531/531/3 532/532/11 
f 533/533/3 534/534/11 535/535/10 536/536/4 
f 537/537/3 538/538/11 539/539/10 540/540/4 
f 541/541/3 542/542/11 543/543/10 544/544/4 
f 545/545/3 546/546/11 547/547/10 548/548/4 
f 549/549/10 550/550/4 551/551/3 552/552/11 
f 553/553/10 554/554/4 555/555/3 556/556/11 
f 557/557/3 558/558/11 559/559/10 560/560/4 
f 561/561/3 562/562/11 563/563/10 564/564/4 
f 565/565/10 566/566/4 567/567/3 568/568/11 
f 569/569/10 570/570/4 571/571/3 572/572/11 
s off
f 573/573/39 574/574/39 575/575/40 576/576/41 
f 574/574/39 577/577/39 578/578/42 575/575/40 
f 577/577/39 579/579/39 580/580/43 578/578/42 
f 579/579/39 573/573/39 576/576/41 580/580/43 
f 581/581/44 582/582/44 583/583/45 584/584/46 
f 582/582/44 585/585/47 586/586/48 583/583/45 
f 585/585/47 587/587/47 588/588/49 586/586/48 
f 587/587/47 581/581/44 584/584/46 588/588/49 
f 40/824/14 39/819/14 589/589/40 590/590/41 
f 39/819/14 591/591/39 592/592/42 589/589/40 
f 591/591/39 593/593/39 594/594/43 592/592/42 
f 593/593/39 40/824/14 590/590/41 594/594/43 
f 593/593/39 591/591/39 595/595/40 596/596/41 
f 591/591/39 574/574/39 597/597/42 595/595/40 
f 574/574/39 573/573/39 598/598/43 597/597/42 
f 573/573/39 593/593/39 596/596/41 598/598/43 
f 26/816/12 25/812/12 599/599/43 600/600/42 
f 25/812/12 601/601/39 602/602/41 599/599/43 
f 601/601/39 603/603/39 604/604/40 602/602/41 
f 603/603/39 26/816/12 600/600/42 604/604/40 
f 603/603/39 601/601/39 605/605/43 606/606/42 
f 601/601/39 579/579/39 607/607/41 605/605/43 
f 579/579/39 577/577/39 608/608/40 607/607/41 
f 577/577/39 603/603/39 606/606/42 608/608/40 
f 48/822/15 47/817/15 609/609/45 610/610/46 
f 47/817/15 611/611/44 612/612/48 609/609/45 
f 611/611/44 613/613/44 614/614/49 612/612/48 
f 613/613/44 48/822/15 610/610/46 614/614/49 
f 613/613/44 611/611/44 615/615/45 616/616/46 
f 611/611/44 582/582/44 617/617/48 615/615/45 
f 582/582/44 581/581/44 618/618/49 617/617/48 
f 581/581/44 613/613/44 616/616/46 618/618/49 
f 34/814/13 33/808/13 619/619/49 620/620/48 
f 33/808/13 621/621/44 622/622/46 619/619/49 
f 621/621/44 623/623/44 624/624/45 622/622/46 
f 623/623/44 34/814/13 620/620/48 624/624/45 
f 623/623/44 621/621/44 625/625/49 626/626/48 
f 621/621/44 587/587/47 627/627/46 625/625/49 
f 587/587/47 585/585/47 628/628/45 627/627/46 
f 585/585/47 623/623/44 626/626/48 628/628/45 
f 629/629/39 272/835/24 630/630/40 631/631/41 
f 272/835/24 271/874/24 632/632/42 630/630/40 
f 271/874/24 633/633/39 634/634/43 632/632/42 
f 633/633/39 629/629/39 631/631/41 634/634/43 
f 574/574/39 629/629/39 635/635/40 636/636/41 
f 629/629/39 633/633/39 637/637/42 635/635/40 
f 633/633/39 577/577/39 638/638/43 637/637/42 
f 577/577/39 574/574/39 636/636/41 638/638/43 
f 639/639/39 90/815/18 640/640/43 641/641/42 
f 90/815/18 89/811/18 642/642/41 640/640/43 
f 89/811/18 643/643/39 644/644/40 642/642/41 
f 643/643/39 639/639/39 641/641/42 644/644/40 
f 579/579/39 639/639/39 645/645/43 646/646/42 
f 639/639/39 643/643/39 647/647/41 645/645/43 
f 643/643/39 573/573/39 648/648/40 647/647/41 
f 573/573/39 579/579/39 646/646/42 648/648/40 
f 649/649/44 82/829/17 650/650/45 651/651/46 
f 82/829/17 81/827/16 652/652/48 650/650/45 
f 81/827/16 653/653/47 654/654/49 652/652/48 
f 653/653/47 649/649/44 651/651/46 654/654/49 
f 582/582/44 649/649/44 655/655/45 656/656/46 
f 649/649/44 653/653/47 657/657/48 655/655/45 
f 653/653/47 585/585/47 658/658/49 657/657/48 
f 585/585/47 582/582/44 656/656/46 658/658/49 
f 659/659/47 296/809/38 660/660/49 661/661/48 
f 296/809/38 295/844/27 662/662/46 660/660/49 
f 295/844/27 663/663/44 664/664/45 662/662/46 
f 663/663/44 659/659/47 661/661/48 664/664/45 
f 587/587/47 659/659/47 665/665/49 666/666/48 
f 659/659/47 663/663/44 667/667/46 665/665/49 
f 663/663/44 581/581/44 668/668/45 667/667/46 
f 581/581/44 587/587/47 666/666/48 668/668/45 
f 434/878/14 152/841/25 669/669/40 670/670/41 
f 152/841/25 151/840/24 671/671/42 669/669/40 
f 151/840/24 672/672/39 673/673/43 671/671/42 
f 672/672/39 434/878/14 670/670/41 673/673/43 
f 39/819/14 434/878/14 674/674/40 675/675/41 
f 434/878/14 672/672/39 676/676/42 674/674/40 
f 672/672/39 591/591/39 677/677/43 676/676/42 
f 591/591/39 39/819/14 675/675/41 677/677/43 
f 678/678/39 258/867/18 679/679/43 680/680/42 
f 258/867/18 257/854/33 681/681/41 679/679/43 
f 257/854/33 431/877/14 682/682/40 681/681/41 
f 431/877/14 678/678/39 680/680/42 682/682/40 
f 593/593/39 678/678/39 683/683/43 684/684/42 
f 678/678/39 431/877/14 685/685/41 683/683/43 
f 431/877/14 40/824/14 686/686/40 685/685/41 
f 40/824/14 593/593/39 684/684/42 686/686/40 
f 672/672/39 151/840/24 687/687/40 688/688/41 
f 151/840/24 272/835/24 689/689/42 687/687/40 
f 272/835/24 629/629/39 690/690/43 689/689/42 
f 629/629/39 672/672/39 688/688/41 690/690/43 
f 591/591/39 672/672/39 691/691/40 692/692/41 
f 672/672/39 629/629/39 693/693/42 691/691/40 
f 629/629/39 574/574/39 694/694/43 693/693/42 
f 574/574/39 591/591/39 692/692/41 694/694/43 
f 643/643/39 89/811/18 695/695/43 696/696/42 
f 89/811/18 258/867/18 697/697/41 695/695/43 
f 258/867/18 678/678/39 698/698/40 697/697/41 
f 678/678/39 643/643/39 696/696/42 698/698/40 
f 573/573/39 643/643/39 699/699/43 700/700/42 
f 643/643/39 678/678/39 701/701/41 699/699/43 
f 678/678/39 593/593/39 702/702/40 701/701/41 
f 593/593/39 573/573/39 700/700/42 702/702/40 
f 420/875/12 252/869/32 703/703/43 704/704/42 
f 252/869/32 251/868/18 705/705/41 703/703/43 
f 251/868/18 706/706/39 707/707/40 705/705/41 
f 706/706/39 420/875/12 704/704/42 707/707/40 
f 25/812/12 420/875/12 708/708/43 709/709/42 
f 420/875/12 706/706/39 710/710/41 708/708/43 
f 706/706/39 601/601/39 711/711/40 710/710/41 
f 601/601/39 25/812/12 709/709/42 711/711/40 
f 712/712/39 162/813/24 713/713/40 714/714/41 
f 162/813/24 161/806/26 715/715/42 713/713/40 
f 161/806/26 417/820/12 716/716/43 715/715/42 
f 417/820/12 712/712/39 714/714/41 716/716/43 
f 603/603/39 712/712/39 717/717/40 718/718/41 
f 712/712/39 417/820/12 719/719/42 717/717/40 
f 417/820/12 26/816/12 720/720/43 719/719/42 
f 26/816/12 603/603/39 718/718/41 720/720/43 
f 706/706/39 251/868/18 721/721/43 722/722/42 
f 251/868/18 90/815/18 723/723/41 721/721/43 
f 90/815/18 639/639/39 724/724/40 723/723/41 
f 639/639/39 706/706/39 722/722/42 724/724/40 
f 601/601/39 706/706/39 725/725/43 726/726/42 
f 706/706/39 639/639/39 727/727/41 725/725/43 
f 639/639/39 579/579/39 728/728/40 727/727/41 
f 579/579/39 601/601/39 726/726/42 728/728/40 
f 633/633/39 271/874/24 729/729/40 730/730/41 
f 271/874/24 162/813/24 731/731/42 729/729/40 
f 162/813/24 712/712/39 732/732/43 731/731/42 
f 712/712/39 633/633/39 730/730/41 732/732/43 
f 577/577/39 633/633/39 733/733/40 734/734/41 
f 633/633/39 712/712/39 735/735/42 733/733/40 
f 712/712/39 603/603/39 736/736/43 735/735/42 
f 603/603/39 577/577/39 734/734/41 736/736/43 
f 442/880/15 236/858/30 737/737/45 738/738/46 
f 236/858/30 235/857/17 739/739/48 737/737/45 
f 235/857/17 740/740/44 741/741/49 739/739/48 
f 740/740/44 442/880/15 738/738/46 741/741/49 
f 47/817/15 442/880/15 742/742/45 743/743/46 
f 442/880/15 740/740/44 744/744/48 742/742/45 
f 740/740/44 611/611/44 745/745/49 744/744/48 
f 611/611/44 47/817/15 743/743/46 745/745/49 
f 746/746/44 210/828/27 747/747/49 748/748/48 
f 210/828/27 209/826/29 749/749/46 747/747/49 
f 209/826/29 439/879/15 750/750/45 749/749/46 
f 439/879/15 746/746/44 748/748/48 750/750/45 
f 613/613/44 746/746/44 751/751/49 752/752/48 
f 746/746/44 439/879/15 753/753/46 751/751/49 
f 439/879/15 48/822/15 754/754/45 753/753/46 
f 48/822/15 613/613/44 752/752/48 754/754/45 
f 740/740/44 235/857/17 755/755/45 756/756/46 
f 235/857/17 82/829/17 757/757/48 755/755/45 
f 82/829/17 649/649/44 758/758/49 757/757/48 
f 649/649/44 740/740/44 756/756/46 758/758/49 
f 611/611/44 740/740/44 759/759/45 760/760/46 
f 740/740/44 649/649/44 761/761/48 759/759/45 
f 649/649/44 582/582/44 762/762/49 761/761/48 
f 582/582/44 611/611/44 760/760/46 762/762/49 
f 663/663/44 295/844/27 763/763/49 764/764/48 
f 295/844/27 210/828/27 765/765/46 763/763/49 
f 210/828/27 746/746/44 766/766/45 765/765/46 
f 746/746/44 663/663/44 764/764/48 766/766/45 
f 581/581/44 663/663/44 767/767/49 768/768/48 
f 663/663/44 746/746/44 769/769/46 767/767/49 
f 746/746/44 613/613/44 770/770/45 769/769/46 
f 613/613/44 581/581/44 768/768/48 770/770/45 
f 428/860/13 200/850/28 771/771/49 772/772/48 
f 200/850/28 199/849/27 773/773/46 771/771/49 
f 199/849/27 774/774/44 775/775/45 773/773/46 
f 774/774/44 428/860/13 772/772/48 775/775/45 
f 33/808/13 428/860/13 776/776/49 777/777/48 
f 428/860/13 774/774/44 778/778/46 776/776/49 
f 774/774/44 621/621/44 779/779/45 778/778/46 
f 621/621/44 33/808/13 777/777/48 779/779/45 
f 780/780/44 242/864/17 781/781/45 782/782/46 
f 242/864/17 241/863/31 783/783/48 781/781/45 
f 241/863/31 425/876/13 784/784/49 783/783/48 
f 425/876/13 780/780/44 782/782/46 784/784/49 
f 623/623/44 780/780/44 785/785/45 786/786/46 
f 780/780/44 425/876/13 787/787/48 785/785/45 
f 425/876/13 34/814/13 788/788/49 787/787/48 
f 34/814/13 623/623/44 786/786/46 788/788/49 
f 774/774/44 199/849/27 789/789/49 790/790/48 
f 199/849/27 296/809/38 791/791/46 789/789/49 
f 296/809/38 659/659/47 792/792/45 791/791/46 
f 659/659/47 774/774/44 790/790/48 792/792/45 
f 621/621/44 774/774/44 793/793/49 794/794/48 
f 774/774/44 659/659/47 795/795/46 793/793/49 
f 659/659/47 587/587/47 796/796/45 795/795/46 
f 587/587/47 621/621/44 794/794/48 796/796/45 
f 653/653/47 81/827/16 797/797/45 798/798/46 
f 81/827/16 242/864/17 799/799/48 797/797/45 
f 242/864/17 780/780/44 800/800/49 799/799/48 
f 780/780/44 653/653/47 798/798/46 800/800/49 
f 585/585/47 653/653/47 801/801/45 802/802/46 
f 653/653/47 780/780/44 803/803/48 801/801/45 
f 780/780/44 623/623/44 804/804/49 803/803/48 
f 623/623/44 585/585/47 802/802/46 804/804/49 
f 576/576/41 575/575/40 14/14/7 13/13/5 
f 575/575/40 578/578/42 15/15/8 14/14/7 
f 578/578/42 580/580/43 16/16/6 15/15/8 
f 580/580/43 576/576/41 13/13/5 16/16/6 
f 584/584/46 583/583/45 22/22/4 21/21/10 
f 583/583/45 586/586/48 23/23/3 22/22/4 
f 586/586/48 588/588/49 24/24/11 23/23/3 
f 588/588/49 584/584/46 21/21/10 24/24/11 
f 590/590/41 589/589/40 112/112/7 111/111/5 
f 589/589/40 592/592/42 113/113/8 112/112/7 
f 592/592/42 594/594/43 114/114/6 113/113/8 
f 594/594/43 590/590/41 111/111/5 114/114/6 
f 596/596/41 595/595/40 116/116/7 115/115/5 
f 595/595/40 597/597/42 117/117/8 116/116/7 
f 597/597/42 598/598/43 118/118/6 117/117/8 
f 598/598/43 596/596/41 115/115/5 118/118/6 
f 600/600/42 599/599/43 120/120/6 119/119/8 
f 599/599/43 602/602/41 121/121/5 120/120/6 
f 602/602/41 604/604/40 122/122/7 121/121/5 
f 604/604/40 600/600/42 119/119/8 122/122/7 
f 606/606/42 605/605/43 124/124/6 123/123/8 
f 605/605/43 607/607/41 125/125/5 124/124/6 
f 607/607/41 608/608/40 126/126/7 125/125/5 
f 608/608/40 606/606/42 123/123/8 126/126/7 
f 610/610/46 609/609/45 136/136/4 135/135/10 
f 609/609/45 612/612/48 137/137/3 136/136/4 
f 612/612/48 614/614/49 138/138/11 137/137/3 
f 614/614/49 610/610/46 135/135/10 138/138/11 
f 616/616/46 615/615/45 140/140/4 139/139/10 
f 615/615/45 617/617/48 141/141/3 140/140/4 
f 617/617/48 618/618/49 142/142/11 141/141/3 
f 618/618/49 616/616/46 139/139/10 142/142/11 
f 620/620/48 619/619/49 144/144/11 143/143/3 
f 619/619/49 622/622/46 145/145/10 144/144/11 
f 622/622/46 624/624/45 146/146/4 145/145/10 
f 624/624/45 620/620/48 143/143/3 146/146/4 
f 626/626/48 625/625/49 148/148/11 147/147/3 
f 625/625/49 627/627/46 149/149/10 148/148/11 
f 627/627/46 628/628/45 150/150/4 149/149/10 
f 628/628/45 626/626/48 147/147/3 150/150/4 
f 631/631/41 630/630/40 386/386/7 385/385/5 
f 630/630/40 632/632/42 387/387/8 386/386/7 
f 632/632/42 634/634/43 388/388/6 387/387/8 
f 634/634/43 631/631/41 385/385/5 388/388/6 
f 636/636/41 635/635/40 390/390/7 389/389/5 
f 635/635/40 637/637/42 391/391/8 390/390/7 
f 637/637/42 638/638/43 392/392/6 391/391/8 
f 638/638/43 636/636/41 389/389/5 392/392/6 
f 641/641/42 640/640/43 394/394/6 393/393/8 
f 640/640/43 642/642/41 395/395/5 394/394/6 
f 642/642/41 644/644/40 396/396/7 395/395/5 
f 644/644/40 641/641/42 393/393/8 396/396/7 
f 646/646/42 645/645/43 398/398/6 397/397/8 
f 645/645/43 647/647/41 399/399/5 398/398/6 
f 647/647/41 648/648/40 400/400/7 399/399/5 
f 648/648/40 646/646/42 397/397/8 400/400/7 
f 651/651/46 650/650/45 402/402/4 401/401/10 
f 650/650/45 652/652/48 403/403/3 402/402/4 
f 652/652/48 654/654/49 404/404/11 403/403/3 
f 654/654/49 651/651/46 401/401/10 404/404/11 
f 656/656/46 655/655/45 406/406/4 405/405/10 
f 655/655/45 657/657/48 407/407/3 406/406/4 
f 657/657/48 658/658/49 408/408/11 407/407/3 
f 658/658/49 656/656/46 405/405/10 408/408/11 
f 661/661/48 660/660/49 410/410/11 409/409/3 
f 660/660/49 662/662/46 411/411/10 410/410/11 
f 662/662/46 664/664/45 412/412/4 411/411/10 
f 664/664/45 661/661/48 409/409/3 412/412/4 
f 666/666/48 665/665/49 414/414/11 413/413/3 
f 665/665/49 667/667/46 415/415/10 414/414/11 
f 667/667/46 668/668/45 416/416/4 415/415/10 
f 668/668/45 666/666/48 413/413/3 416/416/4 
f 670/670/41 669/669/40 446/446/7 445/445/5 
f 669/669/40 671/671/42 447/447/8 446/446/7 
f 671/671/42 673/673/43 448/448/6 447/447/8 
f 673/673/43 670/670/41 445/445/5 448/448/6 
f 675/675/41 674/674/40 450/450/7 449/449/5 
f 674/674/40 676/676/42 451/451/8 450/450/7 
f 676/676/42 677/677/43 452/452/6 451/451/8 
f 677/677/43 675/675/41 449/449/5 452/452/6 
f 680/680/42 679/679/43 454/454/6 453/453/8 
f 679/679/43 681/681/41 455/455/5 454/454/6 
f 681/681/41 682/682/40 456/456/7 455/455/5 
f 682/682/40 680/680/42 453/453/8 456/456/7 
f 684/684/42 683/683/43 458/458/6 457/457/8 
f 683/683/43 685/685/41 459/459/5 458/458/6 
f 685/685/41 686/686/40 460/460/7 459/459/5 
f 686/686/40 684/684/42 457/457/8 460/460/7 
f 688/688/41 687/687/40 462/462/7 461/461/5 
f 687/687/40 689/689/42 463/463/8 462/462/7 
f 689/689/42 690/690/43 464/464/6 463/463/8 
f 690/690/43 688/688/41 461/461/5 464/464/6 
f 692/692/41 691/691/40 466/466/7 465/465/5 
f 691/691/40 693/693/42 467/467/8 466/466/7 
f 693/693/42 694/694/43 468/468/6 467/467/8 
f 694/694/43 692/692/41 465/465/5 468/468/6 
f 696/696/42 695/695/43 470/470/6 469/469/8 
f 695/695/43 697/697/41 471/471/5 470/470/6 
f 697/697/41 698/698/40 472/472/7 471/471/5 
f 698/698/40 696/696/42 469/469/8 472/472/7 
f 700/700/42 699/699/43 474/474/6 473/473/8 
f 699/699/43 701/701/41 475/475/5 474/474/6 
f 701/701/41 702/702/40 476/476/7 475/475/5 
f 702/702/40 700/700/42 473/473/8 476/476/7 
f 704/704/42 703/703/43 478/478/6 477/477/8 
f 703/703/43 705/705/41 479/479/5 478/478/6 
f 705/705/41 707/707/40 480/480/7 479/479/5 
f 707/707/40 704/704/42 477/477/8 480/480/7 
f 709/709/42 708/708/43 482/482/6 481/481/8 
f 708/708/43 710/710/41 483/483/5 482/482/6 
f 710/710/41 711/711/40 484/484/7 483/483/5 
f 711/711/40 709/709/42 481/481/8 484/484/7 
f 714/714/41 713/713/40 486/486/7 485/485/5 
f 713/713/40 715/715/42 487/487/8 486/486/7 
f 715/715/42 716/716/43 488/488/6 487/487/8 
f 716/716/43 714/714/41 485/485/5 488/488/6 
f 718/718/41 717/717/40 490/490/7 489/489/5 
f 717/717/40 719/719/42 491/491/8 490/490/7 
f 719/719/42 720/720/43 492/492/6 491/491/8 
f 720/720/43 718/718/41 489/489/5 492/492/6 
f 722/722/42 721/721/43 494/494/6 493/493/8 
f 721/721/43 723/723/41 495/495/5 494/494/6 
f 723/723/41 724/724/40 496/496/7 495/495/5 
f 724/724/40 722/722/42 493/493/8 496/496/7 
f 726/726/42 725/725/43 498/498/6 497/497/8 
f 725/725/43 727/727/41 499/499/5 498/498/6 
f 727/727/41 728/728/40 500/500/7 499/499/5 
f 728/728/40 726/726/42 497/497/8 500/500/7 
f 730/730/41 729/729/40 502/502/7 501/501/5 
f 729/729/40 731/731/42 503/503/8 502/502/7 
f 731/731/42 732/732/43 504/504/6 503/503/8 
f 732/732/43 730/730/41 501/501/5 504/504/6 
f 734/734/41 733/733/40 506/506/7 505/505/5 
f 733/733/40 735/735/42 507/507/8 506/506/7 
f 735/735/42 736/736/43 508/508/6 507/507/8 
f 736/736/43 734/734/41 505/505/5 508/508/6 
f 738/738/46 737/737/45 510/510/4 509/509/10 
f 737/737/45 739/739/48 511/511/3 510/510/4 
f 739/739/48 741/741/49 512/512/11 511/511/3 
f 741/741/49 738/738/46 509/509/10 512/512/11 
f 743/743/46 742/742/45 514/514/4 513/513/10 
f 742/742/45 744/744/48 515/515/3 514/514/4 
f 744/744/48 745/745/49 516/516/11 515/515/3 
f 745/745/49 743/743/46 513/513/10 516/516/11 
f 748/748/48 747/747/49 518/518/11 517/517/3 
f 747/747/49 749/749/46 519/519/10 518/518/11 
f 749/749/46 750/750/45 520/520/4 519/519/10 
f 750/750/45 748/748/48 517/517/3 520/520/4 
f 752/752/48 751/751/49 522/522/11 521/521/3 
f 751/751/49 753/753/46 523/523/10 522/522/11 
f 753/753/46 754/754/45 524/524/4 523/523/10 
f 754/754/45 752/752/48 521/521/3 524/524/4 
f 756/756/46 755/755/45 526/526/4 525/525/10 
f 755/755/45 757/757/48 527/527/3 526/526/4 
f 757/757/48 758/758/49 528/528/11 527/527/3 
f 758/758/49 756/756/46 525/525/10 528/528/11 
f 760/760/46 759/759/45 530/530/4 529/529/10 
f 759/759/45 761/761/48 531/531/3 530/530/4 
f 761/761/48 762/762/49 532/532/11 531/531/3 
f 762/762/49 760/760/46 529/529/10 532/532/11 
f 764/764/48 763/763/49 534/534/11 533/533/3 
f 763/763/49 765/765/46 535/535/10 534/534/11 
f 765/765/46 766/766/45 536/536/4 535/535/10 
f 766/766/45 764/764/48 533/533/3 536/536/4 
f 768/768/48 767/767/49 538/538/11 537/537/3 
f 767/767/49 769/769/46 539/539/10 538/538/11 
f 769/769/46 770/770/45 540/540/4 539/539/10 
f 770/770/45 768/768/48 537/537/3 540/540/4 
f 772/772/48 771/771/49 542/542/11 541/541/3 
f 771/771/49 773/773/46 543/543/10 542/542/11 
f 773/773/46 775/775/45 544/544/4 543/543/10 
f 775/775/45 772/772/48 541/541/3 544/544/4 
f 777/777/48 776/776/49 546/546/11 545/545/3 
f 776/776/49 778/778/46 547/547/10 546/546/11 
f 778/778/46 779/779/45 548/548/4 547/547/10 
f 779/779/45 777/777/48 545/545/3 548/548/4 
f 782/782/46 781/781/45 550/550/4 549/549/10 
f 781/781/45 783/783/48 551/551/3 550/550/4 
f 783/783/48 784/784/49 552/552/11 551/551/3 
f 784/784/49 782/782/46 549/549/10 552/552/11 
f 786/786/46 785/785/45 554/554/4 553/553/10 
f 785/785/45 787/787/48 555/555/3 554/554/4 
f 787/787/48 788/788/49 556/556/11 555/555/3 
f 788/788/49 786/786/46 553/553/10 556/556/11 
f 790/790/48 789/789/49 558/558/11 557/557/3 
f 789/789/49 791/791/46 559/559/10 558/558/11 
f 791/791/46 792/792/45 560/560/4 559/559/10 
f 792/792/45 790/790/48 557/557/3 560/560/4 
f 794/794/48 793/793/49 562/562/11 561/561/3 
f 793/793/49 795/795/46 563/563/10 562/562/11 
f 795/795/46 796/796/45 564/564/4 563/563/10 
f 796/796/45 794/794/48 561/561/3 564/564/4 
f 798/798/46 797/797/45 566/566/4 565/565/10 
f 797/797/45 799/799/48 567/567/3 566/566/4 
f 799/799/48 800/800/49 568/568/11 567/567/3 
f 800/800/49 798/798/46 565/565/10 568/568/11 
f 802/802/46 801/801/45 570/570/4 569/569/10 
f 801/801/45 803/803/48 571/571/3 570/570/4 
f 803/803/48 804/804/49 572/572/11 571/571/3 
f 804/804/49 802/802/46 569/569/10 572/572/11 
#end 802 faces

#ZOMPROPERTIES_04{
#ZOMPROPERTIES_04 table {Mesh table {SymPlane table {Point vector3d 0 0 0 Normal vector3d 1 0 0 Threshold double 0.01 
#ZOMPROPERTIES_04 Enabled bool false EdgeID int -1 SymEdgeID int -1 UPos double 0.5 LocalMode bool false } RootGroup C
#ZOMPROPERTIES_04 SubMeshGroup {Children table {Tile_0_0 CSubMeshGroup {Children table {} BBoxUV box3d 0 0 0 0 0 0 BBo
#ZOMPROPERTIES_04 x3D box3d 0 0 0 0 0 0 Area3D double 0 AreaUV double 0 IsRoot bool false Properties table {Selected b
#ZOMPROPERTIES_04 ool false Box box3d 0 1 0 1 0 1 U int 0 V int 0 NU int 0 NV int 0 Pack table {BoxFrameEdit bool fals
#ZOMPROPERTIES_04 e Behavior string "Free" Locked bool false Scaling table {Optimization string "Fill" } } Hotspot tab
#ZOMPROPERTIES_04 le {} } IsTile bool true PolyIDs ints { 0 12 11 10 333 332 336 340 298 326 322 318 314 315 6 317 316
#ZOMPROPERTIES_04  320 324 328 300 338 334 330 331 335 339 301 329 9 8 7 325 323 321 319 327 299 341 337 1 19 18 17 36
#ZOMPROPERTIES_04 1 360 364 368 302 354 350 346 342 343 13 345 344 348 352 356 304 366 362 358 359 363 367 305 357 16 
#ZOMPROPERTIES_04 15 14 353 351 349 347 355 303 369 365 3 604 404 424 624 41 622 422 420 620 40 618 418 421 419 513 71
#ZOMPROPERTIES_04 3 379 711 511 509 709 378 707 507 506 508 522 722 382 724 524 450 650 308 652 452 498 698 376 700 50
#ZOMPROPERTIES_04 0 482 682 372 684 484 483 485 487 687 373 689 489 413 613 38 611 411 481 681 371 679 479 477 677 370
#ZOMPROPERTIES_04  675 475 474 476 490 690 374 692 492 442 642 306 644 444 530 730 384 732 532 514 714 380 716 516 515
#ZOMPROPERTIES_04  517 519 719 381 721 521 520 518 536 736 385 734 534 448 648 307 646 446 496 696 375 694 494 497 495
#ZOMPROPERTIES_04  695 697 415 615 39 617 417 505 705 377 703 503 502 504 704 702 456 656 309 654 454 528 728 383 726 
#ZOMPROPERTIES_04 526 529 527 727 729 457 455 655 657 416 414 614 616 402 602 403 405 449 447 647 649 537 535 735 737 
#ZOMPROPERTIES_04 718 720 717 715 531 533 733 731 443 445 645 643 491 493 693 691 676 674 478 480 680 678 410 412 612 
#ZOMPROPERTIES_04 610 488 486 686 688 685 683 499 501 701 699 451 453 653 651 523 525 725 723 708 706 510 512 712 710 
#ZOMPROPERTIES_04 619 621 425 423 623 625 603 605 5 608 408 440 640 49 638 438 436 636 48 634 434 437 435 577 777 395 
#ZOMPROPERTIES_04 775 575 573 773 394 771 571 570 572 586 786 398 788 588 466 666 312 668 468 562 762 392 764 564 546 
#ZOMPROPERTIES_04 746 388 748 548 547 549 551 751 389 753 553 429 629 46 627 427 545 745 387 743 543 541 741 386 739 5
#ZOMPROPERTIES_04 39 538 540 554 754 390 756 556 458 658 310 660 460 594 794 400 796 596 578 778 396 780 580 579 581 5
#ZOMPROPERTIES_04 83 783 397 785 585 584 582 600 800 401 798 598 464 664 311 662 462 560 760 391 758 558 561 559 759 7
#ZOMPROPERTIES_04 61 431 631 47 633 433 569 769 393 767 567 566 568 768 766 472 672 313 670 470 592 792 399 790 590 59
#ZOMPROPERTIES_04 3 591 791 793 473 471 671 673 432 430 630 632 406 606 407 409 465 463 663 665 601 599 799 801 782 78
#ZOMPROPERTIES_04 4 781 779 595 597 797 795 459 461 661 659 555 557 757 755 740 738 542 544 744 742 426 428 628 626 55
#ZOMPROPERTIES_04 2 550 750 752 749 747 563 565 765 763 467 469 669 667 587 589 789 787 772 770 574 576 776 774 635 63
#ZOMPROPERTIES_04 7 441 439 639 641 607 609 4 33 32 31 97 96 100 104 42 90 86 82 78 79 27 81 80 84 88 92 44 102 98 94 
#ZOMPROPERTIES_04 95 99 103 45 93 30 29 28 89 87 85 83 91 43 105 101 2 204 108 136 232 26 230 134 132 228 25 226 130 1
#ZOMPROPERTIES_04 28 224 24 222 126 129 127 181 277 67 275 179 66 70 74 36 64 60 56 52 151 247 53 249 153 113 209 20 2
#ZOMPROPERTIES_04 07 111 149 245 51 243 147 50 54 58 62 34 76 72 68 183 279 69 281 185 184 182 192 288 73 286 190 200 
#ZOMPROPERTIES_04 296 77 294 198 140 236 35 234 138 172 268 63 266 170 164 260 59 258 162 156 252 55 250 154 157 251 2
#ZOMPROPERTIES_04 53 115 211 21 213 117 161 257 57 255 159 160 256 254 158 168 264 61 262 166 176 272 65 270 174 144 2
#ZOMPROPERTIES_04 40 37 238 142 196 292 75 290 194 188 284 71 282 186 189 283 285 187 197 291 293 195 145 239 241 143 
#ZOMPROPERTIES_04 177 271 273 125 221 23 219 123 122 124 106 202 107 109 220 218 120 216 22 214 118 121 119 215 217 17
#ZOMPROPERTIES_04 5 169 263 265 167 116 114 210 212 155 165 259 261 163 173 267 269 171 141 235 237 139 201 295 297 19
#ZOMPROPERTIES_04 9 193 287 289 191 278 280 146 148 244 242 110 112 208 206 152 150 246 248 178 180 276 274 223 225 13
#ZOMPROPERTIES_04 3 131 227 229 137 135 231 233 203 205 } } } BBoxUV box3d 0 0 0 0 0 0 BBox3D box3d 0 0 0 0 0 0 Area3D
#ZOMPROPERTIES_04  double 0 AreaUV double 0 IsRoot bool true Properties table {Selected bool false Box box3d 0 1 0 1 0
#ZOMPROPERTIES_04  1 U int 0 V int 0 NU int 1 NV int 1 Pack table {Rotate table {Initial string "Automatic" Min double
#ZOMPROPERTIES_04  0 Max double 90 Step double 0 } ResolutionDivisor int 0 MapResolution int 2048 UsePixelUnit bool tr
#ZOMPROPERTIES_04 ue PaddingSize double 0.0078125 MarginSize double 0.00390625 PaddingSizePx int 16 MarginSizePx int 8
#ZOMPROPERTIES_04  Scaling table {TexelDensity double 1024 Mode int 2 Optimization string "Fill" } MaxMutations int 1 
#ZOMPROPERTIES_04 Strategy string "Efficient" Sides string "Closed" } Hotspot table {} Tiling vector3d 1 1 1 TileRatio
#ZOMPROPERTIES_04 Mode string "1:1" } IsTile bool false PolyIDs ints { } } Maps table {Pin CDataMap {PrimType string "
#ZOMPROPERTIES_04 Vertex" Size int 1 DefaultValue double 0 ScaleType string "Normalized" MergeMode string "Max" MinVal
#ZOMPROPERTIES_04 ue double 0 MaxValue double 1 Data doubles { r 880 0 } } Density CDataMap {PrimType string "Polygon"
#ZOMPROPERTIES_04  Size int 1 DefaultValue double 1 ScaleType string "Log" MergeMode string "Average" MinValue double 
#ZOMPROPERTIES_04 0.1 MaxValue double 4 Data doubles { r 802 1 } } Protect CDataMap {PrimType string "Vertex" Size int
#ZOMPROPERTIES_04  1 DefaultValue double 0 ScaleType string "Normalized" MergeMode string "Average" MinValue double -1
#ZOMPROPERTIES_04  MaxValue double 1 Data doubles { r 880 0 } } } } }
#ZOMPROPERTIES_04}


#ZOMSCENE_01{
#ZOMSCENE_01 CScene {Settings table {AxisSystem table {UpVector string "y" } Unit string "cm" TexelDensityDisplay
#ZOMSCENE_01 Unit string "tx/cm" } Root CXForm {Box015 CPrim {PolyRange table {Low int 0 High int 801 } } } }
#ZOMSCENE_01}

#begin 0 fatal error vertex (that RizomUV cannot handle)
#end 0 fatal error vertex (that RizomUV cannot handle)

#begin 0 error vertex
#end 0 error vertex
