#File written by RizomUV 2025.0.96.gd7fd59ee. Compilation :Sep 15 2025,14:05:29
mtllib Ç½Ãæ.mtl
#begin vertices
v -2.8135 -0.1937 8.4424
v -2.8135 -0.1937 -3.7015
v -2.8135 3.4009 -3.7015
v -2.8135 3.4009 8.4424
v -2.9239 -0.1937 8.4424
v -2.9239 3.4009 8.4424
v -2.9239 3.4009 -3.7015
v -2.9239 -0.1937 -3.7015
#end vertices

#begin 24 textures vertices 
vt 0.2957348 0.9620253 0
vt 0.2957348 0.003906267 0
vt 0.5793385 0.003906267 0
vt 0.5793385 0.9620253 0
vt 0.003906265 0.003906267 0
vt 0.2875099 0.003906267 0
vt 0.2875099 0.9620253 0
vt 0.003906265 0.9620253 0
vt 0.8711669 0.020984 0
vt 0.00390625 0.9873835 0
vt 0.5875633 0.020984 0
vt 0.9620252 0.9703058 0
vt 0.8711669 0.00390625 0
vt 0.00390625 0.9703058 0
vt 0.9620252 0.9873835 0
vt 0.5875633 0.00390625 0
vt 0.8711669 0.01261649 0
vt 0.00390625 0.979016 0
vt 0.5875633 0.02969424 0
vt 0.9620252 0.979016 0
vt 0.8711669 0.02969424 0
vt 0.00390625 0.9960938 0
vt 0.9620252 0.9960937 0
vt 0.5875633 0.01261649 0
#end 24 textures vertices 

#begin 6 normals 
vn 1 0 -0
vn -1 -0 -0
vn 0 0 1
vn 0 1 -0
vn 0 0 -1
vn 0 -1 -0
#end 6 normals 

#begin 6 faces
o WALL
usemtl wire_122038083
g WALL
s 2
f 1/1/1 2/2/1 3/3/1 4/4/1 
s 4
f 5/5/2 6/6/2 7/7/2 8/8/2 
s 8
f 1/11/3 4/9/3 6/21/3 5/19/3 
s 16
f 4/10/4 3/15/4 7/23/4 6/22/4 
s 32
f 3/16/5 2/13/5 8/17/5 7/24/5 
s 64
f 2/14/6 1/12/6 5/20/6 8/18/6 
#end 6 faces

#ZOMPROPERTIES_04{
#ZOMPROPERTIES_04 table {Mesh table {SymPlane table {Point vector3d 0 0 0 Normal vector3d 1 0 0 Threshold double 0.01 
#ZOMPROPERTIES_04 Enabled bool false EdgeID int -1 SymEdgeID int -1 UPos double 0.5 LocalMode bool false } RootGroup C
#ZOMPROPERTIES_04 SubMeshGroup {Children table {Tile_0_0 CSubMeshGroup {Children table {} BBoxUV box3d 0 0 0 0 0 0 BBo
#ZOMPROPERTIES_04 x3D box3d 0 0 0 0 0 0 Area3D double 0 AreaUV double 0 IsRoot bool false Properties table {Selected b
#ZOMPROPERTIES_04 ool false Box box3d 0 1 0 1 0 1 U int 0 V int 0 NU int 0 NV int 0 Pack table {BoxFrameEdit bool fals
#ZOMPROPERTIES_04 e Behavior string "Free" Locked bool false Scaling table {Optimization string "Fill" } } Hotspot tab
#ZOMPROPERTIES_04 le {} } IsTile bool true PolyIDs ints { 4 2 5 3 0 1 } } } BBoxUV box3d 0 0 0 0 0 0 BBox3D box3d 0 0 
#ZOMPROPERTIES_04 0 0 0 0 Area3D double 0 AreaUV double 0 IsRoot bool true Properties table {Selected bool false Box b
#ZOMPROPERTIES_04 ox3d 0 1 0 1 0 1 U int 0 V int 0 NU int 1 NV int 1 Pack table {Rotate table {Initial string "Automat
#ZOMPROPERTIES_04 ic" Min double 0 Max double 90 Step double 0 } ResolutionDivisor int 0 MapResolution int 2048 UsePix
#ZOMPROPERTIES_04 elUnit bool true PaddingSize double 0.0078125 MarginSize double 0.00390625 PaddingSizePx int 16 Marg
#ZOMPROPERTIES_04 inSizePx int 8 Scaling table {TexelDensity double 1024 Mode int 2 Optimization string "Fill" } MaxMu
#ZOMPROPERTIES_04 tations int 1 Strategy string "Efficient" Sides string "Closed" } Hotspot table {} Tiling vector3d 1
#ZOMPROPERTIES_04  1 1 TileRatioMode string "1:1" } IsTile bool false PolyIDs ints { } } Maps table {Pin CDataMap {Pri
#ZOMPROPERTIES_04 mType string "Vertex" Size int 1 DefaultValue double 0 ScaleType string "Normalized" MergeMode strin
#ZOMPROPERTIES_04 g "Max" MinValue double 0 MaxValue double 1 Data doubles { r 24 0 } } Density CDataMap {PrimType str
#ZOMPROPERTIES_04 ing "Polygon" Size int 1 DefaultValue double 1 ScaleType string "Log" MergeMode string "Average" Min
#ZOMPROPERTIES_04 Value double 0.1 MaxValue double 4 Data doubles { r 6 1 } } Protect CDataMap {PrimType string "Verte
#ZOMPROPERTIES_04 x" Size int 1 DefaultValue double 0 ScaleType string "Normalized" MergeMode string "Average" MinValu
#ZOMPROPERTIES_04 e double -1 MaxValue double 1 Data doubles { r 24 0 } } } } }
#ZOMPROPERTIES_04}


#ZOMSCENE_01{
#ZOMSCENE_01 CScene {Settings table {AxisSystem table {UpVector string "y" } Unit string "cm" TexelDensityDisplay
#ZOMSCENE_01 Unit string "tx/cm" } Root CXForm {WALL CPrim {PolyRange table {Low int 0 High int 5 } } } }
#ZOMSCENE_01}

#begin 0 fatal error vertex (that RizomUV cannot handle)
#end 0 fatal error vertex (that RizomUV cannot handle)

#begin 0 error vertex
#end 0 error vertex
