#File written by RizomUV 2025.0.96.gd7fd59ee. Compilation :Sep 15 2025,14:05:29
mtllib 天花板.mtl
#begin vertices
v 0.8289 3.3001 8.4569
v 0.8289 3.3001 -3.8776
v 1.7646 3.3001 -3.8776
v 1.7646 3.3001 8.4569
v 1.7646 3.4104 8.4569
v 0.8289 3.4104 8.4569
v 1.7646 3.4104 -3.8776
v 0.8289 3.4104 -3.8776
v -0.716 3.3001 -3.8776
v -0.716 3.4104 -3.8776
v -0.3679 3.4104 -3.8776
v -0.3679 3.3001 -3.8776
v -0.3679 3.3001 8.4569
v -0.716 3.3001 8.4569
v -2.8484 3.3001 -3.8776
v -2.8484 3.4104 -3.8776
v -0.716 3.4104 8.4569
v -0.3679 3.4104 8.4569
v -2.8484 3.3001 8.4569
v -2.8484 3.4104 8.4569
v 3.3094 3.3001 -3.8776
v 3.3094 3.3001 8.4569
v 3.3094 3.4104 -3.8776
v 3.3094 3.4104 8.4569
#end vertices

#begin 72 textures vertices 
vt 0.4391466 0.84285 0
vt 0.4391466 0.003906303 0
vt 0.5027892 0.003906303 0
vt 0.5027892 0.84285 0
vt 0.9960938 0.8743217 0
vt 0.9324512 0.8743217 0
vt 0.6560537 0.84285 0
vt 0.5924111 0.84285 0
vt 0.02758263 0.8825895 0
vt 0.02758263 0.8900917 0
vt 0.00390625 0.8900917 0
vt 0.00390625 0.8825895 0
vt 0.3495394 0.84285 0
vt 0.325863 0.84285 0
vt 0.17262 0.8825895 0
vt 0.17262 0.8900917 0
vt 0.1489436 0.003906306 0
vt 0.17262 0.003906306 0
vt 0.1808256 0.84285 0
vt 0.84285 0.8585517 0
vt 0.769345 0.003906291 0
vt 0.769345 0.84285 0
vt 0.4710917 0.8900917 0
vt 0.003906301 0.8743217 0
vt 0.6642738 0.84285 0
vt 0.9960938 0.8668195 0
vt 0.3577451 0.8825895 0
vt 0.9324512 0.8668195 0
vt 0.9146922 0.8510496 0
vt 0.8510496 0.8510496 0
vt 0.6642738 0.003906291 0
vt 0.5761628 0.8825895 0
vt 0.3577451 0.8900917 0
vt 0.6560537 0.00390625 0
vt 0.7776206 0.003906291 0
vt 0.5924111 0.00390625 0
vt 0.7776206 0.84285 0
vt 0.5761628 0.8900917 0
vt 0.8510496 0.8585517 0
vt 0.9146922 0.8585517 0
vt 0.9960937 0.8510496 0
vt 0.3495394 0.003906306 0
vt 0.357745 0.003906303 0
vt 0.325863 0.003906306 0
vt 0.1489436 0.84285 0
vt 0.17262 0.84285 0
vt 0.9960937 0.8585517 0
vt 0.5110095 0.84285 0
vt 0.357745 0.84285 0
vt 0.8510496 0.8668195 0
vt 0.3495394 0.8825895 0
vt 0.325863 0.8825895 0
vt 0.1808256 0.003906306 0
vt 0.003906301 0.8510496 0
vt 0.003906301 0.8585517 0
vt 0.003906255 0.84285 0
vt 0.325863 0.8900917 0
vt 0.3495394 0.8900917 0
vt 0.5110095 0.00390625 0
vt 0.8510496 0.8743217 0
vt 0.1808256 0.8825895 0
vt 0.84285 0.8510496 0
vt 0.003906255 0.003906306 0
vt 0.1808256 0.8900917 0
vt 0.4710917 0.8825895 0
vt 0.84285 0.8668195 0
vt 0.003906301 0.8668195 0
vt 0.4628162 0.8825895 0
vt 0.84285 0.8743217 0
vt 0.8826918 0.84285 0
vt 0.8826918 0.003906291 0
vt 0.4628162 0.8900917 0
#end 72 textures vertices 

#begin 6 normals 
vn 0 -1 -0
vn 0 0 1
vn 0 1 -0
vn 0 0 -1
vn -1 0 -0
vn 1 0 -0
#end 6 normals 

#begin 22 faces
o 天花版
usemtl wire_122038083
g 天花版
s 2
f 1/1/1 2/2/1 3/3/1 4/4/1 
s 4
f 1/28/2 4/26/2 5/5/2 6/6/2 
s 2
f 5/34/3 7/7/3 8/8/3 6/36/3 
s 4
f 2/29/4 8/40/4 7/39/4 3/30/4 
f 9/9/4 10/10/4 11/11/4 12/12/4 
s 2
f 9/44/1 12/42/1 13/13/1 14/14/1 
s 4
f 9/9/4 15/15/4 16/16/4 10/10/4 
s 2
f 10/45/3 17/17/3 18/18/3 11/46/3 
s 4
f 2/29/4 12/41/4 11/47/4 8/40/4 
s 2
f 9/44/1 14/14/1 19/19/1 15/53/1 
f 1/1/1 13/49/1 12/43/1 2/2/1 
s 4
f 14/52/2 13/51/2 18/58/2 17/57/2 
s 1
f 15/54/5 19/62/5 20/20/5 16/55/5 
s 2
f 10/45/3 16/56/3 20/63/3 17/17/3 
f 6/36/3 8/8/3 11/48/3 18/59/3 
s 4
f 14/52/2 17/57/2 20/64/2 19/61/2 
f 1/28/2 6/6/2 18/60/2 13/50/2 
s 2
f 3/31/1 21/21/1 22/22/1 4/25/1 
s 4
f 3/32/4 7/38/4 23/23/4 21/65/4 
s 1
f 21/66/6 23/69/6 24/24/6 22/67/6 
s 4
f 4/27/2 22/68/2 24/72/2 5/33/2 
s 2
f 5/35/3 24/71/3 23/70/3 7/37/3 
#end 22 faces

#ZOMPROPERTIES_04{
#ZOMPROPERTIES_04 table {Mesh table {SymPlane table {Point vector3d 0 0 0 Normal vector3d 1 0 0 Threshold double 0.01 
#ZOMPROPERTIES_04 Enabled bool false EdgeID int -1 SymEdgeID int -1 UPos double 0.5 LocalMode bool false } RootGroup C
#ZOMPROPERTIES_04 SubMeshGroup {Children table {Tile_0_0 CSubMeshGroup {Children table {} BBoxUV box3d 0 0 0 0 0 0 BBo
#ZOMPROPERTIES_04 x3D box3d 0 0 0 0 0 0 Area3D double 0 AreaUV double 0 IsRoot bool false Properties table {Selected b
#ZOMPROPERTIES_04 ool false Box box3d 0 1 0 1 0 1 U int 0 V int 0 NU int 0 NV int 0 Pack table {BoxFrameEdit bool fals
#ZOMPROPERTIES_04 e Behavior string "Free" Locked bool false Scaling table {Optimization string "Fill" } } Hotspot tab
#ZOMPROPERTIES_04 le {} } IsTile bool true PolyIDs ints { 18 20 3 8 1 16 11 15 4 6 12 19 17 21 0 10 2 14 7 13 5 9 } } 
#ZOMPROPERTIES_04 } BBoxUV box3d 0 0 0 0 0 0 BBox3D box3d 0 0 0 0 0 0 Area3D double 0 AreaUV double 0 IsRoot bool true
#ZOMPROPERTIES_04  Properties table {Selected bool false Box box3d 0 1 0 1 0 1 U int 0 V int 0 NU int 1 NV int 1 Pack 
#ZOMPROPERTIES_04 table {Rotate table {Initial string "Automatic" Min double 0 Max double 90 Step double 0 } Resolutio
#ZOMPROPERTIES_04 nDivisor int 0 MapResolution int 2048 UsePixelUnit bool true PaddingSize double 0.0078125 MarginSize
#ZOMPROPERTIES_04  double 0.00390625 PaddingSizePx int 16 MarginSizePx int 8 Scaling table {TexelDensity double 1024 M
#ZOMPROPERTIES_04 ode int 2 Optimization string "Fill" } MaxMutations int 1 Strategy string "Efficient" Sides string "
#ZOMPROPERTIES_04 Closed" } Hotspot table {} Tiling vector3d 1 1 1 TileRatioMode string "1:1" } IsTile bool false Poly
#ZOMPROPERTIES_04 IDs ints { } } Maps table {Pin CDataMap {PrimType string "Vertex" Size int 1 DefaultValue double 0 S
#ZOMPROPERTIES_04 caleType string "Normalized" MergeMode string "Max" MinValue double 0 MaxValue double 1 Data doubles
#ZOMPROPERTIES_04  { r 72 0 } } Density CDataMap {PrimType string "Polygon" Size int 1 DefaultValue double 1 ScaleType
#ZOMPROPERTIES_04  string "Log" MergeMode string "Average" MinValue double 0.1 MaxValue double 4 Data doubles { r 22 1
#ZOMPROPERTIES_04  } } Protect CDataMap {PrimType string "Vertex" Size int 1 DefaultValue double 0 ScaleType string "N
#ZOMPROPERTIES_04 ormalized" MergeMode string "Average" MinValue double -1 MaxValue double 1 Data doubles { r 72 0 } }
#ZOMPROPERTIES_04  } } }
#ZOMPROPERTIES_04}


#ZOMSCENE_01{
#ZOMSCENE_01 CScene {Settings table {AxisSystem table {UpVector string "y" } Unit string "cm" TexelDensityDisplay
#ZOMSCENE_01 Unit string "tx/cm" } Root CXForm {天花版 CPrim {PolyRange table {Low int 0 High int 21 } } } }
#ZOMSCENE_01}

#begin 0 fatal error vertex (that RizomUV cannot handle)
#end 0 fatal error vertex (that RizomUV cannot handle)

#begin 0 error vertex
#end 0 error vertex
