#File written by RizomUV 2025.0.96.gd7fd59ee. Compilation :Sep 15 2025,14:05:29
mtllib Tree.mtl
#begin vertices
v 0.7266 4.2894 0.449
v 0.5932 4.2894 0.635
v 0.4195 4.2894 0.7777
v 0.839 4.2894 -0
v 0.2171 4.2894 0.8674
v 0 4.2894 0.898
v -0.4195 4.2894 0.7777
v -0.2171 4.2894 0.8674
v -0.5932 4.2894 0.635
v -0.7266 4.2894 0.449
v -0.839 4.2894 -0
v -0.8104 4.2894 0.2324
v -0.8104 4.2894 -0.2324
v -0.7266 4.2894 -0.449
v -0.4195 4.2894 -0.7777
v -0.5932 4.2894 -0.635
v -0.2171 4.2894 -0.8674
v 0 4.2894 -0.898
v 0.4195 4.2894 -0.7777
v 0.2171 4.2894 -0.8674
v 0.5932 4.2894 -0.635
v 0.7266 4.2894 -0.449
v 0.8104 4.2894 -0.2324
v 0.8104 4.2894 0.2324
v 0.666 4.8274 -0.191
v 0.6895 4.8274 -0
v 0.5971 4.8274 -0.369
v 0.4876 4.8274 -0.5219
v 0.3448 4.8274 -0.6391
v 0.1785 4.8274 -0.7129
v 0 4.8274 -0.738
v -0.1785 4.8274 -0.7129
v -0.3448 4.8274 -0.6391
v -0.4876 4.8274 -0.5219
v -0.5971 4.8274 -0.369
v -0.666 4.8274 -0.191
v -0.6895 4.8274 -0
v -0.666 4.8274 0.191
v -0.5971 4.8274 0.369
v -0.4876 4.8274 0.5219
v -0.3448 4.8274 0.6391
v -0.1785 4.8274 0.7129
v 0 4.8274 0.738
v 0.1785 4.8274 0.7129
v 0.3448 4.8274 0.6391
v 0.4876 4.8274 0.5219
v 0.5971 4.8274 0.369
v 0.666 4.8274 0.191
v 0.5217 5.3654 -0.1496
v 0.5401 5.3654 -0
v 0.4677 5.3654 -0.289
v 0.3819 5.3654 -0.4088
v 0.27 5.3654 -0.5006
v 0.1398 5.3654 -0.5584
v 0 5.3654 -0.5781
v -0.1398 5.3654 -0.5584
v -0.27 5.3654 -0.5006
v -0.3819 5.3654 -0.4088
v -0.4677 5.3654 -0.289
v -0.5217 5.3654 -0.1496
v -0.5401 5.3654 -0
v -0.5217 5.3654 0.1496
v -0.4677 5.3654 0.289
v -0.3819 5.3654 0.4088
v -0.27 5.3654 0.5006
v -0.1398 5.3654 0.5584
v 0 5.3654 0.5781
v 0.1398 5.3654 0.5584
v 0.27 5.3654 0.5006
v 0.3819 5.3654 0.4088
v 0.4677 5.3654 0.289
v 0.5217 5.3654 0.1496
v 0.3773 5.9033 -0.1082
v 0.3906 5.9033 -0
v 0.3383 5.9033 -0.2091
v 0.2762 5.9033 -0.2957
v 0.1953 5.9033 -0.3621
v 0.1011 5.9033 -0.4039
v 0 5.9033 -0.4181
v -0.1011 5.9033 -0.4039
v -0.1953 5.9033 -0.3621
v -0.2762 5.9033 -0.2957
v -0.3383 5.9033 -0.2091
v -0.3773 5.9033 -0.1082
v -0.3906 5.9033 -0
v -0.3773 5.9033 0.1082
v -0.3383 5.9033 0.2091
v -0.2762 5.9033 0.2957
v -0.1953 5.9033 0.3621
v -0.1011 5.9033 0.4039
v 0 5.9033 0.4181
v 0.1011 5.9033 0.4039
v 0.1953 5.9033 0.3621
v 0.2762 5.9033 0.2957
v 0.3383 5.9033 0.2091
v 0.3773 5.9033 0.1082
v 0.233 6.4413 -0.0668
v 0.2412 6.4413 -0
v 0.2089 6.4413 -0.1291
v 0.1706 6.4413 -0.1826
v 0.1206 6.4413 -0.2236
v 0.0624 6.4413 -0.2494
v 0 6.4413 -0.2582
v -0.0624 6.4413 -0.2494
v -0.1206 6.4413 -0.2236
v -0.1706 6.4413 -0.1826
v -0.2089 6.4413 -0.1291
v -0.233 6.4413 -0.0668
v -0.2412 6.4413 -0
v -0.233 6.4413 0.0668
v -0.2089 6.4413 0.1291
v -0.1706 6.4413 0.1826
v -0.1206 6.4413 0.2236
v -0.0624 6.4413 0.2494
v 0 6.4413 0.2582
v 0.0624 6.4413 0.2494
v 0.1206 6.4413 0.2236
v 0.1706 6.4413 0.1826
v 0.2089 6.4413 0.1291
v 0.233 6.4413 0.0668
v 0.0886 6.9793 -0.0254
v 0.0918 6.9793 -0
v 0.0795 6.9793 -0.0491
v 0.0649 6.9793 -0.0695
v 0.0459 6.9793 -0.0851
v 0.0238 6.9793 -0.0949
v 0 6.9793 -0.0982
v -0.0238 6.9793 -0.0949
v -0.0459 6.9793 -0.0851
v -0.0649 6.9793 -0.0695
v -0.0795 6.9793 -0.0491
v -0.0886 6.9793 -0.0254
v -0.0918 6.9793 -0
v -0.0886 6.9793 0.0254
v -0.0795 6.9793 0.0491
v -0.0649 6.9793 0.0695
v -0.0459 6.9793 0.0851
v -0.0238 6.9793 0.0949
v 0 6.9793 0.0982
v 0.0238 6.9793 0.0949
v 0.0459 6.9793 0.0851
v 0.0649 6.9793 0.0695
v 0.0795 6.9793 0.0491
v 0.0886 6.9793 0.0254
v 1.0851 1.628 0.6705
v 0.8859 1.628 0.9483
v 0.6265 1.628 1.1614
v 1.2529 1.628 -0
v 0.3243 1.628 1.2954
v 0 1.628 1.341
v -0.6265 1.628 1.1614
v -0.3243 1.628 1.2954
v -0.8859 1.628 0.9483
v -1.0851 1.628 0.6705
v -1.2529 1.628 -0
v -1.2102 1.628 0.3471
v -1.2102 1.628 -0.3471
v -1.0851 1.628 -0.6705
v -0.6265 1.628 -1.1614
v -0.8859 1.628 -0.9483
v -0.3243 1.628 -1.2954
v 0 1.628 -1.341
v 0.6265 1.628 -1.1614
v 0.3243 1.628 -1.2954
v 0.8859 1.628 -0.9483
v 1.0851 1.628 -0.6705
v 1.2102 1.628 -0.3471
v 1.2102 1.628 0.3471
v 0.9947 2.4315 -0.2853
v 1.0297 2.4315 -0
v 0.8918 2.4315 -0.5511
v 0.7281 2.4315 -0.7794
v 0.5149 2.4315 -0.9545
v 0.2665 2.4315 -1.0646
v 0 2.4315 -1.1022
v -0.2665 2.4315 -1.0646
v -0.5149 2.4315 -0.9545
v -0.7281 2.4315 -0.7794
v -0.8918 2.4315 -0.5511
v -0.9947 2.4315 -0.2853
v -1.0297 2.4315 -0
v -0.9947 2.4315 0.2853
v -0.8918 2.4315 0.5511
v -0.7281 2.4315 0.7794
v -0.5149 2.4315 0.9545
v -0.2665 2.4315 1.0646
v 0 2.4315 1.1022
v 0.2665 2.4315 1.0646
v 0.5149 2.4315 0.9545
v 0.7281 2.4315 0.7794
v 0.8918 2.4315 0.5511
v 0.9947 2.4315 0.2853
v 0.7791 3.2349 -0.2234
v 0.8066 3.2349 -0
v 0.6985 3.2349 -0.4317
v 0.5703 3.2349 -0.6104
v 0.4033 3.2349 -0.7476
v 0.2088 3.2349 -0.8339
v 0 3.2349 -0.8633
v -0.2088 3.2349 -0.8339
v -0.4033 3.2349 -0.7476
v -0.5703 3.2349 -0.6104
v -0.6985 3.2349 -0.4317
v -0.7791 3.2349 -0.2234
v -0.8066 3.2349 -0
v -0.7791 3.2349 0.2234
v -0.6985 3.2349 0.4317
v -0.5703 3.2349 0.6104
v -0.4033 3.2349 0.7476
v -0.2088 3.2349 0.8339
v 0 3.2349 0.8633
v 0.2088 3.2349 0.8339
v 0.4033 3.2349 0.7476
v 0.5703 3.2349 0.6104
v 0.6985 3.2349 0.4317
v 0.7791 3.2349 0.2234
v 0.5635 4.0383 -0.1616
v 0.5834 4.0383 -0
v 0.5052 4.0383 -0.3122
v 0.4125 4.0383 -0.4415
v 0.2917 4.0383 -0.5408
v 0.151 4.0383 -0.6032
v 0 4.0383 -0.6244
v -0.151 4.0383 -0.6032
v -0.2917 4.0383 -0.5408
v -0.4125 4.0383 -0.4415
v -0.5052 4.0383 -0.3122
v -0.5635 4.0383 -0.1616
v -0.5834 4.0383 -0
v -0.5635 4.0383 0.1616
v -0.5052 4.0383 0.3122
v -0.4125 4.0383 0.4415
v -0.2917 4.0383 0.5408
v -0.151 4.0383 0.6032
v 0 4.0383 0.6244
v 0.151 4.0383 0.6032
v 0.2917 4.0383 0.5408
v 0.4125 4.0383 0.4415
v 0.5052 4.0383 0.3122
v 0.5635 4.0383 0.1616
v 0.3479 4.8417 -0.0998
v 0.3602 4.8417 -0
v 0.312 4.8417 -0.1928
v 0.2547 4.8417 -0.2726
v 0.1801 4.8417 -0.3339
v 0.0932 4.8417 -0.3724
v 0 4.8417 -0.3856
v -0.0932 4.8417 -0.3724
v -0.1801 4.8417 -0.3339
v -0.2547 4.8417 -0.2726
v -0.312 4.8417 -0.1928
v -0.3479 4.8417 -0.0998
v -0.3602 4.8417 -0
v -0.3479 4.8417 0.0998
v -0.312 4.8417 0.1928
v -0.2547 4.8417 0.2726
v -0.1801 4.8417 0.3339
v -0.0932 4.8417 0.3724
v 0 4.8417 0.3856
v 0.0932 4.8417 0.3724
v 0.1801 4.8417 0.3339
v 0.2547 4.8417 0.2726
v 0.312 4.8417 0.1928
v 0.3479 4.8417 0.0998
v 0.1324 5.6451 -0.038
v 0.1371 5.6451 -0
v 0.1187 5.6451 -0.0733
v 0.0969 5.6451 -0.1037
v 0.0685 5.6451 -0.127
v 0.0355 5.6451 -0.1417
v 0 5.6451 -0.1467
v -0.0355 5.6451 -0.1417
v -0.0685 5.6451 -0.127
v -0.0969 5.6451 -0.1037
v -0.1187 5.6451 -0.0733
v -0.1324 5.6451 -0.038
v -0.1371 5.6451 -0
v -0.1324 5.6451 0.038
v -0.1187 5.6451 0.0733
v -0.0969 5.6451 0.1037
v -0.0685 5.6451 0.127
v -0.0355 5.6451 0.1417
v 0 5.6451 0.1467
v 0.0355 5.6451 0.1417
v 0.0685 5.6451 0.127
v 0.0969 5.6451 0.1037
v 0.1187 5.6451 0.0733
v 0.1324 5.6451 0.038
v 0.35 0 -0.0819
v 0.35 0.5819 -0.0819
v 0.3721 0.5819 0.0525
v 0.3721 0 0.0525
v 0.2862 0 -0.2002
v 0.2862 0.5819 -0.2002
v 0.1885 0 -0.288
v 0.1885 0.5819 -0.288
v 0.0686 0 -0.3347
v 0.0686 0.5819 -0.3347
v -0.059 0 -0.3347
v -0.059 0.5819 -0.3347
v -0.1789 0 -0.288
v -0.1789 0.5819 -0.288
v -0.2766 0 -0.2002
v -0.2766 0.5819 -0.2002
v -0.3404 0 -0.0819
v -0.3404 0.5819 -0.0819
v -0.3625 0 0.0525
v -0.3625 0.5819 0.0525
v -0.3404 0 0.187
v -0.3404 0.5819 0.187
v -0.2766 0 0.3052
v -0.2766 0.5819 0.3052
v -0.1789 0 0.393
v -0.1789 0.5819 0.393
v -0.059 0 0.4397
v -0.059 0.5819 0.4397
v 0.0686 0 0.4397
v 0.0686 0.5819 0.4397
v 0.1885 0 0.393
v 0.1885 0.5819 0.393
v 0.2862 0 0.3052
v 0.2862 0.5819 0.3052
v 0.35 0 0.187
v 0.35 0.5819 0.187
v 0.35 1.7457 -0.0819
v 0.3721 1.7457 0.0525
v 0.2862 1.7457 -0.2002
v 0.1885 1.7457 -0.288
v 0.0686 1.7457 -0.3347
v -0.059 1.7457 -0.3347
v -0.1789 1.7457 -0.288
v -0.2766 1.7457 -0.2002
v -0.3404 1.7457 -0.0819
v -0.3625 1.7457 0.0525
v -0.3404 1.7457 0.187
v -0.2766 1.7457 0.3052
v -0.1789 1.7457 0.393
v -0.059 1.7457 0.4397
v 0.0686 1.7457 0.4397
v 0.1885 1.7457 0.393
v 0.2862 1.7457 0.3052
v 0.35 1.7457 0.187
v 1.7391 0.8395 -1.4263
v 1.7391 0.8395 -2.4171
v -1.5593 0.8395 -2.4171
v -1.5593 0.8395 -1.4263
v 1.7391 0.0058 -1.4263
v -1.5593 0.0058 -1.4263
v 1.7391 0.0058 -2.4171
v -1.5593 0.0058 -2.4171
v -1.5587 1.0241 1.5455
v -1.5587 1.0241 -1.4578
v -2.2284 1.0241 -1.4578
v -2.2284 1.0241 1.5455
v -1.5587 0.0058 1.5455
v -2.2284 0.0058 1.5455
v -1.5587 0.0058 -1.4578
v -2.2284 0.0058 -1.4578
v 1.7391 0.8395 2.4962
v 1.7391 0.8395 1.5054
v -1.5593 0.8395 1.5054
v -1.5593 0.8395 2.4962
v 1.7391 0.0058 2.4962
v -1.5593 0.0058 2.4962
v 1.7391 0.0058 1.5054
v -1.5593 0.0058 1.5054
v 2.366 1.0241 1.5455
v 2.366 1.0241 -1.4578
v 1.6963 1.0241 -1.4578
v 1.6963 1.0241 1.5455
v 2.366 0.0058 1.5455
v 1.6963 0.0058 1.5455
v 2.366 0.0058 -1.4578
v 1.6963 0.0058 -1.4578
#end vertices

#begin 503 textures vertices 
vt 0.5176687 0.4494041 0
vt 0.5113558 0.4312124 0
vt 0.5099532 0.4123456 0
vt 0.5430124 0.4789157 0
vt 0.5135665 0.3940684 0
vt 0.5219399 0.3776318 0
vt 0.5504219 0.3545109 0
vt 0.5345091 0.364144 0
vt 0.568586 0.3493957 0
vt 0.5877771 0.3491282 0
vt 0.6239994 0.3628851 0
vt 0.6066764 0.3537341 0
vt 0.6385685 0.3759409 0
vt 0.6493946 0.3920209 0
vt 0.65716 0.4287148 0
vt 0.6557326 0.4100286 0
vt 0.6514682 0.4479423 0
vt 0.6414066 0.4643035 0
vt 0.6119544 0.4815439 0
vt 0.6271604 0.4750431 0
vt 0.5962645 0.4864123 0
vt 0.5799611 0.4874455 0
vt 0.5624543 0.4851332 0
vt 0.5284691 0.4656711 0
vt 0.5692236 0.5292342 0
vt 0.5536564 0.5307795 0
vt 0.5857309 0.5276589 0
vt 0.6019621 0.5255182 0
vt 0.6175795 0.5228814 0
vt 0.6327811 0.5201993 0
vt 0.6481564 0.518294 0
vt 0.3967099 0.7218971 0
vt 0.3984279 0.7067272 0
vt 0.4013258 0.6914859 0
vt 0.4053847 0.6762106 0
vt 0.4105524 0.6610138 0
vt 0.416763 0.6460603 0
vt 0.4239403 0.6315373 0
vt 0.432003 0.6176373 0
vt 0.440865 0.6045192 0
vt 0.4504772 0.5923065 0
vt 0.4608249 0.5810515 0
vt 0.4719019 0.570759 0
vt 0.4837375 0.5614284 0
vt 0.4963643 0.5530586 0
vt 0.5097561 0.5456753 0
vt 0.5238547 0.5393652 0
vt 0.5385338 0.5342982 0
vt 0.580053 0.5730265 0
vt 0.5675046 0.5756868 0
vt 0.5928183 0.5709348 0
vt 0.6055735 0.5693172 0
vt 0.6181263 0.5682044 0
vt 0.6303931 0.5677228 0
vt 0.6423708 0.5680795 0
vt 0.44373 0.7251928 0
vt 0.4450628 0.7133266 0
vt 0.4473202 0.701405 0
vt 0.4504888 0.6894653 0
vt 0.4545236 0.6776023 0
vt 0.4593774 0.6659425 0
vt 0.4649813 0.6546306 0
vt 0.4712736 0.6438171 0
vt 0.4781927 0.6336242 0
vt 0.4856981 0.6241525 0
vt 0.4937716 0.6154425 0
vt 0.5024345 0.6075021 0
vt 0.5117233 0.6003279 0
vt 0.5216575 0.5939029 0
vt 0.5322479 0.5882153 0
vt 0.5434724 0.5832805 0
vt 0.5552547 0.5791082 0
vt 0.5899246 0.6177269 0
vt 0.580861 0.619889 0
vt 0.5990575 0.616103 0
vt 0.6081394 0.615035 0
vt 0.6170826 0.6145445 0
vt 0.6258471 0.6146612 0
vt 0.6344201 0.6154281 0
vt 0.4908919 0.7285647 0
vt 0.4918421 0.7199882 0
vt 0.4934651 0.711381 0
vt 0.4957488 0.7027645 0
vt 0.4986675 0.6942038 0
vt 0.5021791 0.685797 0
vt 0.5062369 0.6776453 0
vt 0.510798 0.6698499 0
vt 0.5158184 0.6625079 0
vt 0.5212677 0.6556822 0
vt 0.5271403 0.6493965 0
vt 0.533448 0.6436583 0
vt 0.5402161 0.6384468 0
vt 0.5474665 0.6337447 0
vt 0.5551979 0.6295366 0
vt 0.56339 0.6258182 0
vt 0.5719789 0.6225981 0
vt 0.5991151 0.6629726 0
vt 0.5935444 0.6643435 0
vt 0.6047238 0.661979 0
vt 0.6103035 0.6613817 0
vt 0.6158019 0.6611955 0
vt 0.6211863 0.6614238 0
vt 0.6264394 0.6620667 0
vt 0.5382018 0.7318597 0
vt 0.5387741 0.7265629 0
vt 0.5397648 0.721247 0
vt 0.541167 0.7159291 0
vt 0.5429624 0.7106439 0
vt 0.5451259 0.7054539 0
vt 0.547628 0.7004192 0
vt 0.5504435 0.6955998 0
vt 0.5535416 0.6910551 0
vt 0.5569085 0.6868213 0
vt 0.5605356 0.6829141 0
vt 0.564426 0.6793382 0
vt 0.5685981 0.6760801 0
vt 0.5730656 0.6731241 0
vt 0.5778234 0.6704654 0
vt 0.5828535 0.6681087 0
vt 0.5881159 0.6660612 0
vt 0.6081171 0.7078108 0
vt 0.6061962 0.7086157 0
vt 0.6101261 0.7073554 0
vt 0.6121385 0.7070702 0
vt 0.6141392 0.7071546 0
vt 0.6160819 0.7076262 0
vt 0.6179199 0.7085155 0
vt 0.5854741 0.7348523 0
vt 0.585688 0.7328412 0
vt 0.5860618 0.7308205 0
vt 0.5865938 0.7287934 0
vt 0.5872751 0.7267855 0
vt 0.5880942 0.7248107 0
vt 0.589046 0.7228965 0
vt 0.5901132 0.7210641 0
vt 0.5912926 0.7193309 0
vt 0.5925704 0.7177201 0
vt 0.5939452 0.7162351 0
vt 0.5954263 0.7148709 0
vt 0.597012 0.7136251 0
vt 0.5987033 0.7125001 0
vt 0.6005061 0.7114871 0
vt 0.6024166 0.7105867 0
vt 0.604409 0.7098088 0
vt 0.256464 0.152731 0
vt 0.2472907 0.1254726 0
vt 0.2454625 0.09727419 0
vt 0.2938915 0.1971548 0
vt 0.2511101 0.07002693 0
vt 0.2638576 0.0455905 0
vt 0.3067192 0.01143989 0
vt 0.282817 0.02560565 0
vt 0.3339212 0.00404497 0
vt 0.3625922 0.00390625 0
vt 0.4165057 0.02493867 0
vt 0.3907527 0.01103832 0
vt 0.4380953 0.04462988 0
vt 0.4540482 0.0687786 0
vt 0.4651611 0.123669 0
vt 0.4632776 0.09575121 0
vt 0.4564088 0.1523037 0
vt 0.4411554 0.176592 0
vt 0.3969267 0.2019142 0
vt 0.4197339 0.1924291 0
vt 0.3734108 0.2089765 0
vt 0.3490306 0.2103105 0
vt 0.3228981 0.2066548 0
vt 0.2723597 0.1771702 0
vt 0.3325609 0.2724561 0
vt 0.3093465 0.2747243 0
vt 0.3571444 0.2703271 0
vt 0.3814132 0.2673837 0
vt 0.4048394 0.2636966 0
vt 0.4277109 0.2599454 0
vt 0.4506819 0.2573001 0
vt 0.07493757 0.5605144 0
vt 0.07747244 0.5378517 0
vt 0.08177485 0.5150788 0
vt 0.08780884 0.4922445 0
vt 0.09550256 0.4695316 0
vt 0.1047632 0.4471735 0
vt 0.1154619 0.4254518 0
vt 0.1274785 0.4046634 0
vt 0.1406992 0.3850364 0
vt 0.1550353 0.3667617 0
vt 0.1704738 0.3499215 0
vt 0.1870097 0.3345191 0
vt 0.2047028 0.3205636 0
vt 0.2235842 0.308041 0
vt 0.2436193 0.2970034 0
vt 0.2647224 0.2875688 0
vt 0.2866968 0.2799987 0
vt 0.3484085 0.3382438 0
vt 0.3296634 0.3421069 0
vt 0.3675189 0.3351019 0
vt 0.3865323 0.3326682 0
vt 0.4052053 0.3310007 0
vt 0.4234167 0.3303161 0
vt 0.4413094 0.330984 0
vt 0.1451622 0.5653612 0
vt 0.1471237 0.547631 0
vt 0.1504706 0.5298205 0
vt 0.1551686 0.5119869 0
vt 0.1611721 0.4942474 0
vt 0.1683929 0.4768154 0
vt 0.1767401 0.459904 0
vt 0.1861259 0.4437314 0
vt 0.1964452 0.4285056 0
vt 0.2076435 0.4143466 0
vt 0.2197034 0.4013282 0
vt 0.2326349 0.3894567 0
vt 0.2464921 0.3787256 0
vt 0.2613168 0.3691179 0
vt 0.2771179 0.3606275 0
vt 0.2938487 0.3532755 0
vt 0.3114217 0.3470955 0
vt 0.3631525 0.4048966 0
vt 0.3496228 0.4081044 0
vt 0.3767744 0.4024465 0
vt 0.3903085 0.4008187 0
vt 0.4036341 0.4000517 0
vt 0.41668 0.4002027 0
vt 0.4294791 0.4013463 0
vt 0.215609 0.5703374 0
vt 0.216999 0.5575277 0
vt 0.2193987 0.5446656 0
vt 0.2227802 0.5317972 0
vt 0.2271069 0.5190108 0
vt 0.2323253 0.5064489 0
vt 0.238367 0.4942678 0
vt 0.2451652 0.4826246 0
vt 0.2526483 0.4716566 0
vt 0.2607774 0.4614501 0
vt 0.2695388 0.4520567 0
vt 0.2789438 0.4434821 0
vt 0.2890294 0.4356986 0
vt 0.2998345 0.4286804 0
vt 0.3113641 0.4224073 0
vt 0.3235717 0.4168776 0
vt 0.3363721 0.412103 0
vt 0.3769884 0.4723004 0
vt 0.3686703 0.4743535 0
vt 0.3853538 0.4708059 0
vt 0.3936813 0.4699042 0
vt 0.4018889 0.4696084 0
vt 0.4099263 0.4699324 0
vt 0.4177747 0.470872 0
vt 0.2862538 0.5751869 0
vt 0.2870904 0.5672785 0
vt 0.2885549 0.5593402 0
vt 0.2906284 0.5513983 0
vt 0.2932924 0.5435106 0
vt 0.2965078 0.5357548 0
vt 0.3002315 0.528232 0
vt 0.3044171 0.5210381 0
vt 0.3090318 0.5142532 0
vt 0.3140448 0.5079288 0
vt 0.3194484 0.5020951 0
vt 0.3252471 0.4967521 0
vt 0.3314686 0.4918861 0
vt 0.3381273 0.4874722 0
vt 0.3452226 0.4835039 0
vt 0.3527217 0.479981 0
vt 0.3605669 0.4769247 0
vt 0.3905807 0.5391574 0
vt 0.3877154 0.5403833 0
vt 0.3935747 0.5384863 0
vt 0.3965749 0.5380547 0
vt 0.3995653 0.5381734 0
vt 0.4024708 0.5388667 0
vt 0.4052181 0.5401808 0
vt 0.3568516 0.5795787 0
vt 0.3571661 0.5765736 0
vt 0.357718 0.5735541 0
vt 0.3585041 0.570531 0
vt 0.359511 0.5675352 0
vt 0.3607317 0.5645822 0
vt 0.3621475 0.5617183 0
vt 0.3637362 0.5589865 0
vt 0.3654902 0.556402 0
vt 0.3673948 0.5539947 0
vt 0.3694436 0.5517738 0
vt 0.3716479 0.549736 0
vt 0.3740111 0.5478768 0
vt 0.3765358 0.5461946 0
vt 0.3792264 0.544678 0
vt 0.3820723 0.5433313 0
vt 0.3850407 0.5421645 0
vt 0.1694242 0.003906258 0
vt 0.1694242 0.05246803 0
vt 0.1580574 0.05246803 0
vt 0.1580574 0.003906258 0
vt 0.180641 0.003906258 0
vt 0.180641 0.05246803 0
vt 0.1916031 0.003906258 0
vt 0.1916031 0.05246803 0
vt 0.00390625 0.003906258 0
vt 0.2023414 0.05246803 0
vt 0.01455496 0.003906258 0
vt 0.01455496 0.05246803 0
vt 0.02529326 0.003906258 0
vt 0.02529326 0.05246803 0
vt 0.03625533 0.003906258 0
vt 0.03625533 0.05246803 0
vt 0.04747213 0.003906258 0
vt 0.04747213 0.05246803 0
vt 0.05883895 0.003906258 0
vt 0.05883895 0.05246803 0
vt 0.070214 0.003906258 0
vt 0.070214 0.05246803 0
vt 0.08142346 0.003906258 0
vt 0.08142346 0.05246803 0
vt 0.09238553 0.003906258 0
vt 0.09238553 0.05246803 0
vt 0.1031238 0.003906258 0
vt 0.1031238 0.05246803 0
vt 0.1137725 0.003906258 0
vt 0.1137725 0.05246803 0
vt 0.1245108 0.003906258 0
vt 0.1245108 0.05246803 0
vt 0.1354729 0.003906258 0
vt 0.1354729 0.05246803 0
vt 0.1466824 0.003906258 0
vt 0.1466824 0.05246803 0
vt 0.1694242 0.1495916 0
vt 0.1580574 0.1495916 0
vt 0.180641 0.1495916 0
vt 0.1916031 0.1495916 0
vt 0.2023414 0.1495916 0
vt 0.01455496 0.1495916 0
vt 0.02529326 0.1495916 0
vt 0.03625533 0.1495916 0
vt 0.04747213 0.1495916 0
vt 0.05883895 0.1495916 0
vt 0.070214 0.1495916 0
vt 0.08142346 0.1495916 0
vt 0.09238553 0.1495916 0
vt 0.1031238 0.1495916 0
vt 0.1137725 0.1495916 0
vt 0.1245108 0.1495916 0
vt 0.1354729 0.1495916 0
vt 0.1466824 0.1495916 0
vt 0.7341217 0.169252 0
vt 0.7341217 0.251938 0
vt 0.4588576 0.251938 0
vt 0.4588576 0.169252 0
vt 0.003906292 0.1577279 0
vt 0.06102576 0.5911342 0
vt 0.4578556 0.2714658 0
vt 0.09509701 0.1577279 0
vt 0.262948 0.9194334 0
vt 0.262948 0.6687966 0
vt 0.318837 0.6687966 0
vt 0.318837 0.9194334 0
vt 0.003906299 0.6687966 0
vt 0.5112394 0.830438 0
vt 0.4471053 0.830438 0
vt 0.6562705 0.4613629 0
vt 0.7461468 0.003906269 0
vt 0.7461468 0.0865923 0
vt 0.4708828 0.0865923 0
vt 0.4708828 0.003906269 0
vt 0.003906299 0.2353903 0
vt 0.6397358 0.6392348 0
vt 0.6522621 0.5605703 0
vt 0.7414486 0.2599417 0
vt 0.3829711 0.7454569 0
vt 0.3829711 0.9960938 0
vt 0.3270821 0.9960938 0
vt 0.3270821 0.7454569 0
vt 0.6277108 0.7168972 0
vt 0.7424507 0.09459591 0
vt 0.4947047 0.4862181 0
vt 0.6652894 0.3491282 0
vt 0.6082164 0.7215885 0
vt 0.4037796 0.5755969 0
vt 0.6194847 0.712163 0
vt 0.506441 0.4936511 0
vt 0.6194757 0.7142335 0
vt 0.4888911 0.5022697 0
vt 0.6189199 0.7162889 0
vt 0.4722399 0.5118378 0
vt 0.6163606 0.7197841 0
vt 0.4565813 0.5224097 0
vt 0.6145137 0.7209863 0
vt 0.4419415 0.5340207 0
vt 0.6103019 0.7219261 0
vt 0.4282785 0.5467279 0
vt 0.1446042 0.5830247 0
vt 0.6124513 0.7217214 0
vt 0.4155697 0.5606022 0
vt 0.6063291 0.7207361 0
vt 0.3929175 0.5916607 0
vt 0.6036099 0.7177404 0
vt 0.3830567 0.608653 0
vt 0.6047605 0.7194194 0
vt 0.3742722 0.6263717 0
vt 0.6029639 0.7158125 0
vt 0.366678 0.6446041 0
vt 0.6028542 0.7137628 0
vt 0.3603649 0.6631231 0
vt 0.3554119 0.6817356 0
vt 0.6032888 0.7117286 0
vt 0.4906263 0.7371133 0
vt 0.3518706 0.7002952 0
vt 0.2389452 0.2191799 0
vt 0.3497722 0.7187625 0
vt 0.2126151 0.2320805 0
vt 0.3491282 0.7371359 0
vt 0.1218531 0.2986733 0
vt 0.5246341 0.485924 0
vt 0.6178562 0.7181767 0
vt 0.2152419 0.5831041 0
vt 0.007933264 0.5283196 0
vt 0.3961906 0.7369997 0
vt 0.2860491 0.5830681 0
vt 0.4433367 0.7370182 0
vt 0.5380539 0.7371359 0
vt 0.5854231 0.736864 0
vt 0.618955 0.7102147 0
vt 0.1876557 0.24641 0
vt 0.1642041 0.2622424 0
vt 0.35678 0.5825801 0
vt 0.1422909 0.2796407 0
vt 0.1028711 0.319451 0
vt 0.08527105 0.3418975 0
vt 0.4067577 0.5517762 0
vt 0.06906654 0.3659367 0
vt 0.3829323 0.5511556 0
vt 0.05436691 0.3913485 0
vt 0.04127272 0.4178452 0
vt 0.02995652 0.4451034 0
vt 0.3971375 0.5599231 0
vt 0.02055815 0.4727757 0
vt 0.4075682 0.5456171 0
vt 0.01318969 0.5005903 0
vt 0.004831232 0.5559031 0
vt 0.003906273 0.5833505 0
vt 0.4029629 0.5570101 0
vt 0.2662576 0.2076257 0
vt 0.0741871 0.5830681 0
vt 0.4067683 0.5427101 0
vt 0.4075698 0.5487087 0
vt 0.4051943 0.5546024 0
vt 0.4002128 0.558825 0
vt 0.3939331 0.5602387 0
vt 0.3908141 0.5597459 0
vt 0.3879851 0.5584883 0
vt 0.3856307 0.5565378 0
vt 0.3839069 0.5540354 0
vt 0.3827521 0.5480917 0
vt 0.3833824 0.5450526 0
vt 0.2023414 0.003906258 0
vt 0.00390625 0.05246803 0
vt 0.00390625 0.1495916 0
vt 0.177783 0.2273034 0
vt 0.06102576 0.6607097 0
vt 0.3362898 0.6607097 0
vt 0.003906292 0.2273034 0
vt 0.08659232 0.2273034 0
vt 0.4578556 0.3410412 0
vt 0.7331196 0.3410412 0
vt 0.09509701 0.2273034 0
vt 0.3362898 0.5911342 0
vt 0.177783 0.1577279 0
vt 0.08659232 0.1577279 0
vt 0.7331196 0.2714658 0
vt 0.9069073 0.5463439 0
vt 0.5112394 0.745457 0
vt 0.4553504 0.745457 0
vt 0.003906299 0.7537776 0
vt 0.2545431 0.7537776 0
vt 0.4471053 0.745457 0
vt 0.3912163 0.745457 0
vt 0.6562705 0.5463439 0
vt 0.4553504 0.830438 0
vt 0.9069073 0.4613629 0
vt 0.2545431 0.6687966 0
vt 0.3912163 0.830438 0
vt 0.8241346 0.3295171 0
vt 0.6397358 0.7088102 0
vt 0.9149998 0.7088102 0
vt 0.003906299 0.3049658 0
vt 0.08659233 0.3049658 0
vt 0.6522621 0.6301458 0
vt 0.9275262 0.6301458 0
vt 0.7414486 0.3295171 0
vt 0.9149998 0.6392348 0
vt 0.8241346 0.2599417 0
vt 0.08659233 0.2353903 0
vt 0.9275262 0.5605703 0
vt 0.9159262 0.4341092 0
vt 0.7424507 0.1795769 0
vt 0.7983397 0.1795769 0
vt 0.6277108 0.8018782 0
vt 0.8783476 0.8018782 0
vt 0.4947047 0.4012371 0
vt 0.4388157 0.4012371 0
vt 0.6652894 0.4341092 0
vt 0.7983397 0.09459591 0
vt 0.9159262 0.3491282 0
vt 0.8783476 0.7168972 0
vt 0.4388157 0.4862181 0
#end 503 textures vertices 

#begin 98 normals 
vn 0.7196 -0.5744 0.3902
vn 0.598 -0.5717 0.5617
vn 0.4306 -0.5689 0.7006
vn 0.8168 -0.577 -0
vn 0.226 -0.5668 0.7923
vn 0 -0.566 0.8244
vn -0.4306 -0.5689 0.7006
vn -0.226 -0.5668 0.7923
vn -0.598 -0.5717 0.5617
vn -0.7196 -0.5744 0.3902
vn -0.8168 -0.577 -0
vn -0.7925 -0.5763 0.1994
vn -0.7925 -0.5763 -0.1994
vn -0.7196 -0.5744 -0.3902
vn -0.4306 -0.5689 -0.7006
vn -0.598 -0.5717 -0.5617
vn -0.226 -0.5668 -0.7923
vn 0 -0.566 -0.8244
vn 0.4306 -0.5689 -0.7006
vn 0.226 -0.5668 -0.7923
vn 0.598 -0.5717 -0.5617
vn 0.7196 -0.5744 -0.3902
vn 0.7925 -0.5763 -0.1994
vn 0.7925 -0.5763 0.1994
vn 0.9343 0.2687 -0.2344
vn 0.9635 0.2676 -0
vn 0.8466 0.2717 -0.4576
vn 0.7016 0.2759 -0.6569
vn 0.5038 0.2804 -0.8171
vn 0.2638 0.2837 -0.9219
vn 0 0.285 -0.9585
vn -0.2638 0.2837 -0.9219
vn -0.5038 0.2804 -0.8171
vn -0.7016 0.2759 -0.6569
vn -0.8466 0.2717 -0.4576
vn -0.9343 0.2687 -0.2344
vn -0.9635 0.2676 -0
vn -0.9343 0.2687 0.2344
vn -0.8466 0.2717 0.4576
vn -0.7016 0.2759 0.6569
vn -0.5038 0.2804 0.8171
vn -0.2638 0.2837 0.9219
vn 0 0.285 0.9585
vn 0.2638 0.2837 0.9219
vn 0.5038 0.2804 0.8171
vn 0.7016 0.2759 0.6569
vn 0.8466 0.2717 0.4576
vn 0.9343 0.2687 0.2344
vn 0.6142 0.774 -0.1536
vn 0.6334 0.7739 -0
vn 0.5569 0.7745 -0.3001
vn 0.4618 0.7752 -0.4311
vn 0.3319 0.7758 -0.5366
vn 0.1739 0.7764 -0.6058
vn 0 0.7766 -0.63
vn -0.1739 0.7764 -0.6058
vn -0.3319 0.7758 -0.5366
vn -0.4618 0.7752 -0.4311
vn -0.5569 0.7745 -0.3001
vn -0.6142 0.774 -0.1536
vn -0.6334 0.7739 -0
vn -0.6142 0.774 0.1536
vn -0.5569 0.7745 0.3001
vn -0.4618 0.7752 0.4311
vn -0.3319 0.7758 0.5366
vn -0.1739 0.7764 0.6058
vn 0 0.7766 0.63
vn 0.1739 0.7764 0.6058
vn 0.3319 0.7758 0.5366
vn 0.4618 0.7752 0.4311
vn 0.5569 0.7745 0.3001
vn 0.6142 0.774 0.1536
vn 0.9464 0 -0.3231
vn 1 0 -0
vn 0.7858 0 -0.6185
vn 0.5241 0 -0.8517
vn 0.1847 0 -0.9828
vn -0.1847 0 -0.9828
vn -0.5241 0 -0.8517
vn -0.7858 0 -0.6185
vn -0.9464 0 -0.3231
vn -1 0 -0
vn -0.9464 0 0.3231
vn -0.7858 0 0.6185
vn -0.5241 0 0.8517
vn -0.1847 0 0.9828
vn 0.1847 0 0.9828
vn 0.5241 0 0.8517
vn 0.7858 0 0.6185
vn 0.9464 0 0.3231
vn 0.5774 0.5774 0.5774
vn 0.5774 0.5774 -0.5774
vn -0.5774 0.5774 -0.5774
vn -0.5774 0.5774 0.5774
vn 0.7071 0 0.7071
vn -0.7071 0 0.7071
vn 0.7071 0 -0.7071
vn -0.7071 0 -0.7071
#end 98 normals 

#begin 356 faces
o Tree
usemtl wire_210187158
g Tree
s 1
f 1/1/1 2/2/2 3/3/3 4/4/4 
f 3/3/3 5/5/5 6/6/6 7/7/7 
f 6/6/6 8/8/8 7/7/7 
f 7/7/7 9/9/9 10/10/10 11/11/11 
f 10/10/10 12/12/12 11/11/11 
f 11/11/11 13/13/13 14/14/14 15/15/15 
f 14/14/14 16/16/16 15/15/15 
f 7/7/7 11/11/11 15/15/15 4/4/4 
f 15/15/15 17/17/17 18/18/18 19/19/19 
f 18/18/18 20/20/20 19/19/19 
f 19/19/19 21/21/21 22/22/22 4/4/4 
f 22/22/22 23/23/23 4/4/4 
f 15/15/15 19/19/19 4/4/4 
f 3/3/3 7/7/7 4/4/4 
f 24/24/24 1/1/1 4/4/4 
s 8
f 23/23/23 25/25/25 26/26/26 4/4/4 
f 23/23/23 22/22/22 27/27/27 25/25/25 
f 22/22/22 21/21/21 28/28/28 27/27/27 
f 21/21/21 19/19/19 29/29/29 28/28/28 
f 19/19/19 20/20/20 30/30/30 29/29/29 
f 18/18/18 31/31/31 30/30/30 20/20/20 
f 17/407/17 32/32/32 31/415/31 18/409/18 
f 15/405/15 33/33/33 32/32/32 17/407/17 
f 16/402/16 34/34/34 33/33/33 15/405/15 
f 14/401/14 35/35/35 34/34/34 16/402/16 
f 13/399/13 36/36/36 35/35/35 14/401/14 
f 11/397/11 37/37/37 36/36/36 13/399/13 
f 12/395/12 38/38/38 37/37/37 11/397/11 
f 12/395/12 10/393/10 39/39/39 38/38/38 
f 10/393/10 9/376/9 40/40/40 39/39/39 
f 9/376/9 7/391/7 41/41/41 40/40/40 
f 7/391/7 8/388/8 42/42/42 41/41/41 
f 6/386/6 43/43/43 42/42/42 8/388/8 
f 5/384/5 44/44/44 43/43/43 6/386/6 
f 3/382/3 45/45/45 44/44/44 5/384/5 
f 2/380/2 46/46/46 45/45/45 3/382/3 
f 1/378/1 47/47/47 46/46/46 2/380/2 
f 24/411/24 48/48/48 47/47/47 1/378/1 
f 4/4/4 26/26/26 48/48/48 24/411/24 
f 25/25/25 49/49/25 50/50/26 26/26/26 
f 25/25/25 27/27/27 51/51/27 49/49/25 
f 27/27/27 28/28/28 52/52/28 51/51/27 
f 28/28/28 29/29/29 53/53/29 52/52/28 
f 29/29/29 30/30/30 54/54/30 53/53/29 
f 31/31/31 55/55/31 54/54/30 30/30/30 
f 32/32/32 56/56/32 55/417/31 31/415/31 
f 33/33/33 57/57/33 56/56/32 32/32/32 
f 34/34/34 58/58/34 57/57/33 33/33/33 
f 35/35/35 59/59/35 58/58/34 34/34/34 
f 36/36/36 60/60/36 59/59/35 35/35/35 
f 37/37/37 61/61/37 60/60/36 36/36/36 
f 38/38/38 62/62/38 61/61/37 37/37/37 
f 38/38/38 39/39/39 63/63/39 62/62/38 
f 39/39/39 40/40/40 64/64/40 63/63/39 
f 40/40/40 41/41/41 65/65/41 64/64/40 
f 41/41/41 42/42/42 66/66/42 65/65/41 
f 43/43/43 67/67/43 66/66/42 42/42/42 
f 44/44/44 68/68/44 67/67/43 43/43/43 
f 45/45/45 69/69/45 68/68/44 44/44/44 
f 46/46/46 70/70/46 69/69/45 45/45/45 
f 47/47/47 71/71/47 70/70/46 46/46/46 
f 48/48/48 72/72/48 71/71/47 47/47/47 
f 26/26/26 50/50/26 72/72/48 48/48/48 
f 49/49/25 73/73/25 74/74/26 50/50/26 
f 49/49/25 51/51/27 75/75/27 73/73/25 
f 51/51/27 52/52/28 76/76/28 75/75/27 
f 52/52/28 53/53/29 77/77/29 76/76/28 
f 53/53/29 54/54/30 78/78/30 77/77/29 
f 55/55/31 79/79/31 78/78/30 54/54/30 
f 56/56/32 80/80/32 79/404/31 55/417/31 
f 57/57/33 81/81/33 80/80/32 56/56/32 
f 58/58/34 82/82/34 81/81/33 57/57/33 
f 59/59/35 83/83/35 82/82/34 58/58/34 
f 60/60/36 84/84/36 83/83/35 59/59/35 
f 61/61/37 85/85/37 84/84/36 60/60/36 
f 62/62/38 86/86/38 85/85/37 61/61/37 
f 62/62/38 63/63/39 87/87/39 86/86/38 
f 63/63/39 64/64/40 88/88/40 87/87/39 
f 64/64/40 65/65/41 89/89/41 88/88/40 
f 65/65/41 66/66/42 90/90/42 89/89/41 
f 67/67/43 91/91/43 90/90/42 66/66/42 
f 68/68/44 92/92/44 91/91/43 67/67/43 
f 69/69/45 93/93/45 92/92/44 68/68/44 
f 70/70/46 94/94/46 93/93/45 69/69/45 
f 71/71/47 95/95/47 94/94/46 70/70/46 
f 72/72/48 96/96/48 95/95/47 71/71/47 
f 50/50/26 74/74/26 96/96/48 72/72/48 
f 73/73/25 97/97/25 98/98/26 74/74/26 
f 75/75/27 99/99/27 97/97/25 73/73/25 
f 75/75/27 76/76/28 100/100/28 99/99/27 
f 76/76/28 77/77/29 101/101/29 100/100/28 
f 78/78/30 102/102/30 101/101/29 77/77/29 
f 79/79/31 103/103/31 102/102/30 78/78/30 
f 80/80/32 104/104/32 103/418/31 79/404/31 
f 81/81/33 105/105/33 104/104/32 80/80/32 
f 82/82/34 106/106/34 105/105/33 81/81/33 
f 83/83/35 107/107/35 106/106/34 82/82/34 
f 84/84/36 108/108/36 107/107/35 83/83/35 
f 85/85/37 109/109/37 108/108/36 84/84/36 
f 86/86/38 110/110/38 109/109/37 85/85/37 
f 87/87/39 111/111/39 110/110/38 86/86/38 
f 87/87/39 88/88/40 112/112/40 111/111/39 
f 88/88/40 89/89/41 113/113/41 112/112/40 
f 90/90/42 114/114/42 113/113/41 89/89/41 
f 91/91/43 115/115/43 114/114/42 90/90/42 
f 92/92/44 116/116/44 115/115/43 91/91/43 
f 93/93/45 117/117/45 116/116/44 92/92/44 
f 94/94/46 118/118/46 117/117/45 93/93/45 
f 95/95/47 119/119/47 118/118/46 94/94/46 
f 96/96/48 120/120/48 119/119/47 95/95/47 
f 74/74/26 98/98/26 120/120/48 96/96/48 
f 97/97/25 121/121/49 122/122/50 98/98/26 
f 99/99/27 123/123/51 121/121/49 97/97/25 
f 100/100/28 124/124/52 123/123/51 99/99/27 
f 101/101/29 125/125/53 124/124/52 100/100/28 
f 102/102/30 126/126/54 125/125/53 101/101/29 
f 103/103/31 127/127/55 126/126/54 102/102/30 
f 104/104/32 128/128/56 127/419/55 103/418/31 
f 105/105/33 129/129/57 128/128/56 104/104/32 
f 106/106/34 130/130/58 129/129/57 105/105/33 
f 107/107/35 131/131/59 130/130/58 106/106/34 
f 108/108/36 132/132/60 131/131/59 107/107/35 
f 109/109/37 133/133/61 132/132/60 108/108/36 
f 110/110/38 134/134/62 133/133/61 109/109/37 
f 111/111/39 135/135/63 134/134/62 110/110/38 
f 112/112/40 136/136/64 135/135/63 111/111/39 
f 113/113/41 137/137/65 136/136/64 112/112/40 
f 114/114/42 138/138/66 137/137/65 113/113/41 
f 115/115/43 139/139/67 138/138/66 114/114/42 
f 116/116/44 140/140/68 139/139/67 115/115/43 
f 117/117/45 141/141/69 140/140/68 116/116/44 
f 118/118/46 142/142/70 141/141/69 117/117/45 
f 119/119/47 143/143/71 142/142/70 118/118/46 
f 120/120/48 144/144/72 143/143/71 119/119/47 
f 98/98/26 122/122/50 144/144/72 120/120/48 
s 1
f 122/122/50 121/121/49 123/123/51 143/403/71 
f 123/123/51 124/124/52 125/125/53 127/127/55 
f 125/125/53 126/126/54 127/127/55 
f 127/127/55 128/420/56 129/377/57 131/381/59 
f 129/377/57 130/379/58 131/381/59 
f 131/381/59 132/412/60 133/383/61 135/390/63 
f 133/383/61 134/385/62 135/390/63 
f 127/127/55 131/381/59 135/390/63 143/403/71 
f 135/390/63 136/387/64 137/375/65 139/396/67 
f 137/375/65 138/392/66 139/396/67 
f 139/396/67 140/394/68 141/398/69 143/403/71 
f 141/398/69 142/400/70 143/403/71 
f 135/390/63 139/396/67 143/403/71 
f 123/123/51 127/127/55 143/403/71 
f 144/144/72 122/122/50 143/403/71 
f 145/145/1 146/146/2 147/147/3 148/148/4 
f 147/147/3 149/149/5 150/150/6 151/151/7 
f 150/150/6 152/152/8 151/151/7 
f 151/151/7 153/153/9 154/154/10 155/155/11 
f 154/154/10 156/156/12 155/155/11 
f 155/155/11 157/157/13 158/158/14 159/159/15 
f 158/158/14 160/160/16 159/159/15 
f 151/151/7 155/155/11 159/159/15 148/148/4 
f 159/159/15 161/161/17 162/162/18 163/163/19 
f 162/162/18 164/164/20 163/163/19 
f 163/163/19 165/165/21 166/166/22 148/148/4 
f 166/166/22 167/167/23 148/148/4 
f 159/159/15 163/163/19 148/148/4 
f 147/147/3 151/151/7 148/148/4 
f 168/168/24 145/145/1 148/148/4 
s 8
f 167/167/23 169/169/25 170/170/26 148/148/4 
f 167/167/23 166/166/22 171/171/27 169/169/25 
f 166/166/22 165/165/21 172/172/28 171/171/27 
f 165/165/21 163/163/19 173/173/29 172/172/28 
f 163/163/19 164/164/20 174/174/30 173/173/29 
f 162/162/18 175/175/31 174/174/30 164/164/20 
f 161/437/17 176/176/32 175/441/31 162/438/18 
f 159/414/15 177/177/33 176/176/32 161/437/17 
f 160/436/16 178/178/34 177/177/33 159/414/15 
f 158/434/14 179/179/35 178/178/34 160/436/16 
f 157/432/13 180/180/36 179/179/35 158/434/14 
f 155/431/11 181/181/37 180/180/36 157/432/13 
f 156/430/12 182/182/38 181/181/37 155/431/11 
f 156/430/12 154/428/10 183/183/39 182/182/38 
f 154/428/10 153/426/9 184/184/40 183/183/39 
f 153/426/9 151/425/7 185/185/41 184/184/40 
f 151/425/7 152/410/8 186/186/42 185/185/41 
f 150/424/6 187/187/43 186/186/42 152/410/8 
f 149/422/5 188/188/44 187/187/43 150/424/6 
f 147/421/3 189/189/45 188/188/44 149/422/5 
f 146/408/2 190/190/46 189/189/45 147/421/3 
f 145/406/1 191/191/47 190/190/46 146/408/2 
f 168/440/24 192/192/48 191/191/47 145/406/1 
f 148/148/4 170/170/26 192/192/48 168/440/24 
f 169/169/25 193/193/25 194/194/26 170/170/26 
f 169/169/25 171/171/27 195/195/27 193/193/25 
f 171/171/27 172/172/28 196/196/28 195/195/27 
f 172/172/28 173/173/29 197/197/29 196/196/28 
f 173/173/29 174/174/30 198/198/30 197/197/29 
f 175/175/31 199/199/31 198/198/30 174/174/30 
f 176/176/32 200/200/32 199/389/31 175/441/31 
f 177/177/33 201/201/33 200/200/32 176/176/32 
f 178/178/34 202/202/34 201/201/33 177/177/33 
f 179/179/35 203/203/35 202/202/34 178/178/34 
f 180/180/36 204/204/36 203/203/35 179/179/35 
f 181/181/37 205/205/37 204/204/36 180/180/36 
f 182/182/38 206/206/38 205/205/37 181/181/37 
f 182/182/38 183/183/39 207/207/39 206/206/38 
f 183/183/39 184/184/40 208/208/40 207/207/39 
f 184/184/40 185/185/41 209/209/41 208/208/40 
f 185/185/41 186/186/42 210/210/42 209/209/41 
f 187/187/43 211/211/43 210/210/42 186/186/42 
f 188/188/44 212/212/44 211/211/43 187/187/43 
f 189/189/45 213/213/45 212/212/44 188/188/44 
f 190/190/46 214/214/46 213/213/45 189/189/45 
f 191/191/47 215/215/47 214/214/46 190/190/46 
f 192/192/48 216/216/48 215/215/47 191/191/47 
f 170/170/26 194/194/26 216/216/48 192/192/48 
f 193/193/25 217/217/25 218/218/26 194/194/26 
f 193/193/25 195/195/27 219/219/27 217/217/25 
f 195/195/27 196/196/28 220/220/28 219/219/27 
f 196/196/28 197/197/29 221/221/29 220/220/28 
f 197/197/29 198/198/30 222/222/30 221/221/29 
f 199/199/31 223/223/31 222/222/30 198/198/30 
f 200/200/32 224/224/32 223/413/31 199/389/31 
f 201/201/33 225/225/33 224/224/32 200/200/32 
f 202/202/34 226/226/34 225/225/33 201/201/33 
f 203/203/35 227/227/35 226/226/34 202/202/34 
f 204/204/36 228/228/36 227/227/35 203/203/35 
f 205/205/37 229/229/37 228/228/36 204/204/36 
f 206/206/38 230/230/38 229/229/37 205/205/37 
f 206/206/38 207/207/39 231/231/39 230/230/38 
f 207/207/39 208/208/40 232/232/40 231/231/39 
f 208/208/40 209/209/41 233/233/41 232/232/40 
f 209/209/41 210/210/42 234/234/42 233/233/41 
f 211/211/43 235/235/43 234/234/42 210/210/42 
f 212/212/44 236/236/44 235/235/43 211/211/43 
f 213/213/45 237/237/45 236/236/44 212/212/44 
f 214/214/46 238/238/46 237/237/45 213/213/45 
f 215/215/47 239/239/47 238/238/46 214/214/46 
f 216/216/48 240/240/48 239/239/47 215/215/47 
f 194/194/26 218/218/26 240/240/48 216/216/48 
f 217/217/25 241/241/25 242/242/26 218/218/26 
f 219/219/27 243/243/27 241/241/25 217/217/25 
f 219/219/27 220/220/28 244/244/28 243/243/27 
f 220/220/28 221/221/29 245/245/29 244/244/28 
f 222/222/30 246/246/30 245/245/29 221/221/29 
f 223/223/31 247/247/31 246/246/30 222/222/30 
f 224/224/32 248/248/32 247/416/31 223/413/31 
f 225/225/33 249/249/33 248/248/32 224/224/32 
f 226/226/34 250/250/34 249/249/33 225/225/33 
f 227/227/35 251/251/35 250/250/34 226/226/34 
f 228/228/36 252/252/36 251/251/35 227/227/35 
f 229/229/37 253/253/37 252/252/36 228/228/36 
f 230/230/38 254/254/38 253/253/37 229/229/37 
f 231/231/39 255/255/39 254/254/38 230/230/38 
f 231/231/39 232/232/40 256/256/40 255/255/39 
f 232/232/40 233/233/41 257/257/41 256/256/40 
f 234/234/42 258/258/42 257/257/41 233/233/41 
f 235/235/43 259/259/43 258/258/42 234/234/42 
f 236/236/44 260/260/44 259/259/43 235/235/43 
f 237/237/45 261/261/45 260/260/44 236/236/44 
f 238/238/46 262/262/46 261/261/45 237/237/45 
f 239/239/47 263/263/47 262/262/46 238/238/46 
f 240/240/48 264/264/48 263/263/47 239/239/47 
f 218/218/26 242/242/26 264/264/48 240/240/48 
f 241/241/25 265/265/49 266/266/50 242/242/26 
f 243/243/27 267/267/51 265/265/49 241/241/25 
f 244/244/28 268/268/52 267/267/51 243/243/27 
f 245/245/29 269/269/53 268/268/52 244/244/28 
f 246/246/30 270/270/54 269/269/53 245/245/29 
f 247/247/31 271/271/55 270/270/54 246/246/30 
f 248/248/32 272/272/56 271/423/55 247/416/31 
f 249/249/33 273/273/57 272/272/56 248/248/32 
f 250/250/34 274/274/58 273/273/57 249/249/33 
f 251/251/35 275/275/59 274/274/58 250/250/34 
f 252/252/36 276/276/60 275/275/59 251/251/35 
f 253/253/37 277/277/61 276/276/60 252/252/36 
f 254/254/38 278/278/62 277/277/61 253/253/37 
f 255/255/39 279/279/63 278/278/62 254/254/38 
f 256/256/40 280/280/64 279/279/63 255/255/39 
f 257/257/41 281/281/65 280/280/64 256/256/40 
f 258/258/42 282/282/66 281/281/65 257/257/41 
f 259/259/43 283/283/67 282/282/66 258/258/42 
f 260/260/44 284/284/68 283/283/67 259/259/43 
f 261/261/45 285/285/69 284/284/68 260/260/44 
f 262/262/46 286/286/70 285/285/69 261/261/45 
f 263/263/47 287/287/71 286/286/70 262/262/46 
f 264/264/48 288/288/72 287/287/71 263/263/47 
f 242/242/26 266/266/50 288/288/72 264/264/48 
s 1
f 266/266/50 265/265/49 267/267/51 287/452/71 
f 267/267/51 268/268/52 269/269/53 271/271/55 
f 269/269/53 270/270/54 271/271/55 
f 271/271/55 272/442/56 273/435/57 275/427/59 
f 273/435/57 274/443/58 275/427/59 
f 275/427/59 276/444/60 277/439/61 279/433/63 
f 277/439/61 278/445/62 279/433/63 
f 271/271/55 275/427/59 279/433/63 287/452/71 
f 279/433/63 280/446/64 281/447/65 283/449/67 
f 281/447/65 282/448/66 283/449/67 
f 283/449/67 284/450/68 285/429/69 287/452/71 
f 285/429/69 286/451/70 287/452/71 
f 279/433/63 283/449/67 287/452/71 
f 267/267/51 271/271/55 287/452/71 
f 288/288/72 266/266/50 287/452/71 
s 8
f 289/289/73 290/290/73 291/291/74 292/292/74 
f 293/293/75 294/294/75 290/290/73 289/289/73 
f 295/295/76 296/296/76 294/294/75 293/293/75 
f 297/453/77 298/298/77 296/296/76 295/295/76 
f 299/299/78 300/300/78 298/454/77 297/297/77 
f 301/301/79 302/302/79 300/300/78 299/299/78 
f 303/303/80 304/304/80 302/302/79 301/301/79 
f 305/305/81 306/306/81 304/304/80 303/303/80 
f 307/307/82 308/308/82 306/306/81 305/305/81 
f 309/309/83 310/310/83 308/308/82 307/307/82 
f 311/311/84 312/312/84 310/310/83 309/309/83 
f 313/313/85 314/314/85 312/312/84 311/311/84 
f 315/315/86 316/316/86 314/314/85 313/313/85 
f 317/317/87 318/318/87 316/316/86 315/315/86 
f 319/319/88 320/320/88 318/318/87 317/317/87 
f 321/321/89 322/322/89 320/320/88 319/319/88 
f 323/323/90 324/324/90 322/322/89 321/321/89 
f 292/292/74 291/291/74 324/324/90 323/323/90 
f 290/290/73 325/325/73 326/326/74 291/291/74 
f 294/294/75 327/327/75 325/325/73 290/290/73 
f 296/296/76 328/328/76 327/327/75 294/294/75 
f 298/298/77 329/329/77 328/328/76 296/296/76 
f 300/300/78 330/330/78 329/455/77 298/454/77 
f 302/302/79 331/331/79 330/330/78 300/300/78 
f 304/304/80 332/332/80 331/331/79 302/302/79 
f 306/306/81 333/333/81 332/332/80 304/304/80 
f 308/308/82 334/334/82 333/333/81 306/306/81 
f 310/310/83 335/335/83 334/334/82 308/308/82 
f 312/312/84 336/336/84 335/335/83 310/310/83 
f 314/314/85 337/337/85 336/336/84 312/312/84 
f 316/316/86 338/338/86 337/337/85 314/314/85 
f 318/318/87 339/339/87 338/338/86 316/316/86 
f 320/320/88 340/340/88 339/339/87 318/318/87 
f 322/322/89 341/341/89 340/340/88 320/320/88 
f 324/324/90 342/342/90 341/341/89 322/322/89 
f 291/291/74 326/326/74 342/342/90 324/324/90 
s 4
f 343/343/91 344/344/92 345/345/93 346/346/94 
s 8
f 347/464/95 343/458/91 346/457/94 348/348/96 
s 16
f 349/466/97 344/460/92 343/459/91 347/347/95 
s 32
f 350/467/98 345/462/93 344/461/92 349/349/97 
s 64
f 348/465/96 346/456/94 345/463/93 350/350/98 
s 4
f 351/351/91 352/352/92 353/353/93 354/354/94 
s 8
f 355/476/95 351/470/91 354/469/94 356/356/96 
s 16
f 357/478/97 352/472/92 351/471/91 355/355/95 
s 32
f 358/479/98 353/474/93 352/473/92 357/357/97 
s 64
f 356/477/96 354/468/94 353/475/93 358/358/98 
s 4
f 359/359/91 360/360/92 361/361/93 362/362/94 
s 8
f 363/488/95 359/482/91 362/481/94 364/364/96 
s 16
f 365/490/97 360/484/92 359/483/91 363/363/95 
s 32
f 366/491/98 361/486/93 360/485/92 365/365/97 
s 64
f 364/489/96 362/480/94 361/487/93 366/366/98 
s 4
f 367/367/91 368/368/92 369/369/93 370/370/94 
s 8
f 371/500/95 367/494/91 370/493/94 372/372/96 
s 16
f 373/502/97 368/496/92 367/495/91 371/371/95 
s 32
f 374/503/98 369/498/93 368/497/92 373/373/97 
s 64
f 372/501/96 370/492/94 369/499/93 374/374/98 
#end 356 faces

#ZOMPROPERTIES_04{
#ZOMPROPERTIES_04 table {Mesh table {SymPlane table {Point vector3d 0 0 0 Normal vector3d 1 0 0 Threshold double 0.01 
#ZOMPROPERTIES_04 Enabled bool false EdgeID int -1 SymEdgeID int -1 UPos double 0.5 LocalMode bool false } RootGroup C
#ZOMPROPERTIES_04 SubMeshGroup {Children table {Tile_0_0 CSubMeshGroup {Children table {} BBoxUV box3d 0 0 0 0 0 0 BBo
#ZOMPROPERTIES_04 x3D box3d 0 0 0 0 0 0 Area3D double 0 AreaUV double 0 IsRoot bool false Properties table {Selected b
#ZOMPROPERTIES_04 ool false Box box3d 0 1 0 1 0 1 U int 0 V int 0 NU int 0 NV int 0 Pack table {BoxFrameEdit bool fals
#ZOMPROPERTIES_04 e Behavior string "Free" Locked bool false Scaling table {Optimization string "Fill" } } Hotspot tab
#ZOMPROPERTIES_04 le {} } IsTile bool true PolyIDs ints { 344 342 352 354 350 338 340 348 341 351 349 347 339 337 355 
#ZOMPROPERTIES_04 353 345 343 336 346 300 317 335 334 333 332 331 330 329 328 327 326 325 324 323 322 304 305 306 307 
#ZOMPROPERTIES_04 308 309 310 311 312 313 314 315 316 318 319 320 321 303 302 301 0 14 13 7 12 10 17 41 42 66 67 68 92
#ZOMPROPERTIES_04  116 115 91 90 89 88 64 40 39 15 16 38 37 36 35 34 33 32 31 30 29 28 27 26 25 24 23 22 21 45 69 93 9
#ZOMPROPERTIES_04 4 118 117 119 95 96 120 121 122 123 124 125 126 127 128 129 105 106 130 131 107 108 132 133 134 149 
#ZOMPROPERTIES_04 135 148 142 147 145 146 143 144 140 141 138 139 136 114 113 112 111 87 63 86 62 85 61 110 109 84 60 
#ZOMPROPERTIES_04 83 59 82 58 81 57 80 79 55 78 54 77 76 52 75 51 50 74 73 49 98 99 100 101 53 102 103 104 56 97 72 48
#ZOMPROPERTIES_04  71 47 70 46 65 137 44 43 19 9 20 8 18 11 5 6 3 4 1 2 150 164 163 157 162 160 167 191 215 239 238 23
#ZOMPROPERTIES_04 7 213 214 189 190 165 166 188 187 186 185 184 183 182 181 180 179 178 177 176 175 174 173 172 171 19
#ZOMPROPERTIES_04 5 219 243 267 268 244 245 221 222 223 224 225 226 250 251 275 276 277 278 279 280 256 257 233 234 23
#ZOMPROPERTIES_04 5 236 260 259 283 282 258 281 284 261 262 285 298 292 297 295 296 293 294 290 291 288 289 286 287 26
#ZOMPROPERTIES_04 5 241 240 216 217 218 194 170 159 158 169 168 193 192 242 266 264 263 299 211 210 209 232 231 230 22
#ZOMPROPERTIES_04 9 205 228 204 227 252 253 254 206 255 207 208 274 273 249 248 272 271 247 270 246 269 203 202 201 20
#ZOMPROPERTIES_04 0 199 198 197 220 196 212 161 155 156 153 154 151 152 } } } BBoxUV box3d 0 0 0 0 0 0 BBox3D box3d 0 
#ZOMPROPERTIES_04 0 0 0 0 0 Area3D double 0 AreaUV double 0 IsRoot bool true Properties table {Selected bool false Box
#ZOMPROPERTIES_04  box3d 0 1 0 1 0 1 U int 0 V int 0 NU int 1 NV int 1 Pack table {Rotate table {Initial string "Autom
#ZOMPROPERTIES_04 atic" Min double 0 Max double 90 Step double 0 } ResolutionDivisor int 0 MapResolution int 2048 UseP
#ZOMPROPERTIES_04 ixelUnit bool true PaddingSize double 0.0078125 MarginSize double 0.00390625 PaddingSizePx int 16 Ma
#ZOMPROPERTIES_04 rginSizePx int 8 Scaling table {TexelDensity double 1024 Mode int 2 Optimization string "Fill" } Max
#ZOMPROPERTIES_04 Mutations int 1 Strategy string "Efficient" Sides string "Closed" } Hotspot table {} Tiling vector3d
#ZOMPROPERTIES_04  1 1 1 TileRatioMode string "1:1" } IsTile bool false PolyIDs ints { } } Maps table {Pin CDataMap {P
#ZOMPROPERTIES_04 rimType string "Vertex" Size int 1 DefaultValue double 0 ScaleType string "Normalized" MergeMode str
#ZOMPROPERTIES_04 ing "Max" MinValue double 0 MaxValue double 1 Data doubles { r 503 0 } } Density CDataMap {PrimType 
#ZOMPROPERTIES_04 string "Polygon" Size int 1 DefaultValue double 1 ScaleType string "Log" MergeMode string "Average" 
#ZOMPROPERTIES_04 MinValue double 0.1 MaxValue double 4 Data doubles { r 356 1 } } Protect CDataMap {PrimType string "
#ZOMPROPERTIES_04 Vertex" Size int 1 DefaultValue double 0 ScaleType string "Normalized" MergeMode string "Average" Mi
#ZOMPROPERTIES_04 nValue double -1 MaxValue double 1 Data doubles { r 503 0 } } } } }
#ZOMPROPERTIES_04}


#ZOMSCENE_01{
#ZOMSCENE_01 CScene {Settings table {AxisSystem table {UpVector string "y" } Unit string "cm" TexelDensityDisplay
#ZOMSCENE_01 Unit string "tx/cm" } Root CXForm {Tree CPrim {PolyRange table {Low int 0 High int 355 } } } }
#ZOMSCENE_01}

#begin 0 fatal error vertex (that RizomUV cannot handle)
#end 0 fatal error vertex (that RizomUV cannot handle)

#begin 0 error vertex
#end 0 error vertex
